<?xml version="1.0" standalone="no"?>
<!DOCTYPE svg PUBLIC "-//W3C//DTD SVG 20010904//EN"
 "http://www.w3.org/TR/2001/REC-SVG-20010904/DTD/svg10.dtd">
<svg version="1.0" xmlns="http://www.w3.org/2000/svg"
 width="1080.000000pt" height="1080.000000pt" viewBox="0 0 1080.000000 1080.000000"
 preserveAspectRatio="xMidYMid meet">

<g transform="translate(0.000000,1080.000000) scale(0.100000,-0.100000)"
fill="#000000" stroke="none">
<path d="M0 5400 l0 -5400 5400 0 5400 0 0 5400 0 5400 -5400 0 -5400 0 0
-5400z m7465 5200 c-3 -5 -24 -10 -45 -10 -21 0 -42 5 -45 10 -4 6 13 10 45
10 32 0 49 -4 45 -10z m380 -10 c108 -66 74 -228 -52 -255 -109 -22 -200 104
-149 204 35 67 134 93 201 51z m336 5 c85 -45 93 -185 13 -239 -47 -32 -54
-29 -54 24 0 38 4 50 15 50 8 0 15 9 15 20 0 11 -7 20 -15 20 -9 0 -15 9 -15
25 0 19 5 25 21 25 14 0 19 5 17 17 -9 47 -88 13 -88 -37 0 -20 -5 -30 -15
-30 -8 0 -15 -9 -15 -20 0 -11 7 -20 15 -20 11 0 15 -12 15 -50 0 -43 -2 -49
-17 -43 -71 25 -112 101 -94 170 23 86 122 129 202 88z m-4626 -31 c10 -30 11
-31 32 -17 13 9 30 13 38 9 18 -6 20 -47 3 -64 -9 -9 -4 -14 20 -23 42 -14 43
-45 3 -62 -23 -10 -28 -16 -21 -27 6 -8 10 -25 10 -37 0 -18 -6 -23 -24 -23
-14 0 -28 5 -31 10 -11 17 -23 11 -29 -15 -4 -14 -13 -28 -21 -32 -20 -7 -45
14 -45 38 0 20 -15 25 -25 9 -10 -16 -55 -12 -61 5 -4 8 1 26 10 40 14 21 14
25 2 25 -7 0 -24 8 -37 19 -20 16 -21 21 -10 35 7 9 22 16 32 16 22 0 23 9 7
45 -18 40 2 53 47 32 31 -15 35 -15 35 -1 0 27 21 55 38 52 9 -2 22 -17 27
-34z m3977 -2 c16 -16 23 -37 26 -82 4 -59 4 -61 -35 -99 -50 -51 -95 -60
-155 -33 -36 15 -50 29 -68 66 -26 55 -22 100 14 143 23 27 27 28 110 27 75 0
90 -3 108 -22z m-1614 -482 c2 -136 5 -177 16 -185 11 -8 4 -11 -27 -12 -33
-2 -38 0 -24 8 15 9 17 29 17 179 l0 170 -55 0 c-35 0 -55 -4 -55 -12 0 -6 -2
-9 -5 -7 -2 3 -2 14 1 24 4 18 12 19 67 15 l62 -5 3 -175z m434 162 c45 -26
71 -86 74 -169 1 -42 -2 -73 -7 -73 -6 0 -7 -4 -4 -10 8 -13 -22 -64 -49 -80
-15 -9 -13 -4 8 18 24 26 30 41 32 89 7 130 -29 208 -109 237 -40 15 -40 15
-7 10 19 -4 47 -13 62 -22z m-1396 -163 c30 -90 53 -173 51 -184 -1 -11 -32
66 -67 172 -38 111 -60 188 -52 184 7 -4 38 -81 68 -172z m123 13 c-29 -84
-54 -150 -56 -148 -3 2 16 66 41 142 25 75 46 146 46 158 0 13 3 17 10 10 7
-7 -7 -60 -41 -162z m201 -12 c0 -155 2 -170 19 -182 18 -13 16 -14 -22 -15
-23 0 -36 1 -29 4 9 3 12 51 12 189 0 121 3 183 10 179 6 -4 10 -73 10 -175z
m410 160 c11 -11 20 -24 20 -30 0 -5 -11 2 -25 15 -20 21 -34 25 -86 25 -58 0
-64 -2 -99 -38 -50 -50 -65 -104 -50 -178 21 -101 89 -151 197 -142 30 3 48 1
41 -3 -23 -15 -128 -10 -165 7 -99 48 -133 208 -61 299 37 47 77 65 146 65 49
0 66 -4 82 -20z m353 3 c4 -2 7 -10 6 -16 0 -9 -2 -9 -6 1 -3 7 -24 12 -53 12
-27 0 -52 5 -56 11 -5 8 9 9 47 4 30 -4 57 -9 62 -12z m179 -1 c-19 -10 -41
-31 -50 -47 -9 -17 -21 -33 -26 -37 -18 -12 -19 -117 -2 -162 24 -64 64 -96
128 -106 l53 -8 -50 -1 c-92 -2 -152 60 -162 168 -5 48 -1 68 16 105 25 50 82
106 109 106 10 0 3 -7 -16 -18z m358 -162 c0 -155 2 -170 19 -182 18 -13 16
-14 -22 -15 -29 -2 -37 1 -27 7 12 8 15 41 15 189 0 98 3 177 8 174 4 -2 7
-80 7 -173z m122 150 c20 -25 24 -106 7 -130 -8 -11 -9 -7 -5 19 7 38 -9 106
-26 118 -7 4 -28 10 -48 15 -32 7 -31 7 10 3 31 -2 50 -11 62 -25z m219 -81
c45 -92 49 -104 49 -172 0 -65 3 -75 20 -83 16 -7 10 -9 -27 -11 -36 -1 -44 1
-30 8 14 8 17 24 17 86 0 73 -2 81 -54 179 -33 61 -49 101 -40 97 8 -3 37 -50
65 -104z m104 4 c-25 -48 -44 -83 -43 -77 7 26 83 180 86 173 2 -4 -18 -47
-43 -96z m-3675 59 c54 -27 80 -74 80 -145 0 -73 -27 -135 -68 -159 -35 -21
-102 -33 -137 -24 l-25 6 0 164 c0 89 3 166 7 169 13 14 109 7 143 -11z m190
-153 c0 -149 -2 -170 -16 -167 -8 2 -15 6 -15 11 1 4 1 79 1 167 0 136 2 160
15 160 13 0 15 -26 15 -171z m289 162 c30 -19 5 -35 -50 -32 -68 3 -103 -21
-120 -82 -28 -105 23 -187 116 -187 l35 0 0 55 c0 55 0 55 -31 55 -24 0 -30 4
-27 18 2 13 15 18 51 20 l47 3 0 -85 c0 -47 -4 -87 -9 -90 -5 -4 -30 -9 -54
-12 -63 -9 -128 23 -153 74 -26 52 -25 147 2 192 30 51 78 80 133 80 25 0 52
-4 60 -9z m141 -161 c0 -163 -1 -170 -20 -170 -19 0 -20 7 -20 170 0 163 1
170 20 170 19 0 20 -7 20 -170z m268 148 c3 -15 -4 -18 -42 -18 l-46 0 0 -150
c0 -143 -1 -150 -20 -150 -19 0 -20 7 -20 150 l0 150 -45 0 c-39 0 -45 3 -45
20 0 20 5 21 107 18 93 -3 108 -5 111 -20z m142 17 c0 -2 20 -74 45 -158 25
-85 45 -159 45 -166 0 -6 -8 -11 -18 -11 -13 0 -22 13 -31 50 l-13 50 -53 0
-53 0 -13 -50 c-9 -37 -18 -50 -31 -50 -10 0 -18 3 -18 7 0 4 21 81 47 170 43
150 49 163 70 163 13 0 23 -2 23 -5z m200 -150 l0 -155 65 0 c51 0 65 -3 65
-15 0 -12 -16 -15 -85 -15 l-85 0 0 170 c0 163 1 170 20 170 19 0 20 -7 20
-155z m2900 135 c0 -18 -7 -20 -60 -20 l-60 0 0 -55 0 -55 55 0 c48 0 55 -2
55 -20 0 -18 -7 -20 -55 -20 l-55 0 0 -75 c0 -68 -2 -75 -20 -75 -19 0 -20 7
-20 154 0 85 3 161 6 170 5 13 22 16 80 16 67 0 74 -2 74 -20z m230 0 c0 -18
-7 -20 -60 -20 l-60 0 0 -55 0 -55 55 0 c41 0 55 -4 55 -14 0 -11 -15 -16 -52
-18 l-53 -3 0 -60 0 -60 63 -3 c46 -2 62 -7 62 -17 0 -12 -17 -15 -80 -15
l-80 0 0 170 0 170 75 0 c68 0 75 -2 75 -20z m218 12 c7 -5 10 -16 7 -25 -5
-12 -12 -14 -36 -5 -38 13 -79 -11 -79 -47 0 -25 34 -65 56 -65 6 0 26 -13 43
-29 25 -24 31 -37 31 -71 0 -76 -69 -119 -144 -90 -16 6 -26 17 -26 30 0 17 3
19 19 10 27 -14 84 -13 99 2 22 22 14 75 -14 97 -15 12 -32 21 -39 21 -6 0
-22 12 -36 26 -35 37 -33 98 4 130 29 24 88 32 115 16z m280 -14 c3 -15 -4
-18 -42 -18 l-46 0 0 -150 c0 -143 -1 -150 -20 -150 -19 0 -20 7 -20 150 l0
150 -45 0 c-39 0 -45 3 -45 20 0 20 5 21 107 18 93 -3 108 -5 111 -20z m-1536
-160 c8 -7 34 -41 57 -75 23 -35 54 -69 69 -77 18 -10 21 -15 10 -16 -26 0
-74 46 -113 110 -30 49 -41 59 -68 63 l-32 4 31 1 c16 1 37 -4 46 -10z m-1841
-614 c17 -21 0 -49 -32 -49 -24 0 -36 23 -25 51 7 19 40 18 57 -2z m-1424
-113 c62 -29 87 -83 80 -174 -8 -115 -56 -160 -178 -166 l-79 -3 0 175 c0 131
3 177 13 180 30 13 124 5 164 -12z m791 2 c13 -25 4 -43 -19 -43 -25 0 -35 25
-19 45 16 20 27 19 38 -2z m2036 -21 c3 -5 25 -77 50 -160 40 -137 42 -152 26
-152 -13 0 -23 15 -35 51 l-17 50 -46 -3 c-46 -3 -46 -4 -61 -50 -11 -35 -20
-48 -33 -48 -15 0 -18 5 -13 21 9 29 85 293 85 296 0 7 39 2 44 -5z m216 -124
l36 -127 39 130 c34 114 41 129 60 129 21 0 22 -6 28 -97 11 -159 9 -223 -7
-223 -13 0 -25 92 -27 215 0 28 -2 46 -4 40 -2 -5 -20 -65 -41 -133 -28 -92
-41 -122 -53 -120 -10 2 -26 46 -50 133 l-36 130 -6 -115 c-4 -63 -7 -123 -8
-132 0 -10 -8 -18 -17 -18 -14 0 -15 14 -10 118 10 186 14 204 39 200 17 -3
26 -22 57 -130z m1199 117 c33 -17 41 -33 41 -85 0 -54 -32 -90 -88 -97 l-42
-6 0 -58 c0 -46 -3 -59 -15 -59 -13 0 -15 24 -15 153 0 85 3 157 7 160 12 12
83 7 112 -8z m141 -9 c5 -13 21 -70 37 -125 15 -55 30 -101 33 -101 3 0 18 46
33 101 38 138 43 149 66 149 17 0 20 -10 25 -87 4 -49 9 -121 12 -160 5 -69 4
-73 -16 -73 -18 0 -20 6 -20 79 0 43 -3 100 -7 126 l-6 47 -37 -123 c-24 -82
-42 -125 -52 -127 -12 -2 -24 27 -49 118 -39 138 -46 133 -48 -27 -1 -87 -2
-93 -22 -93 -20 0 -21 4 -15 58 3 31 8 103 12 160 6 92 8 102 25 102 11 0 23
-10 29 -24z m-2510 -141 c0 -148 -1 -155 -20 -155 -19 0 -20 7 -20 131 0 114
-2 130 -15 119 -14 -12 -35 -6 -35 10 0 10 61 50 78 50 9 0 12 -38 12 -155z
m198 -3 c2 -147 2 -152 -18 -152 -19 0 -20 6 -20 130 0 126 -1 130 -19 120
-26 -13 -31 -13 -31 5 0 17 59 57 75 52 6 -2 11 -66 13 -155z m289 143 c42
-30 58 -168 27 -243 -29 -74 -98 -81 -137 -14 -26 44 -27 173 -3 219 27 53 71
67 113 38z m202 -4 c56 -56 52 -235 -7 -281 -32 -26 -55 -25 -87 3 -55 48 -57
216 -3 274 26 28 71 30 97 4z m943 -63 c-4 -85 2 -118 24 -118 21 0 17 -27 -6
-33 -15 -4 -20 -14 -20 -41 0 -25 -4 -36 -15 -36 -11 0 -15 11 -15 40 l0 40
-60 0 c-41 0 -60 4 -60 13 0 6 27 58 61 115 44 75 65 102 77 100 15 -3 17 -14
14 -80z m272 52 c29 -35 41 -99 33 -172 -14 -118 -105 -157 -154 -66 -23 45
-24 171 0 215 32 60 81 70 121 23z m194 7 c66 -70 43 -274 -34 -293 -56 -14
-102 53 -103 151 -2 130 74 209 137 142z m-3678 -65 c79 -79 33 -232 -70 -232
-23 0 -50 5 -61 10 -68 37 -65 205 5 239 43 20 96 13 126 -17z m118 12 c8 -14
10 -14 21 0 19 22 71 20 96 -4 l22 -20 18 20 c25 27 78 27 104 -1 22 -24 34
-96 29 -179 -3 -48 -6 -55 -25 -58 -22 -3 -23 -1 -23 90 0 105 -11 132 -50
126 -36 -5 -50 -42 -50 -135 0 -76 -2 -83 -20 -83 -19 0 -20 7 -20 91 0 101
-10 129 -45 129 -41 0 -55 -34 -55 -132 0 -81 -2 -88 -20 -88 -19 0 -20 7 -20
130 0 107 3 130 15 130 7 0 18 -7 23 -16z m382 -114 c0 -123 -1 -130 -20 -130
-19 0 -20 7 -20 130 0 123 1 130 20 130 19 0 20 -7 20 -130z m90 108 l0 -21
23 21 c29 27 77 28 108 3 22 -18 24 -28 27 -130 4 -107 3 -111 -17 -111 -20 0
-21 6 -21 83 0 95 -14 131 -52 135 -43 5 -58 -28 -58 -130 0 -81 -2 -88 -20
-88 -19 0 -20 7 -20 93 0 50 -3 109 -6 130 -6 33 -4 37 15 37 15 0 21 -6 21
-22z m351 6 c11 -14 13 -14 21 0 5 9 16 16 24 16 13 0 15 -22 12 -155 -3 -151
-4 -155 -29 -181 -45 -44 -167 -42 -157 4 2 9 11 15 19 13 72 -21 114 -1 125
58 l7 33 -31 -16 c-46 -24 -70 -20 -109 19 -34 34 -35 37 -31 100 3 55 8 69
33 95 33 34 93 42 116 14z m275 -2 c33 -26 44 -56 44 -116 0 -48 -4 -60 -31
-91 -27 -31 -37 -35 -78 -35 -40 0 -52 5 -77 31 -26 28 -29 36 -29 100 0 67 2
72 33 100 38 34 103 40 138 11z m692 -29 c13 -24 4 -43 -19 -43 -13 0 -19 7
-19 23 0 39 23 50 38 20z m1407 -14 c0 -15 -7 -25 -17 -27 -13 -3 -18 3 -18
21 0 13 3 27 7 31 13 12 28 -1 28 -25z m-265 -64 c0 -11 -12 -15 -50 -15 -38
0 -50 4 -50 15 0 11 12 15 50 15 38 0 50 -4 50 -15z m-1137 -89 c7 -19 -17
-51 -31 -42 -20 12 -15 56 7 56 10 0 21 -6 24 -14z m1402 -16 c0 -36 -29 -33
-33 3 -3 23 0 28 15 25 12 -2 18 -12 18 -28z m924 -619 c9 -119 13 -125 94
-137 l52 -8 -55 -7 c-72 -10 -86 -28 -96 -127 l-8 -77 -7 83 c-4 50 -12 89
-20 98 -8 7 -39 17 -69 22 l-55 9 48 8 c87 14 90 20 96 196 3 85 7 129 9 99 1
-30 6 -102 11 -159z m-4379 -1 c0 -60 -4 -100 -10 -100 -6 0 -10 40 -10 100 0
60 4 100 10 100 6 0 10 -40 10 -100z m1120 0 c0 -60 -4 -100 -10 -100 -6 0
-10 40 -10 100 0 60 4 100 10 100 6 0 10 -40 10 -100z m-1325 76 c14 -10 17
-21 12 -49 -3 -20 -1 -39 4 -42 14 -10 11 -52 -7 -69 -8 -9 -31 -16 -50 -16
l-34 0 0 88 c0 49 3 92 7 95 11 12 48 8 68 -7z m1125 -3 c-1 -10 -19 -47 -40
-83 l-40 -65 45 -3 c67 -5 55 -22 -15 -22 -33 0 -60 3 -60 6 0 3 18 36 40 74
22 38 40 71 40 74 0 3 -16 6 -35 6 -24 0 -35 5 -35 15 0 11 12 15 50 15 41 0
50 -3 50 -17z m1395 -85 c-25 -76 -45 -117 -45 -93 0 22 64 199 67 188 3 -7
-8 -50 -22 -95z m205 87 c0 -8 -9 -15 -20 -15 -18 0 -20 -7 -20 -80 0 -47 -4
-80 -10 -80 -6 0 -10 33 -10 80 0 79 0 80 -25 80 -16 0 -25 6 -25 15 0 12 13
15 55 15 42 0 55 -3 55 -15z m980 -5 c24 -24 25 -39 6 -66 -8 -10 -11 -23 -6
-29 4 -5 11 -25 15 -42 8 -40 -10 -45 -20 -6 -16 65 -55 74 -55 13 0 -22 -4
-40 -10 -40 -11 0 -14 172 -3 183 13 14 54 6 73 -13z m-2916 -12 c19 -26 21
-96 4 -133 -14 -32 -51 -33 -72 -3 -35 49 -11 158 34 158 10 0 26 -10 34 -22z
m1037 -28 c5 0 9 11 9 25 0 14 5 25 11 25 7 0 9 -10 7 -25 -3 -13 0 -27 6 -30
8 -3 7 -7 -1 -11 -15 -7 -17 -44 -3 -44 6 0 10 -4 10 -10 0 -5 -7 -10 -15 -10
-9 0 -15 -9 -15 -25 0 -14 -4 -25 -9 -25 -4 0 -6 12 -3 26 6 34 -19 28 -29 -7
l-7 -24 -1 27 c-1 14 -7 29 -13 32 -9 3 -8 8 5 16 20 13 22 36 5 44 -10 5 -10
7 0 12 6 3 12 14 12 23 0 29 15 35 18 7 2 -14 8 -26 13 -26z m159 -3 c0 -29 5
-58 12 -65 9 -9 9 -12 0 -12 -7 0 -12 -11 -12 -25 0 -16 -6 -25 -15 -25 -9 0
-15 9 -15 24 0 21 -5 25 -35 28 l-34 3 35 63 c45 79 64 81 64 9z m140 43 c0
-5 -11 -10 -25 -10 -33 0 -45 -28 -19 -46 37 -25 44 -35 44 -56 0 -33 -29 -58
-67 -58 -43 0 -43 18 0 22 28 3 32 6 32 33 0 25 -4 30 -27 33 -29 3 -32 10
-22 61 6 28 10 31 45 31 22 0 39 -4 39 -10z m120 3 c0 -5 -14 -16 -30 -25 -37
-21 -38 -34 -3 -33 19 0 31 -8 42 -27 14 -25 14 -31 1 -55 -10 -18 -26 -29
-42 -31 -62 -7 -79 108 -23 155 25 22 55 31 55 16z m790 -2 c0 -6 -4 -13 -10
-16 -5 -3 -10 1 -10 9 0 9 5 16 10 16 6 0 10 -4 10 -9z m-1510 -21 c0 -11 7
-20 15 -20 8 0 15 -4 15 -10 0 -5 -7 -10 -15 -10 -11 0 -15 -12 -15 -45 0 -33
4 -45 15 -45 8 0 15 -5 15 -11 0 -6 -10 -9 -22 -7 -20 3 -23 10 -26 53 -2 27
-9 53 -15 58 -9 7 -9 10 1 14 6 2 12 13 12 24 0 10 5 19 10 19 6 0 10 -9 10
-20z m1850 0 c0 -12 7 -20 18 -20 16 -1 16 -1 0 -14 -21 -16 -25 -92 -5 -99 6
-2 9 -8 5 -12 -4 -4 -14 -5 -23 -2 -11 5 -15 20 -15 56 0 30 -5 52 -12 55 -10
5 -10 7 0 12 6 3 12 14 12 25 0 10 5 19 10 19 6 0 10 -9 10 -20z m-1930 -30
c11 -11 20 -29 20 -40 0 -17 -7 -20 -40 -20 -22 0 -40 -2 -40 -4 0 -22 17 -36
41 -36 16 0 29 -4 29 -10 0 -17 -62 -11 -76 8 -20 26 -17 79 6 102 11 11 25
20 30 20 6 0 19 -9 30 -20z m217 -10 c7 -14 13 -44 13 -66 l0 -42 -42 2 c-39
1 -43 4 -46 29 -3 22 3 31 27 45 42 23 39 39 -6 33 -7 -1 -13 2 -13 8 0 5 6
12 13 14 23 10 41 2 54 -23z m765 18 c9 -7 18 -24 20 -38 3 -22 -1 -25 -35
-28 -50 -4 -49 -35 1 -40 42 -4 42 -22 -1 -22 -44 0 -57 15 -57 66 0 33 5 47
22 58 27 19 30 19 50 4z m396 -16 c6 -9 12 -24 12 -34 0 -14 -8 -18 -40 -18
-22 0 -40 -2 -40 -4 0 -22 17 -36 41 -36 16 0 29 -4 29 -10 0 -17 -62 -11 -76
8 -20 26 -17 79 6 102 21 21 46 18 68 -8z m142 -52 c0 -74 -18 -80 -22 -7 -3
44 -6 52 -23 52 -17 0 -20 -8 -23 -53 -4 -76 -27 -64 -27 14 0 54 2 59 23 60
12 1 25 4 29 7 3 4 14 2 24 -4 15 -8 19 -21 19 -69z m330 49 c13 -23 13 -109
1 -109 -6 0 -11 24 -13 52 -2 42 -7 54 -22 56 -25 5 -36 -14 -36 -65 0 -24 -4
-43 -10 -43 -6 0 -10 29 -10 66 0 51 3 65 13 61 8 -3 20 -1 27 3 17 11 38 2
50 -21z m-3162 9 c7 -7 12 -35 12 -63 l0 -52 -40 -1 c-35 -2 -40 1 -46 25 -8
29 14 53 48 53 10 0 18 4 18 9 0 16 -27 31 -44 25 -9 -3 -16 -1 -16 5 0 15 53
14 68 -1z m202 2 c0 -5 -10 -10 -23 -10 -29 0 -47 -18 -47 -45 0 -27 18 -45
47 -45 13 0 23 -4 23 -10 0 -20 -59 -10 -74 12 -33 46 -7 108 45 108 16 0 29
-4 29 -10z m124 -11 c16 -23 13 -73 -5 -95 -14 -17 -61 -18 -77 -2 -16 16 -16
90 0 106 19 19 65 14 82 -9z m138 9 c11 -18 10 -118 -1 -118 -6 0 -11 24 -13
53 -3 44 -6 52 -23 52 -17 0 -20 -8 -23 -52 -2 -38 -7 -53 -18 -53 -11 0 -14
15 -14 63 l0 64 42 1 c24 1 45 -3 50 -10z m588 -30 c0 -51 12 -73 34 -65 12 5
16 20 16 57 0 38 4 50 15 50 12 0 15 -14 15 -63 l0 -63 -37 -1 c-21 -1 -44 3
-50 9 -15 12 -18 118 -3 118 6 0 10 -19 10 -42z m1850 -23 c0 -37 -4 -65 -10
-65 -6 0 -10 28 -10 65 0 37 4 65 10 65 6 0 10 -28 10 -65z m127 36 c16 -33 9
-41 -33 -41 -28 0 -35 -4 -32 -17 2 -12 14 -19 36 -21 17 -2 32 -7 32 -13 0
-13 -64 -11 -78 3 -16 16 -15 91 0 106 20 20 61 10 75 -17z m353 10 c20 -38
13 -51 -30 -51 -22 0 -40 -4 -40 -8 0 -15 24 -32 47 -32 13 0 23 -4 23 -10 0
-16 -52 -11 -72 7 -37 33 -11 113 37 113 14 0 29 -8 35 -19z m330 0 c20 -39
13 -51 -31 -51 -33 0 -40 -3 -35 -16 3 -9 6 -18 6 -20 0 -2 14 -4 30 -4 17 0
30 -4 30 -10 0 -16 -52 -11 -72 7 -20 18 -23 49 -8 87 12 33 64 37 80 7z m72
-33 l15 -53 13 53 c8 28 19 52 26 52 9 0 5 -22 -13 -75 -25 -77 -55 -126 -69
-113 -4 5 0 16 9 26 21 23 21 52 2 99 -17 40 -19 63 -6 63 5 0 15 -24 23 -52z
m182 5 c13 -46 14 -47 24 -23 5 14 11 34 13 44 2 11 9 21 16 23 8 3 4 -23 -12
-72 -23 -77 -50 -119 -67 -109 -5 3 0 17 12 29 l22 23 -21 57 c-23 62 -25 75
-11 75 5 0 16 -21 24 -47z m-3174 -57 c0 -14 -21 -58 -26 -54 -8 8 7 58 17 58
5 0 9 -2 9 -4z m125 -199 c-19 -46 -19 -93 0 -146 17 -48 4 -56 -16 -8 -18 44
-15 141 6 173 23 35 28 25 10 -19z m945 -52 c0 -57 -4 -95 -10 -95 -6 0 -10
38 -10 95 0 57 4 95 10 95 6 0 10 -38 10 -95z m840 0 c0 -78 -3 -95 -15 -95
-12 0 -15 17 -15 95 0 78 3 95 15 95 12 0 15 -17 15 -95z m-2805 60 c50 -49
23 -145 -45 -158 -55 -12 -60 -4 -60 94 l0 89 40 0 c30 0 47 -7 65 -25z m1155
15 c0 -5 -16 -10 -35 -10 -32 0 -35 -2 -35 -30 0 -27 3 -30 30 -30 17 0 30 -4
30 -10 0 -5 -13 -10 -30 -10 -28 0 -30 -2 -30 -40 0 -22 -4 -40 -10 -40 -6 0
-10 37 -10 90 l0 90 45 0 c25 0 45 -4 45 -10z m1030 -5 c0 -9 -6 -12 -15 -9
-47 18 -93 -35 -79 -90 8 -34 46 -60 74 -51 11 3 20 2 20 -4 0 -31 -82 -21
-105 12 -24 35 -19 104 10 132 28 29 95 36 95 10z m322 0 c0 -5 -5 -11 -11
-13 -6 -2 -11 4 -11 13 0 9 5 15 11 13 6 -2 11 -8 11 -13z m365 -11 c-9 -9
-28 6 -21 18 4 6 10 6 17 -1 6 -6 8 -13 4 -17z m453 16 c0 -5 -16 -10 -35 -10
-32 0 -35 -2 -35 -30 0 -27 3 -30 30 -30 17 0 30 -4 30 -10 0 -5 -13 -10 -30
-10 -27 0 -30 -3 -30 -30 0 -28 3 -30 35 -30 19 0 35 -4 35 -10 0 -5 -20 -10
-45 -10 l-45 0 0 90 0 90 45 0 c25 0 45 -4 45 -10z m100 -62 l40 -73 0 73 c0
41 4 72 10 72 6 0 10 -37 10 -90 0 -112 -13 -117 -63 -22 l-36 67 -1 -67 c0
-39 -4 -68 -10 -68 -6 0 -10 37 -10 90 0 51 4 90 10 90 5 0 27 -33 50 -72z
m200 62 c0 -5 -9 -10 -20 -10 -18 0 -20 -7 -20 -80 0 -64 -3 -80 -15 -80 -12
0 -15 16 -15 80 0 73 -2 80 -20 80 -11 0 -20 5 -20 10 0 6 25 10 55 10 30 0
55 -4 55 -10z m114 -6 c20 -19 21 -49 3 -66 -11 -10 -11 -16 0 -38 15 -28 17
-60 4 -60 -4 0 -12 15 -17 33 -7 22 -17 33 -32 35 -19 3 -22 -1 -22 -32 0 -20
-4 -36 -10 -36 -6 0 -10 37 -10 90 l0 90 34 0 c19 0 42 -7 50 -16z m130 -6 c3
-13 14 -53 25 -90 11 -38 15 -68 10 -68 -5 0 -14 11 -19 25 -13 34 -67 36 -72
3 -2 -12 -8 -23 -15 -25 -8 -3 -6 17 8 64 11 37 22 78 25 91 4 12 12 22 19 22
7 0 15 -10 19 -22z m180 1 c22 -17 26 -28 26 -67 -1 -56 -16 -79 -61 -92 -63
-18 -70 -10 -68 91 l1 89 38 0 c23 0 48 -8 64 -21z m153 -60 c13 -41 23 -80
23 -86 0 -23 -18 -14 -24 12 -5 19 -13 25 -35 25 -22 0 -30 -6 -35 -25 -4 -14
-11 -25 -17 -25 -6 0 -8 8 -5 18 40 138 49 163 59 159 6 -2 22 -37 34 -78z
m-2637 46 c0 -8 7 -15 15 -15 8 0 15 -4 15 -10 0 -5 -7 -10 -15 -10 -11 0 -15
-11 -15 -39 0 -22 7 -46 15 -55 19 -18 19 -26 0 -26 -8 0 -18 8 -24 18 -8 16
-15 93 -12 135 1 21 21 23 21 2z m1010 0 c0 -8 7 -15 15 -15 8 0 15 -4 15 -10
0 -5 -7 -10 -15 -10 -23 0 -21 -86 2 -99 10 -5 14 -13 10 -17 -18 -19 -42 14
-45 62 -2 27 -9 52 -15 57 -9 7 -9 10 1 14 6 2 12 11 12 19 0 8 5 14 10 14 6
0 10 -7 10 -15z m-2460 -25 c0 -4 -7 -13 -15 -20 -9 -8 -15 -30 -15 -56 0 -24
-4 -44 -10 -44 -6 0 -10 28 -10 64 0 61 1 64 25 64 14 0 25 -4 25 -8z m98 -2
c14 -17 20 -119 7 -114 -5 2 -18 -1 -28 -6 -24 -12 -47 7 -47 39 0 18 8 28 30
36 37 14 39 37 4 37 -14 0 -23 4 -19 10 9 14 41 12 53 -2z m130 0 c9 -9 12 -9
12 0 0 7 3 12 8 12 11 0 2 -163 -10 -178 -13 -15 -70 -12 -75 3 -2 6 12 10 29
10 26 0 34 5 36 21 3 18 -1 21 -24 16 -19 -3 -31 1 -41 13 -39 55 20 148 65
103z m156 -4 c25 -25 21 -90 -7 -108 -30 -20 -63 -10 -77 23 -27 67 37 133 84
85z m76 4 c0 -9 3 -9 12 0 18 18 46 14 58 -7 13 -25 13 -111 0 -111 -5 0 -10
19 -10 43 0 55 -13 76 -37 61 -12 -7 -19 -26 -21 -58 -5 -70 -22 -55 -22 19 0
37 4 65 10 65 6 0 10 -5 10 -12z m198 0 c7 -7 12 -22 12 -35 0 -20 -5 -23 -35
-23 -28 0 -35 -4 -35 -19 0 -20 32 -37 49 -26 5 3 12 1 15 -4 10 -15 -31 -23
-54 -11 -29 16 -42 54 -29 87 16 42 52 56 77 31z m112 2 c0 -5 -9 -10 -20 -10
-25 0 -26 -26 -1 -39 51 -28 24 -93 -31 -76 -24 8 -14 25 11 18 32 -8 37 18 8
39 -25 18 -36 56 -20 71 10 11 53 8 53 -3z m320 -1 c0 -8 5 -7 15 1 9 7 19 10
23 6 4 -4 -1 -12 -11 -17 -12 -7 -17 -23 -17 -59 0 -38 -4 -50 -15 -50 -12 0
-15 14 -15 65 0 37 4 65 10 65 6 0 10 -5 10 -11z m150 -8 c20 -38 13 -51 -30
-51 -43 0 -48 -6 -26 -35 9 -12 20 -16 35 -12 14 3 21 1 18 -6 -6 -21 -45 -19
-66 2 -25 25 -27 68 -5 99 19 27 60 29 74 3z m137 -11 c18 -35 17 -100 -1
-100 -11 0 -16 15 -18 53 -3 44 -6 52 -23 52 -17 0 -20 -8 -23 -52 -4 -75 -22
-66 -22 11 l0 64 37 -1 c29 -2 40 -8 50 -27z m217 8 c26 -37 20 -48 -24 -48
-27 0 -40 -4 -40 -14 0 -21 27 -39 50 -33 26 7 26 -10 0 -18 -35 -11 -70 20
-70 62 0 64 53 96 84 51z m174 13 c16 -10 23 -123 7 -117 -5 2 -18 -1 -28 -6
-24 -12 -47 7 -47 39 0 18 8 28 30 36 40 15 39 37 -2 37 -25 0 -29 3 -18 10
18 12 41 12 58 1z m400 -3 c14 -17 20 -119 7 -114 -5 2 -18 -1 -27 -5 -27 -14
-48 0 -48 33 0 24 6 32 30 41 39 15 39 37 -1 37 -17 0 -28 4 -24 10 9 14 51
12 63 -2z m152 -8 c29 -54 -4 -130 -49 -115 -18 5 -21 2 -21 -24 0 -17 -4 -31
-10 -31 -6 0 -10 38 -10 93 l0 93 40 1 c30 2 42 -3 50 -17z m70 -45 c0 -37 -4
-65 -10 -65 -6 0 -10 28 -10 65 0 37 4 65 10 65 6 0 10 -28 10 -65z m224 43
c44 -62 -11 -142 -70 -103 -18 12 -24 25 -24 52 0 66 61 98 94 51z m146 -43
c0 -47 -4 -65 -13 -65 -9 0 -13 11 -11 33 1 17 3 47 3 65 2 62 21 32 21 -33z
m122 48 c24 -22 24 -77 -2 -103 -35 -35 -76 -18 -86 35 -12 66 43 109 88 68z
m133 -110 c-3 -16 -11 -32 -17 -38 -8 -7 -9 -2 -4 15 3 14 6 31 6 38 0 6 5 12
11 12 7 0 9 -10 4 -27z m-3155 -163 c11 -11 20 -29 20 -40 0 -26 -34 -60 -60
-60 -16 0 -20 -7 -20 -35 0 -19 -4 -35 -10 -35 -11 0 -14 172 -3 183 13 14 54
6 73 -13z m165 -5 c52 -51 21 -165 -45 -165 -58 0 -89 84 -55 150 24 46 63 53
100 15z m145 5 c24 -24 24 -27 6 -62 -8 -14 -10 -30 -6 -35 12 -13 20 -73 10
-73 -5 0 -14 18 -20 40 -8 29 -16 40 -30 40 -17 0 -20 -7 -20 -40 0 -22 -4
-40 -10 -40 -11 0 -14 172 -3 183 13 14 54 6 73 -13z m220 8 c0 -6 -18 -42
-40 -79 -22 -37 -40 -70 -40 -73 0 -3 18 -6 40 -6 22 0 40 -4 40 -10 0 -5 -25
-10 -55 -10 -30 0 -55 4 -55 9 0 5 18 40 40 77 22 38 40 72 40 76 0 5 -18 8
-41 8 -24 0 -38 4 -34 10 9 15 105 13 105 -2z m60 -61 c0 -76 9 -97 42 -97 25
0 38 39 38 111 0 38 4 58 10 54 13 -8 13 -106 -1 -142 -12 -32 -26 -43 -56
-43 -37 0 -53 36 -53 117 0 42 4 73 10 73 6 0 10 -31 10 -73z m160 -12 l0 -85
35 0 c19 0 35 -4 35 -10 0 -5 -20 -10 -45 -10 l-45 0 0 95 c0 57 4 95 10 95 6
0 10 -35 10 -85z m190 75 c0 -5 -16 -10 -35 -10 -32 0 -35 -2 -35 -30 0 -27 3
-30 30 -30 20 0 30 -5 30 -15 0 -10 -10 -15 -30 -15 -27 0 -30 -3 -30 -30 0
-28 3 -30 35 -30 19 0 35 -4 35 -10 0 -5 -20 -10 -45 -10 l-45 0 0 95 0 95 45
0 c25 0 45 -4 45 -10z m140 1 c0 -5 -10 -11 -22 -13 -21 -3 -23 -9 -26 -85 -4
-110 -22 -107 -22 2 0 78 -2 85 -20 85 -11 0 -20 5 -20 10 0 6 25 10 55 10 30
0 55 -4 55 -9z m98 -58 c32 -104 35 -123 24 -123 -5 0 -15 14 -21 30 -7 22
-16 30 -35 30 -18 0 -27 -8 -35 -30 -5 -16 -14 -30 -20 -30 -5 0 0 33 11 73
40 142 47 147 76 50z m88 32 c18 -44 18 -106 -1 -152 -19 -44 -30 -39 -14 6
11 32 8 129 -6 164 -4 9 -4 17 -1 17 4 0 14 -16 22 -35z m3334 -823 c0 -78 0
-78 -40 -117 l-40 -39 0 42 c0 23 -3 42 -7 42 -4 0 -24 -17 -45 -37 l-38 -37
-30 29 -30 29 42 43 42 43 -49 0 -49 0 39 40 39 40 83 0 83 0 0 -78z m-1826
-226 c67 -20 110 -58 142 -123 55 -112 30 -280 -53 -353 -18 -17 -39 -30 -46
-30 -25 -1 19 -18 76 -30 31 -6 57 -13 57 -14 0 -2 -5 -17 -11 -34 -13 -36 -8
-37 -149 8 -47 15 -111 32 -142 39 -75 16 -131 58 -165 123 -23 45 -27 66 -28
138 0 98 19 156 68 208 69 73 157 96 251 68z m-2702 -173 c15 -32 66 -50 143
-53 49 -2 48 -3 -29 -16 -115 -19 -117 -23 -127 -186 -4 -73 -9 -281 -10 -463
l-2 -330 -7 405 c-8 452 -13 521 -40 545 -10 9 -51 21 -92 28 l-73 11 60 7
c119 14 131 27 142 158 l7 76 8 -78 c4 -42 13 -90 20 -104z m668 154 c104 -55
109 -208 8 -274 -30 -20 -55 -27 -113 -31 l-75 -5 0 -103 0 -104 -40 0 -40 0
0 264 c0 305 -15 273 126 275 77 1 98 -3 134 -22z m280 -212 l0 -235 115 0
115 0 0 -35 0 -35 -155 0 -155 0 0 270 0 270 40 0 40 0 0 -235z m656 -35 l92
-270 -44 0 -43 0 -28 85 -27 86 -90 -3 -89 -3 -27 -80 -27 -80 -43 -3 c-33 -3
-41 0 -37 11 3 8 45 129 94 270 l88 257 45 0 45 0 91 -270z m229 151 c33 -66
62 -120 65 -120 3 0 32 52 65 115 33 64 65 118 71 121 7 2 28 3 48 1 l36 -3
-90 -152 -90 -152 0 -116 0 -115 -40 0 -40 0 0 112 0 112 -69 125 c-38 69 -76
141 -85 159 l-17 32 43 0 43 0 60 -119z m1235 -58 c0 -200 8 -241 51 -277 36
-31 101 -35 138 -10 44 31 51 69 51 274 l0 190 41 0 40 0 -3 -207 c-3 -197 -4
-210 -27 -249 -41 -72 -140 -109 -227 -85 -54 14 -90 43 -116 94 -20 38 -23
60 -26 245 l-4 202 41 0 41 0 0 -177z m550 -93 l0 -270 -40 0 -40 0 0 270 0
270 40 0 40 0 0 -270z m507 245 c2 -12 -55 -105 -142 -230 l-144 -210 145 -3
144 -3 0 -34 0 -35 -200 0 -200 0 0 23 c1 12 66 117 145 232 l144 210 -130 3
-129 3 0 35 0 34 183 -2 c174 -3 182 -4 184 -23z m408 -35 l39 -40 -49 0 -49
0 42 -43 42 -43 -30 -29 -30 -29 -45 44 -45 44 0 -49 0 -49 -40 39 c-40 39
-40 39 -40 117 l0 78 83 0 83 0 39 -40z m-5 -353 l0 -83 -40 -39 -40 -39 0 49
0 49 -43 -42 -43 -42 -32 32 -32 32 42 43 42 43 -49 0 -49 0 39 40 39 40 83 0
83 0 0 -83z m5 -277 l39 -40 -49 0 -49 0 42 -43 42 -43 -32 -32 -32 -32 -43
42 -43 42 0 -49 0 -49 -40 39 -40 39 0 83 0 83 83 0 83 0 39 -40z m-4100 -367
c26 -65 82 -243 77 -247 -18 -19 -42 -3 -53 34 -12 39 -14 40 -55 40 -42 0
-44 -1 -55 -40 -10 -33 -17 -40 -33 -38 -25 4 -26 3 26 151 36 103 43 117 63
117 13 0 26 -8 30 -17z m280 3 c47 -20 68 -65 63 -133 -7 -86 -66 -129 -168
-121 l-45 3 -3 119 c-1 66 0 126 2 133 7 18 107 17 151 -1z m163 -118 c-3
-129 -4 -133 -25 -136 -23 -3 -23 -3 -23 132 l0 136 25 0 26 0 -3 -132z m103
60 c40 -136 37 -135 73 -28 27 78 37 96 54 98 31 5 28 -13 -22 -148 -38 -101
-45 -115 -66 -115 -25 0 -31 14 -85 188 l-23 77 23 0 c21 0 27 -9 46 -72z
m237 -60 c-3 -129 -4 -133 -25 -136 -23 -3 -23 -3 -23 132 l0 136 25 0 26 0
-3 -132z m165 40 l57 -92 0 92 c0 85 1 92 20 92 19 0 20 -7 20 -135 0 -127 -1
-135 -19 -135 -14 0 -38 29 -80 97 l-61 97 0 -97 c0 -90 -1 -97 -20 -97 -19 0
-20 7 -20 135 0 134 0 135 23 135 18 0 35 -20 80 -92z m324 -33 c49 -141 50
-147 21 -143 -14 2 -25 15 -33 38 -11 33 -15 35 -55 35 -40 0 -44 -2 -55 -35
-8 -23 -19 -36 -33 -38 -12 -2 -22 1 -22 5 0 12 77 239 85 253 4 6 16 10 28 8
18 -2 29 -24 64 -123z m341 103 c3 -15 -5 -18 -52 -18 l-56 0 0 -35 0 -35 50
0 c43 0 50 -3 50 -20 0 -17 -7 -20 -50 -20 l-50 0 0 -40 0 -40 55 0 c48 0 55
-2 55 -20 0 -18 -7 -20 -75 -20 l-75 0 0 135 0 136 72 -3 c60 -2 73 -6 76 -20z
m92 -93 l0 -115 55 0 c48 0 55 -2 55 -20 0 -18 -7 -20 -75 -20 l-75 0 0 135
c0 128 1 135 20 135 19 0 20 -7 20 -115z m394 94 c20 -16 26 -29 26 -58 0 -46
-29 -76 -82 -86 -38 -7 -38 -8 -38 -56 0 -42 -3 -49 -20 -49 -19 0 -20 7 -20
135 l0 135 54 0 c39 0 60 -6 80 -21z m234 -1 c3 -15 -5 -18 -52 -18 l-56 0 0
-35 0 -35 50 0 c43 0 50 -3 50 -20 0 -17 -7 -20 -50 -20 l-50 0 0 -40 0 -40
55 0 c48 0 55 -2 55 -20 0 -18 -7 -20 -75 -20 l-75 0 0 135 0 136 72 -3 c60
-2 73 -6 76 -20z m199 -4 c20 -20 24 -31 19 -57 -3 -18 -12 -37 -20 -42 -12
-9 -12 -15 0 -37 7 -14 16 -44 20 -67 6 -36 4 -41 -13 -41 -16 0 -23 12 -34
53 -12 45 -18 52 -41 55 -26 3 -27 1 -30 -50 -3 -46 -6 -53 -25 -56 -23 -3
-23 -2 -23 126 0 71 3 132 7 135 3 4 31 7 60 7 45 0 58 -4 80 -26z m208 2 c0
-16 -8 -20 -45 -20 -38 -1 -45 -4 -48 -23 -3 -17 8 -27 50 -50 50 -26 53 -31
56 -69 3 -35 -1 -45 -24 -63 -45 -35 -153 -19 -129 19 4 6 22 8 46 4 43 -7 69
7 69 37 0 11 -19 28 -52 46 -48 25 -53 32 -56 65 -4 52 27 80 88 76 37 -2 45
-7 45 -22z m262 -11 c35 -35 35 -36 31 -105 -3 -60 -8 -74 -31 -98 -23 -23
-36 -27 -81 -27 -44 0 -59 5 -80 24 -51 48 -58 141 -14 197 25 31 51 43 102
43 31 1 45 -6 73 -34z m193 -59 l55 -89 3 92 c2 83 5 91 22 91 19 0 20 -8 20
-135 0 -125 -1 -135 -19 -135 -23 0 -27 5 -90 109 l-51 84 0 -97 c0 -87 -2
-97 -17 -94 -16 3 -18 19 -21 136 -3 133 -3 133 20 130 16 -2 38 -29 78 -92z
m288 67 c40 -105 80 -232 75 -237 -16 -16 -36 -2 -50 34 -15 38 -18 40 -58 40
-40 0 -42 -2 -54 -40 -9 -29 -17 -40 -31 -40 -11 0 -20 6 -20 12 0 7 19 68 43
135 36 105 45 123 63 123 14 0 25 -9 32 -27z m222 -88 c0 -132 -11 -155 -74
-155 -57 0 -57 35 -1 42 l30 3 3 113 c2 104 4 112 22 112 19 0 20 -7 20 -115z
m220 95 c0 -18 -7 -20 -55 -20 l-55 0 0 -35 0 -35 50 0 c43 0 50 -3 50 -20 0
-17 -7 -20 -50 -20 l-50 0 0 -40 0 -40 55 0 c48 0 55 -2 55 -20 0 -18 -7 -20
-75 -20 l-75 0 0 135 0 135 75 0 c68 0 75 -2 75 -20z m-3412 -707 c3 -22 0
-23 -67 -23 l-71 0 0 -50 0 -50 65 0 c63 0 65 -1 65 -25 0 -24 -2 -25 -65 -25
l-65 0 0 -55 0 -55 75 0 c73 0 75 -1 75 -25 l0 -25 -100 0 -100 0 0 180 0 181
93 -3 c87 -3 92 -4 95 -25z m124 10 c8 -10 26 -37 38 -61 13 -23 27 -41 32
-40 4 2 22 28 40 58 26 42 39 56 61 58 15 2 27 -1 27 -7 0 -6 -20 -44 -45 -84
-25 -41 -45 -79 -45 -84 0 -5 22 -46 49 -91 27 -44 47 -83 43 -86 -3 -3 -16
-6 -29 -6 -17 0 -31 12 -51 46 -55 94 -53 94 -92 22 -34 -60 -55 -76 -85 -64
-11 4 -3 25 35 88 28 46 50 87 50 92 0 5 -20 42 -45 83 -25 40 -45 78 -45 83
0 17 46 11 62 -7z m422 3 c43 -18 66 -51 66 -96 0 -63 -53 -110 -124 -110
l-35 0 -3 -67 c-3 -66 -4 -68 -30 -71 l-28 -3 0 175 c0 173 0 175 23 179 47 9
99 6 131 -7z m374 -13 c46 -34 67 -81 67 -148 -1 -113 -54 -176 -154 -183 -46
-3 -62 0 -90 20 -48 32 -74 88 -74 157 0 80 38 143 103 170 37 16 117 7 148
-16z m201 -113 l45 -135 46 135 c43 126 47 135 73 138 15 2 27 -1 27 -7 0 -5
-28 -86 -61 -180 -60 -167 -62 -171 -90 -171 -27 0 -29 3 -83 172 -30 94 -52
176 -49 180 2 5 15 8 26 6 19 -3 29 -24 66 -138z m439 113 c3 -22 0 -23 -67
-23 l-71 0 0 -50 0 -50 65 0 c63 0 65 -1 65 -25 0 -24 -2 -25 -65 -25 l-65 0
0 -55 0 -55 70 0 c68 0 70 -1 70 -25 l0 -25 -100 0 -100 0 0 173 c0 96 3 177
7 181 4 4 48 5 98 4 85 -3 90 -4 93 -25z m208 -98 l79 -125 5 123 c5 114 6
122 25 122 19 0 20 -8 23 -176 l2 -176 -28 5 c-24 3 -40 23 -108 132 l-80 128
4 -125 c5 -131 0 -150 -37 -138 -20 6 -21 12 -21 174 0 92 3 171 7 174 3 4 16
7 28 7 18 0 39 -26 101 -125z m452 98 c3 -22 0 -23 -52 -23 l-56 0 0 -150 c0
-84 -4 -150 -9 -150 -5 0 -16 -3 -25 -6 -14 -5 -16 12 -16 150 l0 156 -50 0
c-47 0 -50 2 -50 25 l0 26 128 -3 c123 -3 127 -4 130 -25z m162 23 c0 -2 27
-81 60 -175 l59 -171 -28 0 c-26 0 -31 6 -47 50 l-18 50 -57 0 -57 0 -17 -49
c-15 -47 -47 -73 -61 -50 -6 10 92 316 109 337 8 11 57 18 57 8z m344 -5 c18
-7 23 -15 19 -30 -4 -17 -11 -19 -57 -14 -58 6 -80 -8 -74 -49 2 -17 18 -30
57 -49 67 -32 91 -60 91 -109 0 -71 -73 -113 -163 -94 -36 8 -42 13 -42 34 0
17 5 24 15 21 49 -14 102 -12 121 4 39 36 23 62 -65 106 -57 28 -79 60 -71
103 12 69 93 105 169 77z m-500 -786 l179 -310 216 0 c169 0 233 -4 296 -18
102 -22 177 -59 215 -105 38 -46 41 -113 8 -181 -29 -60 -162 -191 -275 -270
l-91 -64 30 -51 30 -51 -30 -54 -30 -54 87 -57 c114 -77 223 -181 266 -254 28
-48 35 -70 35 -113 0 -46 -4 -58 -35 -92 -47 -51 -130 -87 -250 -107 -126 -20
-492 -13 -692 14 l-133 18 0 -66 c0 -38 -5 -71 -12 -78 -13 -13 -154 -17 -162
-4 -2 4 -6 46 -8 94 l-3 87 -50 12 c-27 6 -62 13 -77 15 l-28 5 0 -110 0 -111
-27 0 c-27 0 -30 6 -68 123 l-40 122 -3 -122 -3 -123 -24 0 -25 0 0 134 0 134
-25 4 -24 5 -3 -136 -3 -136 -78 -3 c-50 -2 -84 1 -93 9 -19 16 -21 305 -1
313 6 3 -5 4 -25 3 -33 -1 -38 -4 -38 -24 0 -18 -6 -23 -25 -23 -16 0 -25 6
-25 15 0 18 1 18 -39 4 l-31 -11 0 -119 0 -119 35 0 c35 0 35 0 35 45 0 42 2
45 25 45 26 0 26 -1 23 -67 l-3 -68 -85 0 -85 0 -3 136 -3 136 -65 -15 -65
-16 3 -95 3 -96 43 -3 c37 -3 42 -6 42 -28 0 -23 -2 -24 -70 -24 l-70 0 0 116
c0 116 0 116 -22 110 -13 -3 -30 -6 -39 -6 -13 0 -14 -9 -3 -82 7 -46 15 -95
19 -110 7 -26 5 -28 -23 -28 -28 0 -31 3 -34 38 -3 33 -6 37 -32 40 -33 4 -46
-10 -46 -50 0 -25 -4 -28 -31 -28 -27 0 -30 3 -26 23 9 36 28 159 25 162 -2 1
-18 0 -35 -2 l-33 -5 0 -89 0 -89 -90 0 -90 0 0 73 0 72 -140 -15 c-77 -8
-140 -17 -140 -20 0 -3 79 -140 174 -305 l175 -300 775 -3 775 -2 19 27 c10
16 90 153 178 306 87 152 163 277 167 277 5 0 0 -15 -10 -32 -10 -18 -91 -158
-178 -310 l-160 -278 -787 0 -788 0 -47 82 c-27 45 -107 184 -179 308 l-131
225 -219 6 c-120 3 -235 9 -254 14 -236 51 -317 147 -245 292 26 52 108 143
185 205 50 40 160 111 160 104 0 -3 -37 -33 -82 -68 -176 -132 -268 -249 -268
-339 0 -36 6 -48 43 -84 76 -77 225 -108 497 -103 l166 3 -207 360 -207 359
25 46 c15 25 30 49 34 54 4 5 -31 36 -79 70 -275 195 -362 378 -228 481 84 64
221 90 478 90 l197 0 78 135 c42 74 105 182 139 240 34 58 80 138 103 178 l42
72 787 -2 787 -3 179 -310z m867 258 c13 -16 12 -17 -3 -4 -10 7 -18 15 -18
17 0 8 8 3 21 -13z m74 -53 c8 0 16 -4 19 -9 4 -5 -3 -7 -13 -4 -15 4 -20 -1
-24 -24 -2 -15 -4 4 -4 42 0 39 2 53 4 33 3 -24 9 -38 18 -38z m188 -2 c9 -6
9 -8 0 -8 -6 0 -14 -12 -16 -27 -2 -16 -4 4 -4 42 0 39 2 54 4 35 3 -19 10
-38 16 -42z m277 46 c0 -8 -5 -12 -10 -9 -6 4 -8 11 -5 16 9 14 15 11 15 -7z
m89 -39 c16 -20 16 -20 -6 -1 -13 11 -23 26 -22 35 0 14 1 14 6 1 3 -8 13 -24
22 -35z m-962 13 c-3 -8 -6 -5 -6 6 -1 11 2 17 5 13 3 -3 4 -12 1 -19z m103
-43 c0 -4 -9 4 -20 18 -11 14 -20 28 -20 32 0 4 9 -4 20 -18 11 -14 20 -28 20
-32z m120 0 c0 -4 -9 4 -20 18 -11 14 -20 28 -20 32 0 4 9 -4 20 -18 11 -14
20 -28 20 -32z m127 18 c-3 -10 -5 -4 -5 12 0 17 2 24 5 18 2 -7 2 -21 0 -30z
m-100 5 c-3 -8 -6 -5 -6 6 -1 11 2 17 5 13 3 -3 4 -12 1 -19z m552 -22 c-2 -2
-13 8 -23 22 l-19 27 24 -22 c12 -12 21 -24 18 -27z m-939 -11 c0 -5 -5 -3
-10 5 -5 8 -10 20 -10 25 0 6 5 3 10 -5 5 -8 10 -19 10 -25z m1039 -20 c0 -5
-4 -3 -9 5 -5 8 -9 22 -9 30 0 16 17 -16 18 -35z m-982 3 c-3 -7 -5 -2 -5 12
0 14 2 19 5 13 2 -7 2 -19 0 -25z m100 0 c-3 -8 -6 -5 -6 6 -1 11 2 17 5 13 3
-3 4 -12 1 -19z m-2290 -2279 c7 -35 12 -73 12 -84 1 -19 -1 -18 -18 4 -19 25
-41 22 -41 -7 0 -11 -3 -13 -10 -6 -10 10 -7 34 16 142 8 41 29 17 41 -49z
m187 46 c4 -14 2 -34 -4 -45 -7 -14 -8 -32 -1 -55 5 -19 6 -37 1 -40 -10 -6
-15 1 -24 38 -9 38 -26 34 -26 -8 0 -19 -4 -35 -10 -35 -6 0 -10 35 -10 85 l0
85 34 0 c28 0 35 -4 40 -25z m176 15 c0 -5 -7 -10 -15 -10 -12 0 -15 -15 -15
-76 0 -47 -4 -73 -10 -69 -5 3 -10 37 -10 76 0 39 -4 69 -10 69 -5 0 -10 5
-10 10 0 6 16 10 35 10 19 0 35 -4 35 -10z m170 0 c0 -5 -11 -10 -25 -10 -32
0 -36 -39 -5 -47 25 -7 26 -19 2 -25 -27 -8 -22 -52 6 -56 35 -5 25 -24 -10
-20 l-33 3 -1 65 c-1 90 3 100 37 100 16 0 29 -4 29 -10z m170 -5 c6 -8 9 -19
5 -25 -5 -7 -11 -5 -20 7 -10 13 -17 15 -24 7 -8 -7 -3 -22 19 -50 35 -46 36
-55 11 -78 -15 -14 -24 -15 -40 -6 -12 6 -21 17 -21 25 0 20 19 19 26 0 8 -19
20 -19 27 -1 3 8 -7 30 -23 48 -31 34 -34 45 -24 72 8 20 48 21 64 1z m178
-28 c3 -32 0 -38 -22 -47 -20 -7 -26 -17 -26 -39 0 -16 -4 -33 -10 -36 -6 -4
-10 25 -10 80 l0 86 33 -3 c29 -3 32 -6 35 -41z m160 -38 c7 -45 10 -84 7 -87
-3 -3 -8 4 -12 16 -6 25 -28 29 -37 7 -9 -24 -27 -18 -22 8 18 93 31 137 40
137 7 0 17 -36 24 -81z m179 66 c3 -9 2 -19 -2 -23 -4 -4 -10 -1 -12 6 -3 6
-11 12 -19 12 -11 0 -14 -16 -14 -65 0 -64 10 -81 29 -48 11 21 26 11 17 -12
-9 -24 -36 -30 -53 -12 -12 12 -16 32 -14 78 1 35 4 66 7 71 9 14 54 9 61 -7z
m133 -64 c0 -44 -4 -83 -10 -86 -6 -4 -10 25 -10 79 0 51 4 86 10 86 6 0 10
-33 10 -79z m178 3 c3 -77 -10 -101 -47 -89 -24 7 -36 66 -26 126 7 38 9 40
38 37 l32 -3 3 -71z m-2974 -741 c7 -23 51 -43 100 -44 26 0 28 -2 11 -9 -11
-5 -32 -9 -46 -9 -15 -1 -37 -9 -49 -19 -20 -16 -23 -31 -30 -128 -6 -96 -7
-101 -9 -39 -2 82 -14 152 -29 167 -5 5 -34 16 -63 23 -44 10 -48 13 -23 14
45 1 91 20 99 39 4 9 10 114 13 232 l7 215 6 -210 c3 -115 9 -220 13 -232z
m695 266 c26 -9 30 -15 25 -33 -10 -33 -16 -35 -72 -24 -153 31 -265 -63 -266
-222 0 -160 128 -253 287 -209 44 12 42 13 51 -23 6 -25 3 -27 -45 -37 -151
-33 -273 10 -336 116 -21 36 -27 62 -31 124 -9 159 50 256 187 305 45 16 157
18 200 3z m405 0 c52 -15 119 -79 146 -141 19 -45 22 -65 18 -147 -4 -102 -18
-142 -67 -194 -58 -63 -169 -92 -259 -68 -52 14 -116 70 -144 125 -26 49 -36
180 -19 243 39 144 178 223 325 182z m1382 -12 c49 -26 76 -62 81 -111 7 -58
-10 -99 -56 -136 -35 -30 -35 -30 -15 -45 26 -17 38 -45 68 -157 l23 -88 -38
0 c-37 0 -39 1 -54 52 -8 28 -15 59 -15 67 0 9 -9 35 -19 58 -16 34 -27 44
-58 52 -21 6 -53 11 -70 11 l-33 0 0 -120 0 -120 -35 0 -35 0 0 274 0 275 33
4 c61 9 193 0 223 -16z m-1032 -204 c37 -120 70 -225 72 -233 3 -8 40 90 82
218 l76 232 38 0 c21 0 38 -4 38 -8 0 -7 -82 -238 -182 -514 -9 -25 -15 -28
-51 -28 l-42 1 -84 257 c-46 141 -86 265 -89 275 -4 14 2 17 35 17 l40 0 67
-217z m676 187 l0 -30 -115 0 -115 0 0 -85 0 -85 105 0 105 0 0 -35 0 -35
-105 0 -105 0 0 -95 0 -95 120 0 120 0 0 -30 0 -30 -160 0 -160 0 0 275 0 275
155 0 155 0 0 -30z m1278 6 c54 -28 75 -62 80 -126 6 -83 -26 -145 -132 -254
l-82 -86 118 0 118 0 0 -30 0 -30 -175 0 c-161 0 -175 1 -175 18 0 9 39 56 86
102 107 106 150 164 165 222 29 109 -59 170 -168 117 -24 -12 -46 -20 -48 -18
-2 2 -6 16 -10 30 -6 23 -2 28 37 47 51 25 146 29 186 8z m440 -6 c50 -31 83
-112 90 -219 8 -148 -22 -238 -98 -289 -29 -20 -45 -23 -90 -20 -71 5 -102 27
-137 98 -23 45 -28 71 -31 152 -6 142 28 234 102 279 42 26 121 25 164 -1z
m422 -2 c19 -13 45 -45 59 -73 24 -46 26 -60 26 -180 0 -108 -3 -136 -19 -165
-40 -75 -89 -110 -156 -110 -83 0 -139 54 -166 161 -36 141 2 308 84 364 49
33 125 35 172 3z m-1355 -162 c12 -18 13 -30 5 -50 -8 -23 -15 -27 -42 -24
-23 2 -37 11 -47 30 -14 24 -14 28 3 47 25 28 62 27 81 -3z m1677 -252 c9 -9
37 -19 63 -22 49 -5 44 -22 -6 -22 -50 0 -70 -28 -78 -110 l-7 -75 -8 60 c-13
105 -15 108 -82 125 l-59 14 49 7 c27 4 56 15 64 23 14 13 23 86 33 246 1 19
5 -25 9 -98 5 -101 10 -136 22 -148z m-1684 -26 c7 -7 12 -24 12 -38 0 -48
-45 -67 -82 -33 -22 20 -23 41 -1 65 18 21 53 24 71 6z m1502 -281 c0 -5 -4
-5 -10 -2 -5 3 -10 14 -10 23 0 15 2 15 10 2 5 -8 10 -19 10 -23z m59 -39 c-6
-13 -8 -20 -5 -16 4 3 22 1 39 -5 32 -11 32 -11 7 -17 l-25 -6 31 -17 c17 -9
34 -14 37 -11 3 3 4 -2 3 -13 -2 -10 12 -37 30 -60 34 -42 48 -78 18 -49 -17
18 -28 21 -19 6 3 -5 -1 -10 -10 -10 -11 0 -15 -5 -12 -14 3 -8 0 -17 -8 -20
-10 -3 -13 4 -12 30 1 23 6 33 15 29 18 -7 -3 31 -26 45 -16 11 -16 11 1 6 30
-9 8 14 -27 30 -23 10 -26 13 -11 14 17 0 17 2 5 10 -8 5 -25 10 -37 10 -13 0
-23 4 -23 9 0 5 10 12 23 14 20 4 20 4 -3 6 -14 0 -35 -6 -46 -14 -12 -8 -23
-13 -25 -12 -2 1 1 -3 8 -9 10 -8 9 -16 -3 -33 -15 -21 -15 -23 5 -28 49 -13
33 -67 -31 -103 -46 -26 -58 -42 -26 -37 12 2 17 2 11 0 -7 -3 -13 -11 -13
-18 0 -11 8 -13 30 -9 25 5 31 2 41 -19 6 -14 25 -31 42 -38 17 -7 26 -14 21
-16 -6 -2 -9 -17 -8 -34 2 -30 -15 -37 -24 -9 -3 7 0 10 6 6 7 -4 7 2 -1 16
-24 47 -59 88 -73 88 -18 0 -54 -82 -47 -108 2 -11 -3 -34 -12 -52 -23 -45
-10 -50 16 -6 12 20 24 35 26 32 9 -9 -21 -76 -34 -76 -18 0 -35 -37 -28 -60
5 -16 2 -20 -14 -20 -13 0 -21 7 -22 18 -1 16 -2 16 -6 -1 -2 -9 -11 -17 -20
-17 -9 0 -13 -6 -10 -15 4 -8 2 -17 -3 -20 -15 -9 -12 22 8 77 l17 50 -32 29
c-48 42 -82 48 -105 18 -10 -13 -23 -30 -30 -38 -9 -11 -8 -17 10 -29 12 -8
22 -22 22 -32 0 -20 -27 -46 -37 -36 -3 3 -1 6 5 6 22 0 12 27 -13 38 -33 15
-32 31 6 67 32 30 26 45 -9 26 -15 -8 -21 -7 -25 3 -4 10 9 15 52 20 61 7 102
-3 135 -32 18 -17 76 -24 76 -9 0 4 -15 16 -32 28 -31 19 -31 20 -8 17 14 -2
29 -7 33 -13 5 -5 7 5 4 23 -2 23 1 37 13 45 19 13 39 64 22 53 -6 -3 -12 1
-14 10 -3 14 -7 13 -30 -5 -34 -27 -38 -26 -38 5 0 14 -4 23 -9 20 -5 -3 -14
1 -20 8 -8 10 -9 16 -1 21 18 11 12 38 -8 33 -12 -3 -24 2 -31 15 -11 16 -15
17 -22 6 -7 -11 -9 -11 -9 2 0 10 11 20 25 23 25 6 34 29 15 41 -21 13 -9 26
18 20 25 -5 30 -2 45 30 20 42 21 49 5 39 -7 -4 -8 -3 -4 5 4 6 12 9 17 6 5
-4 12 1 15 10 4 10 14 15 25 12 12 -3 26 3 37 16 10 12 24 23 32 25 8 2 -7
-18 -34 -43 -27 -25 -51 -43 -55 -40 -3 4 -15 -13 -26 -37 -13 -28 -27 -43
-38 -42 -26 2 -21 -31 7 -45 29 -16 61 -11 61 9 0 9 16 18 45 24 25 5 39 11
32 13 -10 4 -10 10 3 29 14 22 14 23 -2 17 -15 -6 -16 -4 -6 9 7 8 10 18 7 21
-4 4 6 11 22 17 32 12 74 48 74 63 0 5 -15 -1 -32 -15 -18 -13 -46 -30 -63
-37 l-30 -13 24 25 c13 14 29 23 37 20 8 -3 17 2 20 11 3 9 12 16 20 16 8 0
14 6 14 13 0 6 5 4 11 -5 7 -12 6 -25 -2 -40z m-4333 7 c5 -13 8 -13 27 0 12
8 26 15 32 15 5 0 2 -5 -7 -11 -10 -5 -18 -17 -18 -25 0 -14 -36 -51 -45 -46
-3 1 -5 3 -4 5 0 1 -4 15 -10 30 -11 29 -7 47 10 47 5 0 12 -7 15 -15z m1006
8 c-6 -2 -10 -8 -8 -12 3 -4 1 -13 -5 -21 -7 -12 -9 -11 -9 5 0 14 -7 21 -22
22 -22 2 -22 1 -4 -13 18 -13 19 -14 2 -14 -15 0 -17 -6 -14 -35 2 -19 0 -35
-4 -35 -4 0 -8 -4 -8 -10 0 -31 32 8 35 42 0 3 4 10 9 15 5 5 6 2 2 -7 -4 -8
-1 -7 6 3 37 53 40 54 33 12 -4 -22 -11 -43 -17 -46 -6 -4 -8 -11 -4 -17 4 -8
16 -8 37 0 22 8 27 13 18 19 -10 6 -7 8 8 6 21 -1 21 -2 6 -19 -15 -17 -13
-18 36 -18 39 0 50 3 45 13 -4 6 -4 9 1 5 5 -5 15 1 22 12 8 11 18 18 22 16 4
-3 8 1 8 9 0 10 -4 12 -13 5 -14 -12 -67 8 -58 21 3 5 14 5 24 -1 24 -13 33
-13 24 1 -13 21 52 -20 89 -56 40 -41 44 -50 23 -58 -7 -3 -28 10 -47 29 -36
37 -55 44 -45 17 5 -15 3 -14 -10 2 -16 19 -16 19 -9 -10 3 -16 15 -35 26 -43
10 -7 24 -23 30 -35 12 -21 11 -22 -8 -4 -17 15 -22 15 -32 3 -6 -8 -10 -20
-9 -27 4 -19 -58 -24 -80 -7 -11 9 -14 10 -8 1 10 -17 -46 -17 -63 0 -10 10
-11 8 -5 -6 5 -15 3 -17 -17 -12 -27 7 -59 9 -74 5 -5 -1 -30 -2 -54 -1 l-44
1 27 21 c14 11 23 25 20 31 -4 6 2 8 16 3 17 -6 21 -4 14 6 -6 12 -5 12 8 1
12 -9 46 -13 115 -11 54 1 100 -2 101 -7 7 -17 25 -34 36 -34 6 0 4 4 -3 9
-12 8 -11 13 9 29 l24 19 -21 13 c-13 8 -19 20 -16 29 4 10 -2 7 -16 -7 -21
-21 -30 -23 -127 -21 -62 1 -104 5 -104 11 0 6 -7 4 -17 -3 -15 -13 -15 -12
-5 8 17 31 15 35 -10 28 -22 -6 -22 -5 -3 7 11 7 25 13 30 13 18 0 18 72 1 78
-9 4 -16 2 -16 -3 0 -6 6 -10 13 -11 6 0 1 -5 -12 -10 -16 -6 -28 -6 -34 0 -5
5 -17 7 -26 5 -9 -3 1 4 22 16 22 12 45 19 53 16 7 -3 16 -1 19 4 4 6 23 10
43 9 20 0 31 -3 24 -6z m136 -18 c21 -12 22 -14 5 -10 -12 3 -24 1 -28 -5 -3
-5 -12 -10 -18 -10 -7 0 -3 7 7 15 15 11 16 15 5 15 -8 0 -21 -6 -28 -12 -11
-11 -13 -10 -9 2 4 11 -1 16 -13 17 -10 1 -19 -3 -19 -8 0 -6 5 -7 10 -4 15 9
12 -4 -4 -20 -12 -12 -14 -10 -18 17 l-5 30 44 -6 c24 -3 56 -13 71 -21z
m-1190 3 c7 -7 12 -21 12 -31 0 -16 -3 -17 -15 -7 -8 7 -15 8 -15 4 0 -5 -25
-10 -56 -12 -68 -4 -72 18 -6 32 23 5 42 13 42 17 0 13 24 11 38 -3z m2257
-102 c6 2 43 10 84 18 l73 13 -60 -59 -59 -60 58 -104 58 -104 -42 25 c-23 15
-52 31 -63 37 -12 5 -37 38 -56 73 l-35 63 36 37 36 37 -75 -6 c-41 -4 -97 -9
-125 -11 l-50 -4 54 12 55 12 20 62 20 63 30 -54 c17 -29 36 -52 41 -50z
m1105 84 c51 -11 95 -20 97 -20 9 0 93 -84 93 -92 0 -6 14 -26 30 -45 17 -18
30 -39 30 -46 0 -7 15 -17 33 -22 l32 -10 0 -95 c0 -88 -2 -95 -22 -106 -40
-19 -60 -43 -73 -87 -15 -52 -70 -102 -152 -138 -33 -14 -64 -31 -70 -37 -7
-7 -44 -12 -87 -12 -59 0 -83 5 -106 20 -16 11 -41 20 -54 20 -63 0 -148 81
-176 167 -17 53 -24 62 -47 67 -28 5 -28 6 -27 83 1 105 8 127 43 133 21 4 31
14 41 42 16 48 72 118 94 118 10 0 30 9 44 20 14 11 31 20 39 20 7 0 31 9 53
19 52 25 72 25 185 1z m-2610 -82 c0 -5 -4 -6 -10 -3 -5 3 -10 2 -10 -4 0 -28
26 -18 75 28 30 28 57 51 62 51 4 0 -2 -8 -15 -18 -32 -25 -15 -36 18 -12 27
19 51 28 37 13 -4 -3 -1 -13 6 -22 11 -14 10 -14 -5 -3 -15 12 -21 11 -45 -6
-15 -11 -43 -35 -60 -54 -31 -32 -32 -35 -18 -55 15 -22 16 -22 61 23 25 24
50 44 55 44 5 0 -12 -19 -36 -41 -25 -23 -42 -46 -38 -52 3 -6 1 -7 -5 -3 -16
10 -15 -9 1 -22 6 -5 28 -13 47 -17 30 -7 32 -9 15 -16 -16 -6 -14 -8 13 -8
34 -1 41 -11 19 -29 -10 -9 -24 -3 -58 21 -25 18 -46 35 -47 40 -5 19 -18 5
-33 -33 -14 -38 -17 -40 -22 -20 -3 12 -3 19 0 16 8 -7 44 65 37 76 -3 4 -10
6 -15 2 -5 -3 -8 -2 -7 3 2 4 -1 10 -7 12 -5 2 -19 -15 -30 -38 -14 -28 -25
-39 -35 -36 -12 5 -13 4 -2 -6 6 -7 12 -22 11 -34 0 -14 -5 -9 -15 17 -14 34
-14 39 6 77 19 38 40 54 40 30 0 -5 4 -8 10 -4 5 3 6 13 3 22 -4 11 -3 14 5 9
7 -4 12 -2 12 3 0 15 -13 14 -29 -1 -10 -11 -12 -10 -9 2 2 8 -2 14 -8 13 -6
-1 -18 15 -28 35 -16 37 -16 37 2 13 17 -21 20 -21 25 -6 4 9 5 29 1 43 -4 23
-3 22 11 -7 8 -18 15 -38 15 -43z m630 38 c-11 -31 7 -40 33 -17 18 15 18 15
0 -17 -10 -17 -23 -32 -29 -32 -7 0 -19 -10 -28 -22 -8 -13 -27 -36 -42 -53
-30 -34 -16 -8 35 62 21 27 28 44 19 41 -14 -6 -14 -2 -5 28 6 19 14 34 18 34
5 0 4 -11 -1 -24z m2730 1 c0 -2 -9 -12 -20 -22 -24 -21 -27 -14 -4 9 15 15
24 20 24 13z m-3941 -29 c5 -13 5 -24 0 -26 -19 -7 -8 -21 26 -32 19 -6 35
-15 35 -18 -1 -19 -29 -40 -50 -37 -14 1 -17 0 -7 -2 29 -7 19 -30 -13 -30
-22 0 -29 4 -26 14 3 7 -1 13 -9 13 -12 0 -35 28 -35 43 0 3 10 8 23 11 21 6
21 7 5 20 -10 7 -18 25 -18 40 0 22 4 26 30 26 23 0 33 -6 39 -22z m996 -6
c-3 -3 -11 0 -18 7 -9 10 -8 11 6 5 10 -3 15 -9 12 -12z m2845 -2 c0 -5 -7 -7
-15 -4 -8 4 -12 10 -9 15 6 11 24 2 24 -11z m530 -10 c0 -5 -4 -10 -9 -10 -5
0 -12 -8 -14 -17 -3 -11 -5 -7 -6 10 -1 18 4 27 14 27 8 0 15 -4 15 -10z
m-465 -10 c3 -5 -3 -10 -14 -10 -12 0 -21 -6 -21 -14 0 -9 -7 -12 -20 -9 -16
4 -18 8 -9 19 6 8 15 12 19 9 5 -3 11 -1 15 5 8 13 22 13 30 0z m-2795 -4 c0
-3 -4 -8 -10 -11 -5 -3 -10 -1 -10 4 0 6 5 11 10 11 6 0 10 -2 10 -4z m3341
-12 c9 -8 15 -23 12 -34 -5 -20 -50 -33 -56 -16 -2 6 -4 -1 -4 -16 0 -16 3
-28 8 -28 5 0 9 -4 9 -10 0 -5 -9 -10 -20 -10 -13 0 -18 5 -14 15 4 8 -2 27
-11 42 -12 18 -14 28 -7 31 7 2 12 10 12 17 0 8 10 16 23 18 12 2 24 5 26 6 3
0 12 -6 22 -15z m-3801 -24 c0 -5 -4 -10 -10 -10 -5 0 -10 5 -10 10 0 6 5 10
10 10 6 0 10 -4 10 -10z m77 3 c-4 -3 1 -12 11 -19 14 -11 15 -15 3 -26 -8 -7
-11 -8 -8 -2 4 7 0 17 -8 24 -14 11 -12 30 2 30 4 0 3 -3 0 -7z m524 -37 c6 3
5 -3 -2 -15 -10 -15 -16 -17 -22 -8 -5 7 -7 1 -4 -16 3 -18 0 -26 -7 -24 -6 2
-11 24 -11 50 0 44 0 45 18 26 10 -11 23 -17 28 -13z m-57 -2 c3 -8 2 -12 -4
-9 -6 3 -10 10 -10 16 0 14 7 11 14 -7z m2574 -4 c4 -12 3 -13 -10 -3 -8 7
-18 10 -21 6 -4 -3 -7 -1 -7 6 0 17 32 10 38 -9z m742 0 c0 -5 -9 -10 -21 -10
-11 0 -17 5 -14 10 3 6 13 10 21 10 8 0 14 -4 14 -10z m-660 -5 c0 -2 -7 -8
-15 -15 -12 -10 -15 -10 -15 2 0 8 7 15 15 15 8 0 15 -1 15 -2z m-4062 -17
c-2 -7 3 -12 10 -10 20 4 14 -36 -10 -58 -31 -29 -45 -24 -65 22 -11 24 -10
28 7 33 11 4 20 11 20 16 0 5 9 9 20 9 11 0 19 -6 18 -12z m4472 4 c0 -4 -9
-15 -20 -25 -22 -19 -29 0 -8 21 14 14 28 16 28 4z m-4605 -20 c-3 -3 -11 0
-18 7 -9 10 -8 11 6 5 10 -3 15 -9 12 -12z m952 12 c-3 -3 -12 -4 -19 -1 -8 3
-5 6 6 6 11 1 17 -2 13 -5z m682 -8 c9 -11 9 -16 -1 -22 -7 -4 -10 -4 -6 1 4
4 3 14 -3 22 -6 7 -9 13 -6 13 2 0 10 -6 16 -14z m723 -31 c15 -10 9 -20 -58
-86 l-75 -74 14 45 c8 25 22 71 32 102 l19 58 25 -17 c14 -9 34 -21 43 -28z
m-1932 20 c0 -8 -13 -21 -30 -30 -35 -18 -38 -10 -8 22 25 26 38 29 38 8z
m913 2 c3 -8 -1 -14 -8 -14 -7 0 -11 6 -8 14 3 7 6 13 8 13 2 0 5 -6 8 -13z
m157 -30 c-8 -9 -10 -7 -5 8 5 16 5 17 -3 5 -8 -10 -7 -18 1 -28 7 -9 13 -10
15 -3 2 6 11 11 20 11 12 0 13 -3 5 -11 -6 -6 -9 -19 -6 -28 3 -12 2 -13 -4
-3 -7 10 -14 8 -28 -8 -13 -14 -15 -23 -7 -33 8 -10 6 -16 -9 -25 -16 -10 -18
-16 -9 -27 6 -8 9 -24 6 -37 -3 -13 -3 -17 0 -10 9 20 24 3 24 -28 0 -36 -17
-49 -23 -18 -3 16 -5 13 -6 -11 -1 -23 13 -56 46 -112 25 -43 50 -76 54 -74 3
3 6 -3 5 -12 0 -10 4 -18 11 -18 6 0 14 -3 18 -7 17 -17 -26 1 -83 35 -35 20
-68 34 -74 31 -6 -4 -8 -2 -5 3 4 6 -5 37 -18 68 -19 43 -23 60 -15 70 8 10 8
19 0 34 -6 12 -13 21 -16 21 -2 0 0 -9 6 -21 20 -36 3 -32 -20 5 -25 41 -27
42 -53 19 -11 -10 -17 -13 -14 -7 12 21 -23 24 -35 4 -13 -21 -68 -28 -68 -9
0 5 -4 8 -9 4 -5 -3 -12 -1 -16 5 -3 5 -16 10 -28 10 -17 0 -19 2 -7 10 9 5
19 5 27 -2 9 -7 13 -7 13 0 0 6 -10 16 -21 23 -17 9 -20 8 -14 -2 6 -9 3 -11
-8 -6 -9 3 -16 3 -16 -1 3 -21 -3 -30 -18 -27 -10 2 -43 4 -73 4 l-55 1 50 35
c27 20 57 34 66 33 9 -2 24 3 33 11 9 8 16 10 15 5 -4 -21 2 -26 18 -13 15 13
16 12 11 -9 -4 -12 -2 -20 3 -16 5 3 8 2 7 -3 -1 -4 3 -18 10 -30 13 -24 46
-30 72 -13 11 8 7 9 -15 5 -27 -5 -28 -5 -7 5 13 5 27 8 32 5 9 -5 23 32 21
55 -2 13 0 13 8 1 5 -8 7 -21 4 -30 -4 -11 -1 -10 10 4 8 10 14 24 13 30 -2 5
-1 7 1 3 3 -5 20 -8 38 -8 24 0 37 7 49 25 9 14 21 23 25 21 5 -3 17 4 27 15
18 20 18 20 -23 18 -23 -2 -40 -7 -37 -11 3 -5 11 -5 17 -2 7 4 8 3 4 -1 -4
-5 -15 -10 -23 -11 -12 -2 -15 4 -12 21 3 14 0 26 -8 29 -8 3 -14 9 -14 14 0
15 51 37 81 34 19 -2 29 1 29 10 0 8 5 6 11 -5 8 -14 8 -22 -1 -30z m2760 39
c0 -3 -4 -8 -10 -11 -5 -3 -10 -1 -10 4 0 6 5 11 10 11 6 0 10 -2 10 -4z m-60
-15 c0 -6 -9 -9 -20 -8 -11 1 -20 5 -20 9 0 4 9 8 20 8 11 0 20 -4 20 -9z
m340 5 c0 -2 -7 -6 -15 -10 -8 -3 -15 -1 -15 4 0 6 7 10 15 10 8 0 15 -2 15
-4z m-3386 -33 c-10 -40 -14 -41 -14 -5 0 18 5 32 10 32 6 0 8 -11 4 -27z m61
7 c22 -24 37 -26 28 -3 -4 11 -3 14 6 9 6 -4 11 -13 10 -19 -5 -38 30 -68 55
-47 16 13 29 -10 16 -29 -6 -10 -12 -11 -30 -1 -20 11 -22 10 -17 -4 4 -10 1
-16 -8 -16 -8 0 -18 -6 -22 -14 -4 -8 -19 -16 -33 -18 -23 -3 -25 0 -23 30 2
29 0 31 -18 22 -21 -12 -39 -6 -39 12 0 5 7 8 14 5 9 -4 13 -1 10 6 -3 8 5 13
23 12 37 0 44 32 9 41 -26 6 -32 15 -19 27 10 11 19 8 38 -13z m80 11 c9 -16
-9 -20 -23 -5 -10 12 -10 14 2 14 8 0 17 -4 21 -9z m3392 -4 c4 -8 16 -16 26
-20 19 -7 24 -37 6 -37 -6 0 -9 -7 -6 -15 9 -22 -14 -31 -29 -11 -11 16 -13
16 -19 -3 -3 -12 -11 -18 -17 -15 -6 4 -14 0 -19 -7 -7 -11 -9 -11 -9 3 0 9 7
23 15 31 13 13 13 16 0 21 -20 7 -19 21 2 46 20 23 39 26 50 7z m-378 -27 c6
0 11 -11 11 -25 0 -14 -4 -25 -10 -25 -5 0 -10 4 -10 8 0 12 -44 10 -52 -2 -4
-6 -10 -3 -14 9 -5 11 -3 20 4 23 7 2 12 10 12 17 0 19 23 25 36 9 6 -8 16
-14 23 -14z m-4392 -2 c-3 -8 -6 -5 -6 6 -1 11 2 17 5 13 3 -3 4 -12 1 -19z
m408 12 c3 -5 1 -10 -4 -10 -6 0 -11 5 -11 10 0 6 2 10 4 10 3 0 8 -4 11 -10z
m4240 -1 c8 -13 6 -15 -23 -24 -22 -6 -23 -5 -13 14 13 23 26 27 36 10z
m-3699 -24 c1 -8 -2 -15 -7 -15 -5 0 -9 10 -9 22 0 23 12 17 16 -7z m778 8 c3
-8 4 -18 1 -23 -8 -12 -44 -19 -51 -9 -5 8 9 13 29 10 4 0 7 6 7 15 0 8 -4 13
-9 9 -5 -3 -12 -2 -15 3 -2 4 4 8 14 9 10 1 21 -5 24 -14z m2966 13 c0 -2 -7
-6 -15 -10 -8 -3 -15 -1 -15 4 0 6 7 10 15 10 8 0 15 -2 15 -4z m-444 -41 c11
15 17 16 26 7 17 -17 18 -42 2 -42 -8 0 -14 5 -14 12 0 6 -8 2 -17 -9 -17 -18
-58 -29 -47 -12 2 4 -6 15 -18 24 l-23 17 26 -6 c24 -5 26 -3 22 22 l-4 27 17
-29 c16 -28 17 -29 30 -11z m-3765 -30 c-30 -60 -43 -66 -39 -19 2 25 8 38 16
37 6 -2 11 3 10 10 -2 6 3 11 10 10 6 -2 12 2 12 9 0 6 3 8 7 5 3 -4 -4 -27
-16 -52z m4366 33 c-3 -8 -6 -5 -6 6 -1 11 2 17 5 13 3 -3 4 -12 1 -19z
m-3844 -2 c4 -10 1 -13 -8 -9 -8 3 -12 9 -9 14 7 12 11 11 17 -5z m110 -16
c20 -1 20 -1 4 -11 -13 -7 -16 -17 -11 -32 6 -19 5 -20 -10 -8 -13 11 -19 11
-33 0 -15 -13 -16 -12 -11 9 4 15 1 25 -10 32 -15 8 -14 9 4 10 12 0 25 8 29
18 8 16 8 16 12 0 3 -10 14 -18 26 -18z m3581 21 c3 -5 -3 -11 -14 -14 -20 -5
-26 3 -13 16 9 10 21 9 27 -2z m-4291 -38 c-3 -7 -11 -13 -18 -13 -15 0 -15
32 0 42 12 9 25 -11 18 -29z m537 15 c0 6 5 12 10 12 6 0 10 -22 10 -50 0 -27
-4 -50 -9 -50 -5 0 -7 14 -6 30 1 17 0 32 -4 34 -3 2 -7 -13 -8 -35 -2 -21 2
-39 7 -39 6 0 9 -3 9 -7 -3 -20 2 -26 11 -13 8 12 10 11 10 -6 0 -12 13 -47
29 -78 17 -32 26 -58 20 -62 -5 -3 -9 -2 -8 3 1 4 1 15 0 23 -1 13 -3 13 -10
1 -6 -9 -5 -21 2 -33 10 -16 8 -22 -11 -38 -13 -10 -23 -23 -22 -27 0 -4 -3
-8 -7 -8 -5 0 -15 -4 -23 -10 -8 -5 2 10 22 33 l38 42 -21 35 c-20 33 -20 35
-2 36 10 0 13 3 5 6 -6 2 -10 9 -6 14 3 5 1 9 -5 9 -6 0 -8 6 -5 14 3 7 -2 16
-11 20 -11 4 -14 2 -8 -7 4 -6 8 -21 10 -32 1 -11 -5 -4 -14 15 -18 41 -31
194 -14 170 7 -10 11 -11 11 -2z m690 -13 c-10 -12 -10 -15 3 -15 8 0 18 -7
21 -16 6 -15 4 -15 -19 0 l-25 16 0 -34 c0 -29 -3 -34 -17 -29 -11 4 -12 8 -5
11 7 2 12 13 12 25 0 11 7 29 17 39 19 22 31 24 13 3z m-1520 1 c0 -16 -28
-51 -40 -50 -8 1 -21 2 -27 3 -14 1 -18 33 -6 44 7 7 73 10 73 3z m170 -15
c15 -28 13 -32 -14 -27 -14 3 -30 -2 -37 -10 -13 -16 -30 -9 -23 10 3 8 0 17
-6 21 -17 10 7 25 42 25 17 0 31 -7 38 -19z m735 -49 c-13 -13 -22 21 -11 44
11 24 11 24 14 -7 2 -17 1 -34 -3 -37z m672 48 c1 -11 -2 -20 -8 -20 -5 0 -9
9 -9 20 0 11 4 20 8 20 4 0 8 -9 9 -20z m2637 12 c3 -5 -1 -9 -9 -9 -8 0 -15
4 -15 9 0 4 4 8 9 8 6 0 12 -4 15 -8z m82 -8 c-3 -9 -6 -18 -6 -20 0 -2 -4 -4
-9 -4 -5 0 -7 9 -4 20 3 11 10 20 15 20 6 0 7 -7 4 -16z m509 -9 c0 -11 4 -26
9 -34 6 -10 6 -16 -2 -19 -6 -2 -8 -10 -5 -18 3 -8 0 -14 -7 -14 -6 0 -14 9
-17 20 -11 42 -28 17 -26 -38 1 -10 -2 -10 -16 0 -35 28 -39 34 -30 50 15 28
0 48 -37 48 -26 0 -39 -7 -59 -34 -14 -19 -44 -43 -65 -54 l-38 -19 -12 25
c-14 31 -6 40 17 20 10 -9 25 -13 33 -11 44 13 44 12 28 31 -14 16 -31 62 -22
62 2 0 11 -14 19 -31 l16 -30 26 25 c18 18 37 26 62 26 20 0 42 4 49 9 7 4 28
8 45 7 25 -1 32 -5 32 -21z m-4739 -2 c20 -26 18 -28 -28 -30 -28 -1 -37 2
-27 8 8 5 10 9 6 9 -11 0 16 29 27 30 5 0 15 -8 22 -17z m1531 -15 c-3 -7 -5
-2 -5 12 0 14 2 19 5 13 2 -7 2 -19 0 -25z m-1301 -6 c-17 -16 -18 -16 -5 5 7
12 15 20 18 17 3 -2 -3 -12 -13 -22z m587 17 c-6 -6 -9 -19 -6 -28 4 -13 3
-13 -5 -2 -12 16 -5 41 11 41 8 0 8 -3 0 -11z m3373 0 c3 -6 2 -15 -2 -19 -12
-12 -38 5 -30 19 9 14 23 14 32 0z m-3786 -3 c0 -3 -4 -8 -10 -11 -5 -3 -10
-1 -10 4 0 6 5 11 10 11 6 0 10 -2 10 -4z m3730 -12 c0 -2 -7 -4 -15 -4 -8 0
-15 4 -15 10 0 5 7 7 15 4 8 -4 15 -8 15 -10z m-2950 -4 c0 -5 -4 -10 -10 -10
-5 0 -10 5 -10 10 0 6 5 10 10 10 6 0 10 -4 10 -10z m3438 -7 c-15 -2 -37 -16
-48 -31 -11 -15 -27 -35 -36 -44 -15 -15 -14 -17 8 -20 16 -2 22 -9 20 -23 -1
-11 -4 -30 -5 -43 -1 -13 -8 -22 -17 -21 -8 1 -24 1 -35 0 -17 -1 -18 -3 -5
-12 12 -8 9 -9 -10 -4 -55 15 -80 17 -80 6 0 -6 -6 -11 -13 -11 -9 0 -12 -9
-9 -28 3 -22 -2 -31 -20 -40 -21 -11 -19 -12 15 -7 22 4 37 2 37 -5 0 -5 -22
-10 -50 -10 -47 0 -50 1 -40 19 5 11 10 28 10 38 0 12 -6 6 -17 -15 -10 -21
-21 -31 -30 -27 -8 3 -30 5 -48 5 -33 0 -33 1 -25 31 11 37 21 49 27 33 4 -13
7 -12 95 7 52 11 70 24 73 54 0 6 4 15 8 22 4 6 3 14 -3 18 -10 6 -30 -34 -30
-61 0 -14 -21 -20 -32 -9 -7 8 32 85 43 85 6 0 5 8 -1 19 -13 25 -13 51 0 51
6 0 10 -8 10 -18 0 -20 28 -49 45 -47 46 5 78 20 92 43 24 39 43 52 72 51 l26
-2 -27 -4z m-4378 -18 c-7 -8 -17 -15 -23 -15 -6 0 -2 7 9 15 25 19 30 19 14
0z m1220 5 c0 -5 -2 -10 -4 -10 -3 0 -8 5 -11 10 -3 6 -1 10 4 10 6 0 11 -4
11 -10z m41 -24 c5 3 7 10 4 15 -4 5 -1 9 4 9 15 0 14 -47 -1 -56 -7 -5 -8 -3
-3 6 5 9 2 10 -12 6 -18 -6 -20 -3 -15 21 4 20 7 23 10 10 2 -9 8 -15 13 -11z
m-678 -3 c-16 -6 -17 -23 -3 -23 6 0 15 10 20 23 6 15 9 17 9 5 1 -9 4 -25 7
-35 4 -13 3 -14 -3 -5 -5 7 -17 10 -26 6 -21 -8 -36 24 -16 36 7 5 16 6 19 3
3 -3 -1 -8 -7 -10z m634 -9 c-3 -3 -12 -4 -19 -1 -8 3 -5 6 6 6 11 1 17 -2 13
-5z m-1077 -18 c0 -2 -8 -10 -17 -17 -16 -13 -17 -12 -4 4 13 16 21 21 21 13z
m1133 -29 c37 -12 50 -27 23 -27 -21 0 -84 28 -92 42 -5 8 -2 9 12 4 10 -4 36
-13 57 -19z m40 16 c-7 -2 -19 -2 -25 0 -7 3 -2 5 12 5 14 0 19 -2 13 -5z
m983 -2 c-3 -5 1 -12 10 -15 11 -4 14 -18 12 -53 -3 -46 -4 -48 -33 -48 -28 0
-30 3 -33 44 -2 30 2 49 14 62 17 19 40 27 30 10z m1584 0 c0 -17 -18 -21 -24
-6 -3 9 0 15 9 15 8 0 15 -4 15 -9z m-3226 -34 c4 4 4 -1 0 -11 -6 -16 -5 -17
14 -5 15 9 18 16 9 21 -7 4 -3 6 10 5 12 0 19 -5 17 -9 -3 -4 -1 -8 3 -8 5 0
-2 -33 -15 -74 -17 -50 -30 -76 -43 -79 -15 -4 -16 -1 -9 19 6 15 6 24 0 24
-10 0 -50 -40 -50 -51 0 -8 -48 -40 -64 -43 -6 -1 -18 -6 -26 -11 -9 -5 -8 0
4 13 11 12 21 20 24 17 6 -6 72 80 72 94 0 6 5 11 10 11 6 0 8 11 6 25 -3 14
0 25 6 25 5 0 7 -8 4 -17 -7 -17 -6 -17 10 -1 16 16 16 18 1 42 -20 30 -22 49
-3 24 7 -10 16 -15 20 -11z m146 19 c0 -3 -4 -8 -10 -11 -5 -3 -10 -1 -10 4 0
6 5 11 10 11 6 0 10 -2 10 -4z m40 0 c0 -3 -4 -8 -10 -11 -5 -3 -10 -1 -10 4
0 6 5 11 10 11 6 0 10 -2 10 -4z m356 -11 c4 -8 12 -15 20 -15 24 0 94 -24 94
-32 0 -13 -26 -9 -72 11 -44 19 -81 51 -59 51 6 0 14 -7 17 -15z m581 -42 c2
-41 0 -53 -12 -53 -9 0 -16 10 -16 28 l-2 27 -4 -28 c-7 -46 -28 -25 -31 32
l-3 52 33 -3 c32 -3 33 -4 35 -55z m102 40 c10 -17 10 -17 11 0 0 19 30 24 30
5 0 -10 2 -10 9 0 4 8 19 12 32 10 22 -3 24 -8 24 -53 0 -47 -2 -50 -27 -53
-22 -3 -28 2 -32 20 -3 13 -7 32 -9 43 -3 11 -5 1 -6 -22 -1 -39 -4 -43 -26
-43 -24 0 -25 3 -38 87 -1 9 -7 9 -17 3 -12 -7 -12 -12 -3 -21 10 -10 10 -16
0 -27 -9 -12 -9 -16 1 -19 21 -8 13 -23 -13 -23 -24 0 -25 3 -25 55 l0 55 40
0 c27 0 42 -6 49 -17z m151 -28 c0 -25 5 -45 10 -45 6 0 10 -4 10 -10 0 -5
-11 -10 -25 -10 -24 0 -25 3 -25 55 0 42 3 55 15 55 11 0 15 -12 15 -45z m52
-2 l2 -48 3 48 c3 33 8 47 19 47 12 0 14 -11 12 -52 -3 -47 -6 -53 -27 -56
-30 -5 -41 12 -41 66 0 31 4 42 15 42 11 0 15 -13 17 -47z m116 20 c4 -28 -24
-32 -31 -5 -3 9 -5 -3 -5 -28 0 -25 2 -37 5 -27 2 9 11 17 19 17 9 0 14 -7 12
-17 -2 -13 -13 -18 -33 -18 -28 0 -30 3 -33 39 -5 54 3 68 35 64 20 -2 29 -9
31 -25z m42 -28 c0 -42 -3 -55 -15 -55 -12 0 -15 13 -15 55 0 42 3 55 15 55
12 0 15 -13 15 -55z m120 33 l9 -23 0 23 c1 12 6 22 11 22 6 0 10 -25 10 -55
0 -57 -14 -72 -30 -32 l-9 22 0 -22 c-1 -13 -5 -23 -11 -23 -5 0 -10 25 -10
55 0 57 14 72 30 33z m1609 12 c-6 -4 -12 -23 -14 -41 -2 -23 -8 -35 -20 -38
-14 -2 -17 2 -12 19 3 14 1 20 -6 17 -7 -2 -11 -12 -11 -21 1 -10 -6 -16 -17
-16 -23 0 -25 13 -4 30 8 7 12 16 9 22 -11 17 18 37 52 36 19 -1 30 -4 23 -8z
m145 -12 c-5 -13 -8 -33 -9 -45 0 -16 -6 -23 -21 -23 -18 0 -20 5 -16 32 5 30
25 57 45 58 5 0 5 -10 1 -22z m-3206 -2 c-7 -8 -15 -10 -16 -5 -2 6 -11 4 -20
-3 -15 -12 -16 -11 -3 5 7 9 22 17 33 17 16 0 17 -2 6 -14z m77 3 c11 -17 -1
-21 -15 -4 -8 9 -8 15 -2 15 6 0 14 -5 17 -11z m-1315 -13 c-6 -6 -10 -27 -10
-48 0 -33 -3 -38 -23 -38 -16 0 -27 10 -39 35 -15 35 -15 35 11 49 30 16 76
17 61 2z m4710 5 c0 -16 -28 -20 -34 -5 -4 9 1 14 14 14 11 0 20 -4 20 -9z
m-4567 -50 c1 -23 -1 -41 -5 -41 -5 0 -8 21 -8 47 0 56 11 51 13 -6z m181 -1
c1 -22 -2 -40 -5 -40 -10 0 -21 69 -13 81 10 17 17 2 18 -41z m173 28 c-3 -8
-6 -5 -6 6 -1 11 2 17 5 13 3 -3 4 -12 1 -19z m658 2 c3 -11 4 -24 1 -29 -3
-5 -2 -20 3 -33 8 -20 10 -17 10 20 1 40 2 42 31 42 17 0 30 -5 30 -11 0 -6
-7 -9 -15 -6 -8 4 -17 2 -20 -4 -4 -5 1 -12 9 -15 20 -8 21 -24 1 -24 -8 0
-15 -4 -15 -10 0 -5 9 -10 20 -10 11 0 20 -4 20 -9 0 -13 -134 -23 -139 -10
-2 7 -6 8 -10 1 -3 -5 -20 -12 -37 -16 l-31 -7 21 65 c15 46 26 66 38 66 15 0
14 -4 -3 -50 -19 -52 -17 -59 14 -36 10 8 17 27 17 49 0 34 6 40 42 46 4 0 9
-8 13 -19z m238 -30 c3 -10 1 -20 -5 -22 -5 -2 0 -15 11 -30 24 -30 26 -38 8
-38 -7 0 -20 12 -30 28 -16 24 -18 25 -14 5 4 -17 1 -23 -12 -23 -10 0 -18 6
-18 13 0 6 -3 31 -7 55 -7 35 -5 42 9 42 9 0 13 5 9 11 -3 6 5 4 19 -5 14 -10
27 -26 30 -36z m-1356 -22 c-2 -13 -4 -3 -4 22 0 25 2 35 4 23 2 -13 2 -33 0
-45z m32 20 l-2 -43 -6 35 c-7 33 -5 50 5 50 2 0 3 -19 3 -42z m51 31 c0 -5
-5 -7 -12 -3 -8 5 -9 -5 -5 -35 4 -35 3 -40 -9 -30 -17 14 -18 51 -2 67 15 15
28 15 28 1z m50 -29 c0 -22 -2 -40 -4 -40 -2 0 -6 18 -8 40 -2 22 0 40 4 40 5
0 8 -18 8 -40z m60 0 c0 -43 -15 -55 -22 -17 -5 29 1 57 13 57 5 0 9 -18 9
-40z m30 0 c0 -22 -4 -40 -10 -40 -5 0 -10 18 -10 40 0 22 5 40 10 40 6 0 10
-18 10 -40z m27 0 c-3 -52 -17 -52 -17 0 0 22 4 40 10 40 5 0 9 -18 7 -40z
m99 30 c10 0 14 -11 13 -37 l-1 -38 -10 33 c-6 17 -15 32 -19 32 -5 0 -9 -15
-10 -32 0 -28 -2 -30 -9 -13 -5 11 -9 31 -9 44 -1 17 3 22 15 17 9 -3 22 -6
30 -6z m74 -15 c0 -14 -4 -25 -10 -25 -11 0 -14 33 -3 43 11 11 13 8 13 -18z
m-28 -20 c5 -39 -7 -34 -17 8 -4 16 -3 27 3 27 5 0 12 -16 14 -35z m873 -5 c1
-19 4 -41 8 -48 12 -19 -14 -14 -29 6 -13 16 -13 16 -14 0 0 -10 -7 -18 -15
-18 -11 0 -15 12 -15 51 l0 50 33 -3 c29 -3 32 -6 32 -38z m2829 8 c7 -5 5 -8
-6 -8 -21 0 -32 16 -22 32 6 9 9 8 12 -2 3 -8 10 -18 16 -22z m-3633 2 c13 0
17 -5 12 -17 -4 -11 -8 -12 -11 -5 -2 7 -10 12 -18 12 -8 0 -14 8 -13 18 0 10
3 12 6 5 2 -7 13 -13 24 -13z m1040 9 c19 -10 19 -12 5 -34 -15 -22 -14 -26 9
-54 21 -24 22 -29 8 -27 -10 2 -17 6 -15 9 1 4 -8 17 -20 29 -14 14 -18 23
-10 26 17 5 36 42 22 42 -5 0 -10 -7 -10 -15 0 -8 -7 -15 -15 -15 -8 0 -15 4
-15 9 0 5 -3 16 -6 25 -7 19 17 22 47 5z m-1341 -42 c0 -5 -4 -5 -10 -2 -5 3
-10 14 -10 23 0 15 2 15 10 2 5 -8 10 -19 10 -23z m4442 -16 c-6 -14 -7 -14
-10 2 -2 9 -8 17 -13 17 -5 0 -9 5 -9 10 0 6 7 6 19 -2 12 -7 17 -18 13 -27z
m45 7 c-3 -8 -6 -5 -6 6 -1 11 2 17 5 13 3 -3 4 -12 1 -19z m-4192 2 c3 -6 -1
-7 -9 -4 -18 7 -21 14 -7 14 6 0 13 -4 16 -10z m1801 -46 c1 -37 1 -38 -3 -4
-3 19 -10 39 -16 43 -8 6 -7 7 3 4 10 -2 15 -17 16 -43z m21 -16 c-2 -13 -4
-3 -4 22 0 25 2 35 4 23 2 -13 2 -33 0 -45z m49 44 c1 -7 0 -8 -3 -2 -11 22
-23 8 -24 -27 -2 -32 -3 -33 -6 -10 -3 16 -2 35 1 44 7 17 29 13 32 -5z m61
12 c-3 -3 -12 -4 -19 -1 -8 3 -5 6 6 6 11 1 17 -2 13 -5z m1872 -21 c2 -1 -2
-9 -9 -18 -13 -16 -50 -21 -50 -6 0 5 9 7 20 4 23 -6 27 12 4 21 -8 3 -12 11
-9 16 5 8 12 7 23 -2 10 -7 19 -14 21 -15z m-1912 -35 c-2 -13 -4 -5 -4 17 -1
22 1 32 4 23 2 -10 2 -28 0 -40z m73 26 c0 -8 -4 -12 -10 -9 -5 3 -10 13 -10
21 0 8 5 12 10 9 6 -3 10 -13 10 -21z m2105 16 c-3 -5 -14 -10 -23 -9 -14 0
-13 2 3 9 27 11 27 11 20 0z m-3404 -43 c-13 -13 -26 -3 -16 12 3 6 11 8 17 5
6 -4 6 -10 -1 -17z m1207 -8 c-3 -8 -7 -3 -11 10 -4 17 -3 21 5 13 5 -5 8 -16
6 -23z m-1043 11 c-3 -5 -14 -10 -23 -9 -14 0 -13 2 3 9 27 11 27 11 20 0z
m-240 -13 c11 -11 10 -16 -7 -26 -11 -7 -17 -15 -14 -18 3 -3 14 0 23 8 10 7
15 10 11 5 -4 -5 -1 -15 7 -22 17 -18 26 -18 19 -1 -7 19 22 42 32 26 4 -7 3
-9 -3 -6 -6 4 -14 0 -17 -9 -5 -12 -2 -15 10 -10 8 3 22 6 30 6 8 0 14 8 14
18 0 14 2 14 9 3 11 -17 -8 -41 -27 -34 -7 3 -19 0 -27 -7 -15 -12 -55 -5 -55
10 0 5 -6 7 -14 4 -8 -3 -24 4 -35 15 -12 12 -24 21 -28 20 -4 0 -9 5 -12 12
-2 8 2 10 12 6 9 -3 19 -2 22 3 9 14 34 12 50 -3z m286 4 c6 10 9 7 10 -11 1
-14 1 -29 0 -33 -1 -5 3 -6 9 -2 6 3 8 16 6 29 -4 20 -1 22 25 18 30 -4 35
-22 9 -30 -8 -3 -10 0 -5 8 5 9 4 11 -4 6 -6 -4 -9 -12 -5 -17 3 -5 -15 -19
-40 -30 -36 -16 -50 -18 -67 -9 -11 7 -28 8 -37 4 -14 -6 -13 -8 8 -14 l25 -8
-27 -1 c-16 -1 -28 4 -28 12 0 8 -4 7 -11 -3 -9 -13 -10 -13 -6 0 2 8 10 14
16 12 14 -3 15 15 1 23 -5 3 -10 12 -9 18 0 8 3 7 6 -2 5 -11 7 -11 14 0 7 11
9 11 9 -2 0 -18 37 -33 46 -18 3 5 10 9 16 9 6 0 5 -7 -3 -17 -12 -15 -12 -16
4 -10 10 4 23 7 29 7 6 0 5 6 -2 15 -11 13 -10 14 6 9 18 -7 18 -7 2 13 -10
11 -18 24 -17 29 0 5 3 3 6 -5 5 -11 7 -11 14 0z m1089 5 c0 -2 -7 -6 -15 -10
-8 -3 -15 -1 -15 4 0 6 7 10 15 10 8 0 15 -2 15 -4z m-1172 -31 c4 -18 3 -19
-10 -3 -8 11 -31 19 -63 21 -44 3 -42 4 10 3 52 -1 60 -4 63 -21z m27 6 c3 -5
1 -12 -5 -16 -5 -3 -10 1 -10 9 0 18 6 21 15 7z m-100 -62 c-4 -5 -21 -9 -38
-9 -23 0 -28 3 -17 9 8 6 17 8 21 5 4 -2 10 0 14 6 4 6 11 8 16 4 5 -3 7 -10
4 -15z"/>
<path d="M7690 10553 c0 -5 14 -26 30 -47 l30 -40 -30 -31 c-16 -17 -30 -34
-30 -38 0 -16 26 -5 47 21 l23 27 21 -27 c12 -17 30 -28 45 -28 31 0 30 6 -6
54 l-30 40 30 31 c16 17 30 34 30 38 0 15 -20 6 -45 -20 l-26 -28 -20 28 c-19
25 -69 39 -69 20z m51 -30 c13 -16 12 -17 -3 -4 -17 13 -22 21 -14 21 2 0 10
-8 17 -17z m70 -100 c13 -16 12 -17 -3 -4 -17 13 -22 21 -14 21 2 0 10 -8 17
-17z"/>
<path d="M3512 10578 c-28 -28 -5 -101 25 -77 17 14 17 50 0 72 -10 14 -15 15
-25 5z"/>
<path d="M3415 10540 c-7 -12 20 -60 34 -60 5 0 16 -3 25 -6 25 -10 19 23 -9
51 -26 27 -40 31 -50 15z"/>
<path d="M3588 10534 c-36 -19 -40 -65 -5 -57 27 7 47 30 47 55 0 22 -6 22
-42 2z"/>
<path d="M3536 10484 c-5 -13 -9 -14 -21 -4 -12 10 -15 9 -15 -5 0 -12 -6 -16
-20 -12 -11 3 -18 1 -14 -4 3 -5 1 -9 -5 -9 -5 0 -13 5 -16 10 -7 12 -42 4
-63 -13 -11 -9 -11 -13 4 -24 27 -20 61 -16 78 9 9 12 19 18 23 14 4 -4 -1
-15 -12 -23 -20 -15 -20 -15 3 -10 17 4 22 1 22 -16 1 -20 1 -21 11 -4 10 18
11 18 26 0 14 -17 14 -17 10 5 -5 19 -2 22 16 17 20 -6 21 -5 5 8 -10 8 -15
17 -11 20 9 10 25 8 19 -1 -3 -5 5 -15 19 -22 28 -15 75 -6 75 15 0 20 -47 38
-67 27 -8 -5 -25 -7 -38 -4 -16 3 -21 9 -18 23 6 23 -2 25 -11 3z"/>
<path d="M3425 10370 c-19 -37 -19 -40 3 -40 25 0 49 20 57 48 5 19 3 22 -19
22 -18 0 -30 -9 -41 -30z"/>
<path d="M3560 10381 c0 -20 35 -51 57 -51 17 0 16 30 -1 53 -18 24 -56 23
-56 -2z"/>
<path d="M3512 10378 c-18 -18 -15 -77 4 -85 31 -12 46 46 20 79 -10 13 -15
15 -24 6z"/>
<path d="M3230 10055 l0 -135 45 0 c35 0 52 6 77 29 30 27 33 34 36 105 4 73
3 76 -26 106 -26 25 -38 30 -81 30 l-51 0 0 -135z"/>
<path d="M4334 10109 c-23 -81 -21 -85 39 -77 l23 3 -21 74 -21 74 -20 -74z"/>
<path d="M3270 9160 l0 -140 49 0 c62 0 106 33 122 93 28 104 -26 187 -121
187 l-50 0 0 -140z"/>
<path d="M6196 9198 c-22 -76 -21 -78 19 -78 39 0 39 -4 10 93 l-12 42 -17
-57z"/>
<path d="M7565 9268 c-4 -9 -5 -40 -3 -69 3 -47 6 -54 25 -57 14 -2 32 6 48
22 44 44 28 100 -32 112 -24 5 -34 2 -38 -8z"/>
<path d="M5707 9257 c-39 -30 -50 -146 -19 -206 20 -41 31 -46 56 -28 31 23
41 131 19 210 -7 26 -37 39 -56 24z"/>
<path d="M5891 9244 c-17 -22 -21 -41 -21 -100 0 -99 22 -144 64 -128 48 18
49 215 2 246 -17 12 -23 10 -45 -18z"/>
<path d="M6840 9177 c-19 -34 -36 -65 -38 -69 -2 -5 15 -8 37 -8 l41 0 0 70
c0 39 -1 70 -2 70 -2 0 -19 -28 -38 -63z"/>
<path d="M7106 9255 c-35 -36 -35 -191 1 -226 17 -17 24 -19 41 -10 26 14 35
60 30 152 -3 55 -8 74 -23 85 -24 18 -30 18 -49 -1z"/>
<path d="M7301 9257 c-35 -43 -31 -207 6 -234 22 -17 27 -16 48 7 21 23 32
116 21 174 -11 56 -49 83 -75 53z"/>
<path d="M3586 9184 c-49 -49 -20 -174 41 -174 7 0 25 11 38 25 20 19 25 34
25 72 0 61 -21 93 -60 93 -16 0 -36 -7 -44 -16z"/>
<path d="M4555 9180 c-41 -46 -13 -160 40 -160 39 0 68 46 62 102 -2 26 -10
54 -17 63 -18 21 -64 19 -85 -5z"/>
<path d="M4803 9173 c-26 -39 -22 -107 7 -138 30 -32 50 -32 81 1 31 33 34
111 5 143 -28 30 -71 28 -93 -6z"/>
<path d="M3300 8424 c0 -21 4 -25 23 -22 14 2 23 11 25 26 3 18 -1 22 -22 22
-21 0 -26 -5 -26 -26z"/>
<path d="M3300 8344 c0 -33 2 -35 27 -32 34 4 43 36 17 55 -31 22 -44 16 -44
-23z"/>
<path d="M7000 8420 c0 -23 5 -30 19 -30 24 0 45 25 37 45 -3 8 -17 15 -31 15
-21 0 -25 -5 -25 -30z"/>
<path d="M4090 8431 c-11 -22 -13 -80 -4 -105 3 -9 14 -16 24 -16 22 0 30 19
30 74 0 59 -29 86 -50 47z"/>
<path d="M5160 8380 c0 -11 4 -20 9 -20 5 0 11 9 14 20 3 13 0 20 -9 20 -8 0
-14 -9 -14 -20z"/>
<path d="M5287 8390 c-18 -29 -18 -30 2 -30 17 0 21 6 21 30 0 17 -1 30 -3 30
-1 0 -11 -13 -20 -30z"/>
<path d="M5545 8374 c-18 -18 -18 -20 -5 -45 14 -24 36 -24 50 0 20 38 -16 74
-45 45z"/>
<path d="M4747 8394 c-15 -15 -6 -24 24 -24 20 0 29 4 27 13 -5 14 -40 21 -51
11z"/>
<path d="M4978 8352 c-18 -3 -25 -37 -10 -46 14 -9 34 11 30 30 -2 12 -9 18
-20 16z"/>
<path d="M5741 8397 c-18 -18 -13 -27 14 -27 15 0 25 6 25 14 0 19 -25 27 -39
13z"/>
<path d="M6125 8396 c-25 -18 -16 -29 20 -24 23 3 25 5 13 21 -12 16 -15 16
-33 3z"/>
<path d="M3448 8349 c-21 -12 -23 -35 -4 -42 17 -7 36 11 36 35 0 20 -7 22
-32 7z"/>
<path d="M3744 8387 c-3 -9 -4 -28 -2 -44 2 -22 8 -28 28 -28 23 0 25 4 25 40
0 34 -3 40 -23 43 -13 2 -24 -3 -28 -11z"/>
<path d="M6462 8398 c-19 -19 -14 -28 14 -28 18 0 25 5 22 17 -4 21 -21 26
-36 11z"/>
<path d="M6812 8398 c-19 -19 -14 -28 18 -28 17 0 30 4 30 8 0 9 -21 32 -30
32 -3 0 -11 -5 -18 -12z"/>
<path d="M7142 8398 c-19 -19 -14 -28 18 -28 17 0 30 4 30 8 0 9 -21 32 -30
32 -3 0 -11 -5 -18 -12z"/>
<path d="M3300 8055 c0 -69 2 -75 20 -75 12 0 32 11 45 25 46 45 23 125 -36
125 l-29 0 0 -75z"/>
<path d="M7060 8096 c0 -39 13 -45 44 -23 26 19 17 51 -17 55 -25 3 -27 1 -27
-32z"/>
<path d="M7222 8084 c-13 -43 -11 -47 15 -42 17 3 18 7 8 42 l-11 38 -12 -38z"/>
<path d="M7360 8054 l0 -76 28 6 c36 9 52 32 52 76 0 41 -24 70 -58 70 -21 0
-22 -5 -22 -76z"/>
<path d="M7541 8087 c-15 -39 -14 -47 9 -47 21 0 25 20 10 55 -7 19 -9 18 -19
-8z"/>
<path d="M3557 8023 c-4 -3 -7 -15 -7 -25 0 -28 34 -19 38 10 3 21 -16 31 -31
15z"/>
<path d="M3682 8068 c-28 -28 0 -94 34 -81 11 4 14 17 12 47 -3 43 -22 58 -46
34z"/>
<path d="M3827 8073 c-15 -27 -16 -63 -1 -77 19 -19 26 -20 42 -4 13 13 16 47
6 72 -6 16 -39 22 -47 9z"/>
<path d="M4107 8074 c-14 -14 -6 -24 19 -24 16 0 24 5 22 13 -5 14 -31 21 -41
11z"/>
<path d="M4687 8074 c-14 -14 -6 -24 19 -24 16 0 24 5 22 13 -5 14 -31 21 -41
11z"/>
<path d="M5037 8073 c-15 -14 -6 -23 23 -23 22 0 28 4 24 15 -6 15 -35 20 -47
8z"/>
<path d="M5223 8014 c-7 -18 11 -39 26 -30 17 11 13 46 -4 46 -9 0 -18 -7 -22
-16z"/>
<path d="M5627 8023 c-4 -3 -7 -15 -7 -25 0 -28 34 -19 38 10 3 21 -16 31 -31
15z"/>
<path d="M5756 8065 c-19 -49 8 -100 40 -75 24 20 15 84 -12 88 -13 2 -24 -4
-28 -13z"/>
<path d="M6047 8073 c-12 -11 -8 -68 5 -81 17 -17 26 -15 43 12 12 18 13 30 6
50 -10 24 -39 35 -54 19z"/>
<path d="M6318 8055 c-8 -19 -8 -31 0 -50 27 -59 80 -3 56 59 -9 25 -43 19
-56 -9z"/>
<path d="M3300 7770 c0 -41 8 -47 41 -30 34 19 18 70 -23 70 -14 0 -18 -8 -18
-40z"/>
<path d="M3446 7788 c-19 -27 -20 -67 -4 -103 16 -35 60 -35 76 0 25 54 3 125
-38 125 -10 0 -26 -10 -34 -22z"/>
<path d="M3610 7775 c0 -28 4 -35 20 -35 25 0 41 30 29 53 -6 9 -19 17 -29 17
-16 0 -20 -7 -20 -35z"/>
<path d="M4496 7766 c-8 -42 -5 -50 17 -44 12 2 12 10 2 43 l-11 40 -8 -39z"/>
<path d="M6001 6740 c-59 -14 -114 -61 -143 -120 -85 -170 -12 -367 148 -400
33 -7 102 -26 154 -41 112 -34 126 -35 133 -9 5 21 3 22 -85 40 -59 12 -73 24
-40 34 30 10 84 68 103 111 42 96 28 232 -30 305 -53 67 -156 101 -240 80z
m127 -54 c37 -19 68 -55 87 -98 21 -53 20 -172 -4 -223 -20 -46 -70 -92 -107
-101 -41 -10 -110 2 -142 25 -117 83 -95 348 33 401 32 14 104 11 133 -4z"/>
<path d="M5980 6668 c-111 -74 -112 -302 -1 -375 73 -49 172 -21 215 62 29 55
30 192 2 248 -40 80 -146 112 -216 65z"/>
<path d="M3868 6734 c-5 -4 -8 -121 -8 -261 l0 -253 25 0 25 0 0 105 0 105 63
0 c117 0 197 65 197 159 0 53 -25 101 -66 128 -21 13 -53 19 -128 21 -56 2
-104 1 -108 -4z m161 -40 c52 -11 81 -49 81 -106 0 -41 -5 -54 -28 -78 -31
-30 -101 -48 -147 -36 -25 6 -25 8 -25 110 0 74 4 106 13 109 18 8 70 8 106 1z"/>
<path d="M3927 6683 c-4 -3 -7 -48 -7 -99 0 -105 5 -112 81 -99 61 10 99 48
99 97 0 52 -14 77 -55 94 -36 15 -107 19 -118 7z"/>
<path d="M4310 6480 l0 -260 145 0 c136 0 145 1 145 19 0 27 -17 30 -127 28
l-98 -2 -3 238 -2 237 -30 0 -30 0 0 -260z"/>
<path d="M4824 6628 c-20 -62 -59 -175 -85 -252 -27 -76 -49 -142 -49 -147 0
-5 13 -9 28 -9 26 0 30 5 56 85 l27 85 98 0 97 0 28 -85 c26 -82 28 -85 58
-85 20 0 29 4 26 13 -3 6 -42 123 -88 260 l-82 247 -38 0 -38 0 -38 -112z m86
38 c0 -7 16 -60 35 -117 19 -57 35 -107 35 -111 0 -5 -38 -8 -84 -8 l-83 0 41
129 c22 71 44 127 49 124 4 -2 7 -10 7 -17z"/>
<path d="M4862 6553 c-18 -58 -31 -107 -29 -109 3 -3 34 -4 69 -2 l65 3 -36
106 -36 107 -33 -105z"/>
<path d="M5140 6734 c0 -3 36 -71 80 -150 l80 -145 0 -109 0 -110 30 0 30 0 0
115 0 114 73 123 c109 182 104 168 65 168 -32 0 -35 -3 -100 -131 l-67 -130
-66 130 c-62 124 -67 131 -95 131 -17 0 -30 -3 -30 -6z"/>
<path d="M6432 6548 c3 -172 6 -198 25 -240 38 -82 123 -114 227 -84 60 18 93
51 115 115 6 20 11 107 11 217 l0 184 -30 0 -30 0 0 -190 c0 -154 -3 -196 -16
-223 -21 -45 -61 -67 -119 -67 -38 0 -52 5 -75 28 -42 42 -50 88 -50 280 l0
172 -31 0 -31 0 4 -192z"/>
<path d="M6980 6480 l0 -260 30 0 30 0 0 260 0 260 -30 0 -30 0 0 -260z"/>
<path d="M7200 6715 l0 -24 134 -3 134 -3 -149 -218 c-82 -120 -149 -225 -149
-233 0 -12 31 -14 190 -14 l190 0 0 25 0 24 -149 3 -149 3 149 218 c82 120
149 225 149 233 0 12 -29 14 -175 14 l-175 0 0 -25z"/>
<path d="M3782 5583 c-22 -65 -38 -122 -35 -127 4 -5 13 10 22 34 16 42 17 44
64 46 48 3 49 3 64 -36 9 -22 20 -40 26 -40 5 0 6 8 2 18 -3 9 -22 63 -42 120
-20 57 -41 102 -48 102 -7 0 -30 -51 -53 -117z m74 45 c9 -29 19 -59 22 -65 3
-9 -9 -13 -42 -13 -25 0 -46 1 -46 3 0 2 7 26 16 53 9 27 17 55 20 62 6 21 12
14 30 -40z"/>
<path d="M3822 5611 c-17 -47 -15 -51 13 -51 28 0 28 1 11 50 l-13 34 -11 -33z"/>
<path d="M4010 5574 l0 -127 58 7 c90 10 132 52 132 131 0 73 -51 115 -140
115 l-50 0 0 -126z m137 84 c29 -27 38 -77 23 -122 -14 -42 -29 -56 -76 -66
-64 -15 -69 -8 -69 105 0 79 3 101 15 107 24 12 83 -2 107 -24z"/>
<path d="M4040 5575 c0 -94 0 -95 24 -95 74 0 118 61 97 132 -13 43 -35 58
-85 58 l-36 0 0 -95z"/>
<path d="M4270 5580 c0 -73 4 -120 10 -120 6 0 10 47 10 120 0 73 -4 120 -10
120 -6 0 -10 -47 -10 -120z"/>
<path d="M4360 5693 c0 -4 17 -58 37 -120 27 -80 42 -113 53 -113 11 0 28 35
58 117 23 64 39 119 36 122 -8 8 -17 -10 -53 -118 -31 -90 -51 -125 -51 -88 0
27 -61 207 -70 207 -6 0 -10 -3 -10 -7z"/>
<path d="M4610 5580 c0 -73 4 -120 10 -120 6 0 10 47 10 120 0 73 -4 120 -10
120 -6 0 -10 -47 -10 -120z"/>
<path d="M4720 5580 c0 -73 4 -120 10 -120 6 0 10 43 10 108 1 121 -6 123 80
-18 30 -49 60 -90 67 -90 10 0 13 30 13 120 0 80 -4 120 -11 120 -7 0 -10 -34
-7 -105 1 -58 1 -105 -2 -105 -3 0 -34 47 -70 105 -35 58 -70 105 -77 105 -10
0 -13 -28 -13 -120z"/>
<path d="M5017 5587 c-40 -122 -41 -127 -29 -127 5 0 14 17 20 39 12 38 13 38
62 38 28 0 50 -3 50 -7 0 -4 7 -25 16 -46 33 -77 25 -12 -12 101 -27 81 -43
115 -54 115 -11 0 -27 -33 -53 -113z m77 29 c9 -27 16 -53 16 -58 0 -4 -18 -8
-40 -8 -22 0 -40 2 -40 5 0 22 35 124 40 118 4 -4 15 -30 24 -57z"/>
<path d="M5056 5617 c-3 -14 -9 -32 -12 -41 -5 -13 1 -16 24 -16 30 0 31 1 20
33 -15 45 -24 52 -32 24z"/>
<path d="M5340 5575 l0 -125 65 0 c37 0 65 4 65 10 0 6 -25 10 -55 10 l-55 0
0 50 c0 49 0 49 38 55 66 11 68 13 15 14 l-53 1 0 45 0 45 50 0 c28 0 50 5 50
10 0 6 -27 10 -60 10 l-60 0 0 -125z"/>
<path d="M5540 5575 l0 -125 65 0 c37 0 65 4 65 10 0 6 -25 10 -55 10 l-55 0
0 115 c0 70 -4 115 -10 115 -6 0 -10 -48 -10 -125z"/>
<path d="M5840 5575 c0 -77 4 -125 10 -125 6 0 10 24 10 54 0 48 2 54 18 49
32 -8 91 23 98 51 16 64 -17 96 -97 96 l-39 0 0 -125z m107 93 c7 -6 13 -23
13 -39 0 -33 -32 -59 -72 -59 -27 0 -28 2 -28 54 0 34 5 56 13 59 17 6 59 -2
74 -15z"/>
<path d="M5870 5625 c0 -41 2 -45 24 -45 45 0 72 50 44 78 -7 7 -25 12 -40 12
-27 0 -28 -2 -28 -45z"/>
<path d="M6060 5575 l0 -125 65 0 c37 0 65 4 65 10 0 6 -25 10 -55 10 l-55 0
0 50 0 50 50 0 c28 0 50 5 50 10 0 6 -22 10 -50 10 l-50 0 0 45 0 45 50 0 c28
0 50 5 50 10 0 6 -27 10 -60 10 l-60 0 0 -125z"/>
<path d="M6260 5574 c0 -96 3 -125 13 -122 7 3 13 26 15 56 3 50 4 52 32 52
33 0 54 -25 65 -77 4 -18 11 -33 17 -33 16 0 0 71 -23 103 -11 15 -15 27 -10
27 19 0 43 49 37 73 -7 30 -44 47 -101 47 l-45 0 0 -126z m115 94 c1 -2 6 -13
9 -25 9 -30 -25 -63 -64 -63 -29 0 -30 1 -30 49 0 31 5 51 13 54 11 3 66 -8
72 -15z"/>
<path d="M6300 5630 c0 -36 3 -40 24 -40 14 0 32 9 40 22 21 30 4 58 -34 58
-28 0 -30 -2 -30 -40z"/>
<path d="M6502 5684 c-31 -22 -29 -67 4 -93 15 -12 32 -21 39 -21 18 0 45 -34
45 -57 0 -30 -24 -45 -69 -42 -51 4 -64 -8 -18 -16 65 -13 107 11 107 60 0 35
-16 52 -79 87 -55 30 -32 82 34 80 19 -1 35 3 35 8 0 16 -73 11 -98 -6z"/>
<path d="M6729 5685 c-54 -29 -72 -131 -33 -190 36 -55 124 -57 168 -4 46 55
32 165 -25 195 -35 18 -76 17 -110 -1z m96 -11 c38 -15 55 -91 34 -153 -27
-76 -135 -67 -155 14 -10 38 2 104 22 126 17 19 66 25 99 13z"/>
<path d="M6731 5644 c-48 -61 -14 -164 53 -164 49 0 71 30 71 95 0 65 -22 95
-71 95 -23 0 -38 -7 -53 -26z"/>
<path d="M6970 5575 c0 -81 4 -125 11 -125 6 0 9 35 8 100 -1 56 1 103 3 106
3 2 34 -43 69 -101 35 -58 70 -105 77 -105 9 0 12 32 12 125 0 77 -4 125 -10
125 -6 0 -10 -43 -11 -107 0 -73 -3 -103 -10 -93 -5 8 -35 57 -66 108 -32 50
-63 92 -70 92 -10 0 -13 -30 -13 -125z"/>
<path d="M7265 5588 c-21 -62 -40 -119 -43 -125 -2 -7 1 -13 7 -13 5 0 16 18
22 40 12 40 12 40 64 40 52 0 52 0 64 -40 6 -22 16 -40 21 -40 15 0 13 6 -28
130 -25 75 -44 116 -54 118 -12 2 -25 -25 -53 -110z m71 40 c9 -29 19 -59 22
-65 3 -9 -9 -13 -41 -13 l-45 0 21 65 c12 36 22 65 23 65 1 0 10 -24 20 -52z"/>
<path d="M7302 5613 c-16 -53 -16 -53 13 -53 28 0 29 9 11 59 l-12 34 -12 -40z"/>
<path d="M7540 5597 c0 -109 -6 -127 -47 -127 -13 0 -23 -4 -23 -10 0 -15 43
-12 68 6 20 14 22 23 22 125 0 66 -4 109 -10 109 -6 0 -10 -41 -10 -103z"/>
<path d="M7650 5575 l0 -125 65 0 c37 0 65 4 65 10 0 6 -25 10 -55 10 l-55 0
0 50 0 50 50 0 c28 0 50 5 50 10 0 6 -22 10 -50 10 l-50 0 0 45 0 45 55 0 c30
0 55 5 55 10 0 6 -28 10 -65 10 l-65 0 0 -125z"/>
<path d="M4200 4830 l0 -160 90 0 c53 0 90 4 90 10 0 6 -32 10 -75 10 l-75 0
0 70 0 70 65 0 c37 0 65 4 65 10 0 6 -28 10 -65 10 l-65 0 0 60 0 60 70 0 c40
0 70 4 70 10 0 6 -35 10 -85 10 l-85 0 0 -160z"/>
<path d="M4460 4987 c0 -2 21 -39 46 -81 l46 -76 -46 -73 c-51 -81 -53 -87
-32 -87 8 0 31 31 52 70 20 38 40 68 44 65 5 -3 25 -34 45 -70 20 -36 43 -65
50 -65 21 0 20 5 -30 87 -25 40 -45 76 -45 78 0 3 20 37 45 77 24 39 43 74 40
76 -12 12 -34 -12 -64 -67 -18 -34 -36 -61 -40 -61 -4 0 -23 28 -42 62 -19 35
-42 64 -52 66 -9 2 -17 1 -17 -1z"/>
<path d="M4803 4993 c-23 -4 -23 -6 -23 -164 0 -152 1 -159 20 -159 18 0 20 7
20 65 l0 65 36 0 c74 0 124 43 124 108 0 68 -76 104 -177 85z m126 -49 c37
-46 19 -98 -40 -115 -61 -19 -69 -10 -69 71 l0 70 44 0 c36 0 48 -5 65 -26z"/>
<path d="M4830 4900 l0 -60 33 0 c41 0 64 17 72 52 9 36 -23 68 -70 68 l-35 0
0 -60z"/>
<path d="M5142 4984 c-54 -28 -76 -69 -80 -149 -3 -77 14 -119 62 -150 66 -43
171 -16 208 55 38 73 16 189 -43 233 -37 27 -106 32 -147 11z m139 -40 c42
-38 51 -154 15 -209 -23 -35 -77 -60 -111 -51 -88 22 -124 163 -63 248 33 48
113 54 159 12z"/>
<path d="M5136 4930 c-71 -84 -27 -230 69 -230 73 0 120 87 95 178 -22 82
-114 111 -164 52z"/>
<path d="M5420 4983 c0 -5 23 -77 51 -161 46 -138 53 -153 72 -150 18 2 31 29
78 161 48 135 53 157 38 157 -13 0 -28 -32 -67 -147 -27 -82 -52 -141 -55
-133 -3 8 -25 75 -47 148 -28 89 -46 132 -56 132 -8 0 -14 -3 -14 -7z"/>
<path d="M5750 4830 l0 -160 90 0 c53 0 90 4 90 10 0 6 -30 10 -70 10 l-70 0
0 65 0 65 65 0 c51 0 65 3 65 15 0 12 -14 15 -65 15 l-65 0 0 60 0 60 71 0
c44 0 68 4 64 10 -3 6 -44 10 -91 10 l-84 0 0 -160z"/>
<path d="M6020 4830 c0 -157 0 -160 21 -160 22 0 22 2 16 140 -3 77 -2 140 2
140 4 0 13 -12 20 -27 7 -16 44 -79 82 -140 50 -81 76 -113 90 -113 18 0 19 9
19 160 0 138 -2 160 -15 160 -14 0 -16 -19 -15 -132 1 -73 1 -137 0 -143 0 -5
-13 13 -29 41 -15 28 -54 92 -86 143 -46 73 -62 91 -81 91 l-24 0 0 -160z"/>
<path d="M6350 4980 c0 -5 23 -10 50 -10 l50 0 0 -150 c0 -127 2 -150 15 -150
13 0 15 23 15 150 l0 150 50 0 c28 0 50 5 50 10 0 6 -45 10 -115 10 -70 0
-115 -4 -115 -10z"/>
<path d="M6653 4833 c-29 -86 -51 -159 -48 -161 12 -13 33 12 45 52 l13 46 67
0 67 0 13 -46 c12 -41 33 -65 46 -52 2 3 -19 75 -48 162 -50 146 -55 156 -78
156 -24 0 -29 -10 -77 -157z m101 64 c10 -34 21 -70 23 -79 5 -16 -2 -18 -50
-18 l-55 0 26 80 c14 44 29 80 32 80 3 0 13 -28 24 -63z"/>
<path d="M6713 4887 c-7 -23 -15 -50 -18 -59 -6 -15 -1 -18 34 -18 23 0 41 1
41 3 0 10 -34 103 -39 109 -4 5 -12 -11 -18 -35z"/>
<path d="M6989 4985 c-15 -8 -32 -29 -38 -46 -16 -47 3 -78 72 -114 82 -42 97
-75 56 -116 -19 -19 -30 -21 -80 -16 -62 5 -78 -6 -33 -23 56 -22 131 -2 154
39 17 32 12 79 -11 102 -11 11 -41 29 -67 40 -51 22 -62 33 -62 66 0 38 28 55
81 51 31 -2 50 1 53 9 10 24 -83 31 -125 8z"/>
<path d="M4734 4298 c-417 -717 -584 -1012 -577 -1019 15 -13 206 -120 297
-166 101 -50 102 -51 94 -59 -7 -7 -197 88 -311 156 -47 27 -90 50 -95 50 -5
0 -21 -22 -36 -49 l-26 -49 207 -359 207 -360 50 5 c28 2 94 9 146 16 l95 11
3 128 3 128 87 -3 87 -3 3 -84 c2 -67 0 -85 -13 -95 -20 -15 -9 -48 14 -42 9
2 31 7 49 11 19 4 32 13 32 22 0 8 7 55 16 104 16 87 17 89 45 89 25 0 28 -4
38 -52 6 -29 12 -71 14 -94 l2 -40 45 9 45 9 -3 84 -3 84 26 0 27 0 -4 -80
c-2 -51 1 -79 7 -76 6 2 35 9 67 16 l56 13 4 53 3 52 -60 18 c-62 18 -447 154
-454 160 -2 2 -1 7 2 11 4 3 55 -12 114 -35 60 -22 169 -62 243 -88 128 -44
140 -46 234 -45 l98 2 -4 -30 c-3 -24 0 -31 16 -35 33 -9 36 -7 36 17 0 44 11
49 111 46 109 -2 135 4 384 96 297 109 499 196 705 300 97 50 246 133 268 150
1 1 -56 103 -127 226 -72 123 -231 398 -353 611 l-223 388 -787 0 -786 0 -118
-202z m1066 -625 l0 -728 -105 105 -105 105 0 390 c0 215 4 395 9 401 4 5 33
70 64 144 31 74 68 162 82 195 14 33 32 72 38 88 7 15 13 27 14 27 2 0 3 -327
3 -727z m140 653 c0 -36 5 -44 39 -68 47 -34 49 -34 53 -5 2 14 11 23 26 25
20 3 22 -1 22 -40 0 -37 5 -48 28 -64 45 -33 60 -36 64 -11 2 16 10 22 28 22
23 0 25 -4 28 -45 3 -41 7 -48 45 -72 l42 -27 4 22 c4 27 17 36 42 30 15 -4
19 -15 19 -53 0 -40 3 -48 25 -58 17 -8 25 -20 25 -37 0 -25 -14 -33 -25 -15
-21 34 -25 -17 -25 -348 l0 -358 -30 -17 -30 -18 0 398 0 398 -40 23 c-21 12
-41 22 -44 22 -4 0 -6 -198 -6 -440 l0 -439 -30 -16 -30 -16 0 480 0 479 -36
21 c-19 12 -39 21 -45 21 -5 0 -9 -202 -9 -524 0 -552 1 -536 -41 -536 -5 0
-9 224 -9 554 l0 553 -40 27 c-22 14 -42 26 -45 26 -3 0 -5 -272 -5 -605 0
-602 0 -604 -21 -615 -11 -7 -23 -10 -25 -7 -3 3 -5 289 -5 637 l1 632 -25 20
c-15 11 -25 30 -25 44 0 21 3 23 19 14 27 -14 31 -13 31 9 0 11 6 21 13 24 25
9 37 -6 37 -47z m-474 -348 l84 -72 -1 -375 0 -376 -72 -47 c-40 -26 -80 -50
-89 -54 -17 -6 -18 22 -18 495 0 276 3 501 6 501 3 0 43 -32 90 -72z m-168 25
c2 -15 8 -19 23 -16 26 7 26 -33 -1 -47 -20 -10 -20 -21 -20 -435 0 -234 -3
-425 -7 -425 -5 0 -18 3 -30 6 l-23 6 0 394 c0 217 -3 394 -6 394 -9 0 -48
-22 -61 -36 -10 -10 -13 -93 -13 -364 0 -317 -2 -352 -16 -346 -9 3 -20 6 -25
6 -5 0 -9 136 -9 330 0 182 -2 330 -4 330 -3 0 -21 -9 -40 -21 l-36 -21 0
-290 c0 -260 -2 -290 -16 -284 -9 3 -20 6 -25 6 -5 0 -9 111 -9 265 l0 266
-30 -16 c-16 -8 -34 -24 -40 -34 -6 -12 -10 -105 -10 -230 0 -116 -3 -211 -6
-211 -3 0 -14 5 -25 10 -18 10 -19 23 -19 207 l0 195 -25 -16 c-32 -21 -35
-20 -35 7 0 15 11 29 29 40 24 14 30 25 33 60 2 35 7 43 26 45 17 3 22 -2 22
-17 0 -25 13 -26 51 -4 25 15 29 23 29 60 0 39 2 43 25 43 18 0 25 -5 25 -20
0 -26 20 -25 53 0 19 15 27 32 29 63 2 35 7 43 26 45 18 3 22 -1 22 -22 0 -31
13 -33 51 -5 23 16 29 28 29 59 0 21 6 41 13 43 23 10 42 2 45 -20z m-514
-940 c-18 -59 -12 -77 39 -115 23 -17 33 -28 22 -25 -68 19 -90 18 -111 -5
-12 -13 -29 -36 -37 -53 -19 -35 -21 -25 -6 29 15 54 6 77 -40 106 -22 13 -39
26 -37 28 2 2 23 -2 46 -8 50 -13 76 -1 110 54 12 20 23 36 25 36 2 0 -3 -21
-11 -47z m1036 -240 c-1 -19 -60 -73 -79 -73 l-22 0 22 40 c18 32 28 40 51 40
15 0 28 -3 28 -7z"/>
<path d="M4072 3879 c-75 -10 -163 -34 -212 -59 -82 -42 -108 -110 -75 -197
23 -60 168 -207 275 -280 l76 -51 159 276 c87 153 165 287 173 300 l14 22
-173 -1 c-96 -1 -202 -5 -237 -10z"/>
<path d="M6813 3883 c-8 -6 37 -92 153 -293 91 -157 169 -290 172 -297 5 -8
36 9 95 51 209 149 312 286 286 380 -10 36 -64 90 -108 108 -91 37 -180 50
-381 54 -113 3 -210 1 -217 -3z"/>
<path d="M7099 3234 c-197 -125 -631 -320 -991 -444 -92 -32 -164 -61 -161
-64 16 -16 51 -141 41 -147 -5 -3 2 -9 16 -11 l26 -5 0 83 0 84 30 0 30 0 0
-85 c0 -61 -4 -85 -12 -86 -12 -1 145 -37 165 -39 5 0 7 8 6 18 -1 9 -1 56 0
105 l1 87 78 0 c47 0 83 -5 90 -12 8 -8 12 -49 12 -120 0 -125 -18 -110 155
-134 61 -8 216 -18 345 -21 191 -4 253 -2 330 11 112 19 209 63 241 108 52 72
13 174 -111 291 -92 88 -238 193 -249 181 -8 -8 -63 -102 -270 -463 -36 -63
-72 -116 -79 -119 -6 -2 11 36 39 85 163 280 199 342 277 477 l85 149 -24 44
c-13 25 -26 46 -29 48 -3 1 -21 -8 -41 -21z"/>
<path d="M5868 2713 c-14 -3 -18 -15 -18 -53 0 -53 1 -54 45 -63 17 -4 24 -4
18 -1 -8 4 -13 27 -13 65 0 32 -3 58 -7 58 -5 -1 -16 -3 -25 -6z"/>
<path d="M5490 2653 c0 -28 3 -34 16 -29 9 3 22 6 29 6 8 0 19 8 24 19 9 16 5
20 -29 29 l-40 10 0 -35z"/>
<path d="M5753 2678 c-18 -6 -33 -15 -33 -20 0 -5 -10 -6 -22 -2 -13 3 -20 3
-17 0 4 -4 29 -13 57 -20 l50 -14 4 34 c2 19 2 34 -2 33 -3 -1 -20 -6 -37 -11z"/>
<path d="M4850 2615 c0 -55 3 -65 18 -65 36 1 52 25 52 79 l0 51 -35 0 -35 0
0 -65z"/>
<path d="M6300 2593 c0 -47 2 -84 5 -82 17 18 65 123 65 144 0 22 -4 25 -35
25 l-35 0 0 -87z"/>
<path d="M5708 2624 c9 -4 12 -41 12 -135 l0 -129 35 0 35 0 0 120 c0 130 0
130 -65 143 -16 4 -24 4 -17 1z"/>
<path d="M5100 2563 c0 -18 5 -33 10 -33 13 0 13 30 0 50 -7 11 -10 7 -10 -17z"/>
<path d="M6010 2543 c0 -5 5 -15 10 -23 8 -12 10 -11 10 8 0 12 -4 22 -10 22
-5 0 -10 -3 -10 -7z"/>
<path d="M6356 2515 c-3 -8 -1 -15 4 -15 6 0 10 7 10 15 0 8 -2 15 -4 15 -2 0
-6 -7 -10 -15z"/>
<path d="M5108 2513 c-11 -3 -18 -14 -18 -29 0 -13 -1 -27 -2 -31 -2 -5 7 -9
20 -11 20 -3 22 1 22 37 0 23 -1 40 -2 40 -2 -1 -11 -3 -20 -6z"/>
<path d="M4846 2492 c-2 -4 11 -6 30 -4 19 2 34 6 34 8 0 8 -59 4 -64 -4z"/>
<path d="M4880 2473 l-35 -4 3 -54 4 -55 34 0 34 0 0 60 c0 33 -1 59 -2 58 -2
-1 -19 -3 -38 -5z"/>
<path d="M6321 2444 c-12 -19 -21 -46 -21 -60 0 -21 5 -24 35 -24 l35 0 0 60
c0 71 -17 79 -49 24z"/>
<path d="M4837 2093 c-11 -10 -8 -53 3 -53 6 0 10 14 10 30 0 31 -2 35 -13 23z"/>
<path d="M5000 2115 c0 -26 24 -35 32 -12 7 18 -2 37 -18 37 -8 0 -14 -10 -14
-25z"/>
<path d="M5700 2115 c0 -16 6 -25 15 -25 9 0 15 9 15 25 0 16 -6 25 -15 25 -9
0 -15 -9 -15 -25z"/>
<path d="M5877 2093 c-11 -10 -8 -53 3 -53 6 0 10 14 10 30 0 31 -2 35 -13 23z"/>
<path d="M6350 2074 c0 -48 3 -65 13 -62 7 3 13 28 15 66 2 51 0 62 -13 62
-12 0 -15 -13 -15 -66z"/>
<path d="M4375 1546 c-83 -37 -129 -156 -105 -270 40 -195 251 -229 325 -53
33 80 14 230 -38 286 -44 48 -121 64 -182 37z"/>
<path d="M5738 1554 c-16 -5 -18 -19 -18 -105 l0 -99 53 0 c30 0 67 8 87 18
67 33 75 128 15 168 -24 15 -108 26 -137 18z"/>
<path d="M7133 1525 c-38 -26 -58 -99 -57 -205 1 -141 35 -210 105 -210 54 0
84 39 99 131 13 75 8 177 -11 227 -25 66 -86 92 -136 57z"/>
<path d="M7553 1525 c-38 -26 -58 -99 -57 -205 1 -141 35 -210 105 -210 29 0
43 6 63 30 31 37 40 80 41 185 0 103 -10 147 -41 185 -29 34 -75 40 -111 15z"/>
<path d="M7760 663 c-24 -5 -24 -5 10 -24 l35 -18 -35 -2 c-19 -1 -52 -2 -73
-2 -24 1 -36 -3 -34 -11 2 -6 11 -10 20 -10 9 1 15 -1 13 -5 -3 -4 -1 -13 4
-21 7 -12 13 -13 27 -3 10 6 17 16 16 22 -2 6 0 10 5 9 17 -5 71 22 81 40 16
31 -1 37 -69 25z"/>
<path d="M7626 637 c3 -10 9 -15 12 -12 3 3 0 11 -7 18 -10 9 -11 8 -5 -6z"/>
<path d="M7691 314 c-15 -33 -10 -40 12 -16 9 10 13 23 8 30 -5 9 -11 5 -20
-14z"/>
<path d="M4770 749 c0 -5 5 -7 10 -4 6 3 10 8 10 11 0 2 -4 4 -10 4 -5 0 -10
-5 -10 -11z"/>
<path d="M4797 734 c-8 -8 21 -44 35 -44 4 0 8 5 8 11 0 5 -5 7 -10 4 -6 -3
-14 3 -18 15 -4 11 -11 18 -15 14z"/>
<path d="M6727 740 c-20 -4 -41 -10 -45 -14 -4 -4 11 -4 33 0 91 19 196 -8
252 -64 21 -20 42 -37 48 -37 5 0 10 -11 11 -25 3 -67 4 -69 22 -64 11 4 13 3
5 -3 -10 -7 -8 -20 7 -58 10 -28 19 -42 20 -32 0 9 5 17 10 17 6 0 10 7 10 15
0 9 -6 12 -15 9 -12 -5 -15 3 -15 41 0 38 -3 46 -15 41 -8 -3 -15 -1 -15 3 0
5 5 11 11 13 17 6 -12 56 -52 93 -18 17 -27 22 -20 13 7 -10 9 -18 3 -18 -15
0 -33 26 -24 35 4 5 2 5 -5 2 -6 -4 -31 1 -55 11 -53 23 -120 32 -171 22z
m284 -87 c13 -16 12 -17 -3 -4 -17 13 -22 21 -14 21 2 0 10 -8 17 -17z"/>
<path d="M6640 710 c-12 -8 -12 -10 -1 -10 8 0 -4 -12 -25 -26 -61 -41 -84
-65 -110 -116 l-24 -47 30 17 c28 16 40 34 46 72 2 8 13 23 26 32 57 43 77 62
73 69 -3 4 1 10 7 12 7 3 9 6 3 6 -5 0 -17 -4 -25 -9z"/>
<path d="M6758 706 c-21 -7 -39 -12 -41 -10 -6 6 -58 -22 -57 -30 0 -4 -16
-20 -35 -37 -19 -17 -33 -35 -30 -39 3 -4 -4 -10 -15 -13 -26 -7 -26 -43 0
-50 26 -7 26 -37 1 -37 -11 0 -23 5 -26 10 -8 13 -25 13 -25 0 0 -6 14 -13 30
-17 38 -7 55 -35 40 -64 -15 -28 -97 -24 -114 6 -6 11 -13 22 -16 25 -10 10
-10 30 0 30 6 0 10 5 10 11 0 5 -5 7 -12 3 -7 -4 -8 -3 -4 4 4 7 2 20 -3 29
-8 14 -10 0 -11 -54 0 -66 -2 -73 -20 -73 -17 0 -20 8 -23 73 l-3 72 -2 -77
c-2 -71 0 -77 20 -83 16 -6 26 -1 39 16 l18 24 17 -42 c16 -41 18 -42 33 -24
19 21 68 33 75 17 2 -6 5 -2 6 9 1 11 10 -11 20 -50 12 -43 27 -77 41 -88 27
-21 45 -17 42 10 -2 16 3 19 20 16 12 -2 50 0 85 5 52 7 62 6 58 -5 -5 -11 0
-13 17 -7 35 11 67 35 67 50 0 8 4 14 8 14 5 0 14 16 22 35 13 33 28 43 43 29
3 -3 32 -7 64 -8 l58 -1 1 75 1 75 -4 -67 c-4 -64 -5 -68 -28 -68 -17 0 -25 6
-25 18 -1 16 -1 16 -14 0 -15 -20 -41 -24 -51 -8 -3 6 -17 10 -31 10 -13 0
-24 -4 -24 -10 0 -5 -11 -10 -25 -10 -25 0 -25 0 -10 36 14 34 14 39 -13 92
-39 81 -76 103 -156 95 -61 -6 -103 -20 -92 -30 8 -8 -40 -43 -60 -43 -16 0
-16 1 1 20 10 12 13 20 6 20 -23 0 14 40 56 60 65 30 147 28 201 -7 23 -14 24
-14 17 7 -4 14 -2 25 5 30 8 5 0 11 -21 19 -44 15 -61 -2 -23 -23 36 -19 31
-19 -26 -2 -25 8 -40 15 -34 15 6 1 11 8 11 16 0 18 -11 18 -59 1z m133 -144
l28 -30 -21 -27 -21 -27 22 -39 22 -39 -25 0 c-15 0 -30 8 -36 20 -6 11 -15
20 -21 20 -6 0 -13 -9 -16 -20 -3 -13 -14 -20 -29 -20 -17 0 -24 6 -25 20 -1
11 -2 26 -3 33 -1 6 -5 15 -11 20 -7 4 -6 10 1 15 7 4 13 16 15 27 3 12 14 21
27 23 19 3 22 -1 22 -28 l0 -32 26 32 c15 17 25 32 23 33 -2 1 -15 8 -28 15
-19 11 -32 11 -75 1 -28 -7 -43 -15 -33 -17 9 -2 17 -12 17 -23 0 -16 -7 -19
-40 -19 -22 0 -40 -4 -40 -10 0 -5 16 -10 35 -10 24 0 35 -5 35 -15 0 -10 -11
-15 -35 -15 -19 0 -35 -4 -35 -10 0 -5 18 -10 40 -10 29 0 40 -4 40 -15 0 -12
-13 -15 -60 -15 l-60 0 0 70 c0 61 2 70 18 70 19 0 102 39 87 41 -30 3 47 16
84 14 34 -2 50 -9 72 -33z m29 -94 c0 -23 -3 -29 -11 -21 -6 6 -8 20 -4 32 9
30 15 26 15 -11z m-60 -67 c0 -5 -7 -11 -15 -15 -15 -5 -20 5 -8 17 9 10 23 9
23 -2z m-176 -26 c3 -8 1 -15 -4 -15 -6 0 -10 7 -10 15 0 8 2 15 4 15 2 0 6
-7 10 -15z m239 -8 c-3 -5 -14 -7 -24 -4 -15 4 -19 0 -19 -18 0 -18 4 -22 20
-18 11 3 20 0 20 -6 0 -6 -13 -11 -29 -11 -25 0 -28 3 -23 25 3 21 0 25 -18
25 -18 0 -21 -4 -18 -24 4 -21 1 -25 -31 -29 -20 -2 -37 -1 -39 3 -2 5 -12 6
-22 3 -14 -4 -20 0 -20 11 0 10 -8 16 -22 15 -17 -1 -19 -2 -5 -6 20 -5 23
-23 3 -23 -15 0 -28 24 -19 34 11 10 41 7 55 -6 20 -20 58 -22 58 -4 0 22 17
20 23 -1 4 -14 5 -12 6 5 1 20 -3 22 -48 22 -28 0 -52 3 -54 8 -3 4 44 7 103
7 59 0 106 -4 103 -8z m38 -7 c-13 -11 -35 -20 -50 -20 -23 0 -22 2 14 19 52
25 66 25 36 1z"/>
<path d="M6915 661 c-3 -5 -1 -12 5 -16 5 -3 10 1 10 9 0 18 -6 21 -15 7z"/>
<path d="M6803 643 c9 -2 23 -2 30 0 6 3 -1 5 -18 5 -16 0 -22 -2 -12 -5z"/>
<path d="M6680 625 c-11 -13 -8 -13 21 -3 44 15 48 18 17 18 -14 0 -31 -7 -38
-15z"/>
<path d="M6900 602 c47 -41 68 -48 34 -11 -10 12 -32 28 -49 36 -25 12 -22 8
15 -25z"/>
<path d="M6956 614 c12 -17 20 -22 27 -15 8 8 5 15 -9 26 -29 22 -36 18 -18
-11z"/>
<path d="M6990 570 c0 -5 5 -10 10 -10 6 0 10 5 10 10 0 6 -4 10 -10 10 -5 0
-10 -4 -10 -10z"/>
<path d="M7000 465 c0 -8 5 -15 10 -15 6 0 10 7 10 15 0 8 -4 15 -10 15 -5 0
-10 -7 -10 -15z"/>
<path d="M6487 459 c7 -7 15 -10 18 -7 3 3 -2 9 -12 12 -14 6 -15 5 -6 -5z"/>
<path d="M6520 440 c0 -5 9 -10 21 -10 11 0 17 5 14 10 -3 6 -13 10 -21 10 -8
0 -14 -4 -14 -10z"/>
<path d="M6552 340 c-8 -13 -18 -18 -25 -13 -15 9 16 -39 60 -95 34 -42 68
-62 128 -76 23 -5 17 1 -25 26 -30 18 -58 31 -62 30 -4 -1 -10 7 -13 18 -4 11
-11 17 -17 14 -7 -4 -8 -2 -4 5 4 6 2 19 -5 27 -7 8 -15 31 -18 50 -6 33 -7
33 -19 14z"/>
<path d="M6600 322 c0 -7 -4 -11 -9 -8 -19 12 2 -33 25 -55 23 -21 24 -21 24
-3 0 10 -9 33 -20 49 -11 17 -20 24 -20 17z"/>
<path d="M6722 234 c-6 -7 -6 -17 0 -27 10 -18 -6 -25 -17 -7 -3 6 -11 10 -17
10 -6 0 -6 -6 2 -15 20 -25 109 -45 155 -36 30 7 34 9 15 11 l-25 2 25 8 c14
4 40 8 58 9 18 1 31 5 28 10 -5 7 -93 7 -103 0 -2 -1 -7 -2 -12 -3 -5 0 -13
-4 -17 -8 -11 -11 -24 -10 -24 2 0 6 6 10 14 10 8 0 16 6 19 14 3 9 15 12 31
9 15 -3 26 -1 26 5 0 14 -145 20 -158 6z m42 -36 c-3 -5 -12 -4 -20 3 -7 6
-11 15 -8 21 3 5 12 4 20 -3 7 -6 11 -15 8 -21z"/>
<path d="M4325 730 c4 -6 11 -8 16 -5 14 9 11 15 -7 15 -8 0 -12 -5 -9 -10z"/>
<path d="M4297 714 c-4 -4 -7 -14 -7 -23 0 -11 3 -12 11 -4 6 6 10 16 7 23 -2
6 -7 8 -11 4z"/>
<path d="M4230 620 c-13 -8 -12 -10 3 -10 9 0 17 5 17 10 0 12 -1 12 -20 0z"/>
<path d="M4205 570 c4 -6 11 -8 16 -5 14 9 11 15 -7 15 -8 0 -12 -5 -9 -10z"/>
<path d="M4737 416 c-30 -30 -40 -36 -51 -27 -9 8 -16 8 -20 2 -4 -5 -2 -12 4
-16 5 -3 10 -3 10 2 0 4 7 -2 15 -14 9 -13 22 -20 31 -16 10 4 18 -4 26 -26 7
-17 19 -33 26 -36 12 -4 14 6 9 57 -3 35 -8 71 -12 81 -4 10 -4 17 1 16 19 -3
34 1 34 10 0 21 -37 4 -73 -33z m31 -58 c7 -7 12 -23 11 -37 0 -23 -1 -24 -8
-6 -5 11 -7 23 -5 27 2 3 -8 11 -23 16 -23 9 -24 11 -7 11 11 1 25 -4 32 -11z"/>
<path d="M4760 265 c0 -15 52 -105 60 -105 12 0 -34 95 -50 105 -5 3 -10 4
-10 0z"/>
<path d="M4560 501 c0 -5 -2 -16 -5 -23 -4 -9 2 -14 15 -14 21 0 24 5 14 30
-7 17 -24 22 -24 7z"/>
<path d="M4230 249 c0 -5 5 -7 10 -4 6 3 10 8 10 11 0 2 -4 4 -10 4 -5 0 -10
-5 -10 -11z"/>
<path d="M8095 410 c3 -5 8 -10 11 -10 2 0 4 5 4 10 0 6 -5 10 -11 10 -5 0 -7
-4 -4 -10z"/>
<path d="M7917 300 c-6 -20 -9 -22 -16 -10 -8 11 -12 9 -20 -13 -14 -36 -14
-37 4 -37 26 0 51 33 45 60 l-6 25 -7 -25z"/>
<path d="M7950 295 c-10 -12 -10 -15 1 -15 8 0 5 -6 -7 -14 -10 -8 -15 -18
-11 -23 11 -10 37 25 37 49 0 22 -4 23 -20 3z"/>
<path d="M7701 174 c0 -11 3 -14 6 -6 3 7 2 16 -1 19 -3 4 -6 -2 -5 -13z"/>
<path d="M7666 163 c-6 -14 -5 -15 5 -6 7 7 10 15 7 18 -3 3 -9 -2 -12 -12z"/>
<path d="M7726 163 c-6 -14 -5 -15 5 -6 7 7 10 15 7 18 -3 3 -9 -2 -12 -12z"/>
<path d="M7786 165 c-3 -8 -1 -15 4 -15 6 0 10 7 10 15 0 8 -2 15 -4 15 -2 0
-6 -7 -10 -15z"/>
<path d="M5953 265 c0 -22 2 -30 4 -17 2 12 2 30 0 40 -3 9 -5 -1 -4 -23z"/>
<path d="M4327 233 c-4 -3 -7 -11 -7 -17 0 -6 5 -5 12 2 6 6 9 14 7 17 -3 3
-9 2 -12 -2z"/>
<path d="M5623 265 c0 -22 2 -30 4 -17 2 12 2 30 0 40 -3 9 -5 -1 -4 -23z"/>
<path d="M7586 301 c-4 -7 -5 -15 -2 -18 9 -9 19 4 14 18 -4 11 -6 11 -12 0z"/>
<path d="M3300 276 c0 -9 5 -16 10 -16 6 0 10 4 10 9 0 6 -4 13 -10 16 -5 3
-10 -1 -10 -9z"/>
<path d="M3268 263 c6 -2 12 -11 12 -19 0 -8 5 -14 11 -14 5 0 7 -4 4 -10 -3
-5 1 -10 9 -10 9 0 16 9 16 21 0 11 -5 17 -10 14 -6 -3 -13 1 -16 9 -3 9 -14
16 -23 15 -10 0 -11 -2 -3 -6z"/>
<path d="M4465 250 c-3 -5 -1 -10 4 -10 6 0 11 5 11 10 0 6 -2 10 -4 10 -3 0
-8 -4 -11 -10z"/>
<path d="M4460 206 c0 -9 5 -16 10 -16 6 0 10 4 10 9 0 6 -4 13 -10 16 -5 3
-10 -1 -10 -9z"/>
<path d="M4690 240 c0 -5 5 -10 11 -10 5 0 7 5 4 10 -3 6 -8 10 -11 10 -2 0
-4 -4 -4 -10z"/>
<path d="M4850 239 c0 -5 5 -7 10 -4 6 3 10 8 10 11 0 2 -4 4 -10 4 -5 0 -10
-5 -10 -11z"/>
<path d="M4374 118 c-5 -8 -2 -9 11 -4 15 5 16 4 5 -9 -7 -8 -8 -15 -2 -15 14
0 33 25 25 33 -10 11 -31 8 -39 -5z"/>
</g>
</svg>
