<?xml version="1.0" standalone="no"?>
<!DOCTYPE svg PUBLIC "-//W3C//DTD SVG 20010904//EN"
 "http://www.w3.org/TR/2001/REC-SVG-20010904/DTD/svg10.dtd">
<svg version="1.0" xmlns="http://www.w3.org/2000/svg"
 width="864.000000pt" height="1080.000000pt" viewBox="0 0 864.000000 1080.000000"
 preserveAspectRatio="xMidYMid meet">

<g transform="translate(0.000000,1080.000000) scale(0.100000,-0.100000)"
fill="#000000" stroke="none">
<path d="M0 5400 l0 -5400 2710 0 c2703 0 2710 0 2710 20 0 11 -4 20 -10 20
-5 0 -10 9 -10 20 0 11 5 20 10 20 6 0 10 7 10 15 0 8 -4 15 -10 15 -5 0 -10
-7 -10 -15 0 -8 -2 -15 -5 -15 -13 0 -55 50 -55 65 0 8 -4 15 -10 15 -5 0 -10
9 -10 20 0 11 -7 20 -15 20 -9 0 -15 9 -15 24 0 17 -9 27 -32 37 -37 15 -58
32 -58 48 0 6 -4 11 -10 11 -5 0 -10 10 -10 23 0 22 -31 57 -50 57 -6 0 -10 5
-10 11 0 6 -6 9 -14 6 -17 -7 -26 13 -26 60 0 37 -18 63 -44 63 -9 0 -16 8
-16 20 0 11 -7 20 -15 20 -23 0 -56 35 -50 52 4 10 -6 25 -24 41 -24 20 -31
34 -31 61 0 29 -4 36 -20 36 -17 0 -20 7 -20 40 0 28 -4 40 -15 40 -8 0 -17
14 -21 35 -4 21 -13 37 -25 40 -15 5 -19 16 -19 56 0 28 -6 57 -12 64 -7 8
-18 20 -24 28 -6 7 -13 46 -16 86 -3 40 -11 78 -17 84 -6 6 -11 35 -11 64 0
29 -4 53 -10 53 -5 0 -10 9 -10 20 0 11 5 20 10 20 6 0 10 9 10 20 0 17 -7 20
-40 20 -37 0 -40 2 -39 28 1 15 3 20 6 10 4 -14 13 -16 56 -11 29 3 55 8 58
12 4 3 19 83 34 176 14 94 33 203 41 243 8 41 11 78 8 83 -8 13 -70 11 -82 -4
-5 -6 -13 -38 -17 -71 -4 -32 -15 -99 -24 -149 l-17 -91 -18 125 c-26 187 -26
187 -41 202 -21 22 -54 187 -37 187 5 0 12 19 16 42 19 146 32 219 39 212 4
-4 7 0 7 8 0 9 7 21 15 28 21 17 19 29 -7 40 l-23 9 24 0 c14 1 33 -6 43 -15
30 -28 111 -30 151 -5 52 32 57 54 57 237 0 136 -3 171 -16 194 -18 29 -62 60
-88 60 -9 0 -16 5 -16 10 0 6 9 10 21 10 11 0 18 4 15 9 -3 4 3 16 14 26 10 9
22 37 26 60 3 24 12 46 20 49 8 3 14 12 14 21 0 8 4 15 9 15 10 0 51 74 51 92
0 6 8 18 18 27 25 23 62 102 62 132 0 22 72 164 91 179 3 3 9 26 13 52 7 47 6
48 -18 48 -14 0 -26 5 -26 10 0 12 6 12 44 0 319 -103 437 -140 626 -198 124
-39 290 -89 370 -112 80 -22 170 -50 201 -61 61 -21 96 -25 68 -9 -9 5 -27 36
-39 67 -12 32 -28 72 -35 88 -7 17 -20 55 -30 85 -9 30 -29 91 -45 135 -51
146 -118 358 -155 490 -20 72 -50 175 -67 230 -17 55 -31 104 -32 110 -1 5 -9
33 -18 60 -50 158 -58 187 -52 197 4 6 3 8 -3 5 -5 -3 -15 16 -22 44 -7 27
-31 102 -53 167 -34 101 -92 314 -129 474 -6 26 -8 56 -4 67 8 26 22 23 -325
66 -381 47 -499 68 -1020 180 l-55 12 340 170 c444 223 685 337 693 328 3 -3
-4 -34 -16 -68 -29 -82 -28 -112 3 -133 28 -18 216 -43 280 -37 124 11 350 48
364 59 2 2 -4 10 -13 19 -9 9 -16 29 -16 44 0 20 -15 43 -53 82 -67 70 -90
106 -83 132 7 26 -23 75 -72 118 -20 18 -52 53 -71 78 -19 25 -38 48 -41 51
-4 3 -13 16 -19 28 -7 13 -27 40 -45 60 -38 44 -61 109 -53 150 6 27 3 30 -23
34 -16 2 -36 0 -44 -4 -26 -14 -18 6 12 33 29 27 73 49 98 49 19 0 102 -95 92
-105 -2 -3 -23 5 -46 17 -57 28 -63 17 -11 -18 44 -30 79 -64 162 -157 47 -54
145 -127 295 -220 184 -115 369 -179 510 -176 57 1 14 14 -98 29 -70 10 -112
22 -158 46 -35 19 -67 33 -70 32 -17 -3 -40 15 -36 27 4 8 -5 15 -25 20 -16 3
-47 20 -67 36 -41 32 -50 35 -58 17 -3 -7 -3 -2 0 11 5 19 3 23 -9 18 -22 -8
-87 68 -87 103 0 14 -7 35 -15 46 -8 10 -15 28 -15 39 0 12 -9 38 -20 60 -11
22 -20 50 -20 63 0 12 -9 33 -20 45 -12 12 -23 31 -26 43 -3 12 -19 28 -35 34
-39 17 -37 33 4 26 17 -3 5 4 -28 15 -76 26 -160 36 -178 20 -14 -11 -27 -6
-27 11 0 5 16 16 36 24 30 12 48 13 117 3 96 -14 195 -13 214 2 9 8 29 3 76
-20 35 -17 73 -31 85 -31 12 0 22 -4 22 -10 0 -14 62 -44 83 -41 10 1 24 -3
32 -9 19 -16 58 -21 66 -8 4 6 9 2 14 -11 15 -49 32 -7 25 64 -3 31 -58 185
-76 213 -9 13 -25 27 -35 29 -10 3 -19 10 -19 15 0 6 -13 27 -30 48 -16 21
-30 40 -30 44 0 3 -15 37 -34 75 -36 75 -47 131 -48 250 -1 81 0 82 87 149
l30 23 -45 -22 c-70 -34 -155 -95 -184 -131 l-26 -33 0 28 c0 22 16 46 67 98
89 92 192 148 355 193 72 20 170 57 238 90 104 50 226 93 530 186 180 56 297
107 337 146 52 52 133 102 248 153 55 25 137 72 183 104 75 54 86 59 114 51
17 -5 34 -19 39 -31 6 -17 -3 -32 -56 -84 -36 -35 -65 -67 -65 -71 0 -18 72
-6 122 21 82 44 162 65 187 50 26 -17 34 -50 16 -68 -8 -8 -52 -36 -97 -62
-55 -31 -84 -53 -86 -66 -5 -31 31 -35 127 -14 144 32 178 32 209 5 26 -22 26
-24 12 -50 -12 -22 -33 -32 -120 -58 -123 -37 -130 -41 -130 -66 0 -32 30 -39
123 -31 99 9 137 5 154 -18 16 -21 16 -56 1 -69 -7 -5 -74 -19 -149 -30 -221
-34 -324 -83 -353 -169 -23 -67 -21 -75 32 -115 26 -20 60 -50 75 -66 25 -26
27 -32 16 -55 -23 -50 -106 -40 -198 27 -26 18 -96 61 -156 96 -61 34 -115 68
-120 75 -9 11 -29 11 -110 0 -128 -17 -175 -32 -282 -90 -105 -57 -144 -86
-243 -180 -93 -90 -192 -153 -293 -189 -97 -35 -110 -52 -110 -144 0 -55 10
-98 57 -237 95 -284 141 -360 270 -446 72 -48 98 -47 186 6 80 48 135 70 215
85 99 18 133 34 190 90 73 71 121 100 166 100 21 0 41 -4 44 -10 3 -5 23 -78
45 -162 76 -302 142 -473 231 -605 48 -71 53 -84 57 -144 2 -36 -2 -99 -9
-140 -7 -41 -12 -87 -11 -104 4 -136 1 -177 -14 -221 l-16 -49 33 -25 c88 -66
156 -140 231 -253 34 -51 34 -64 2 -207 -20 -87 -25 -130 -20 -175 7 -70 -8
-209 -28 -257 -8 -18 -33 -48 -56 -67 -42 -34 -77 -94 -80 -141 -5 -58 2 -81
49 -158 85 -140 99 -180 107 -322 5 -76 3 -99 -9 -115 -24 -31 -80 -25 -182
20 l-90 39 -162 4 c-95 3 -197 -1 -245 -7 -115 -17 -228 -43 -228 -54 0 -5 8
-6 18 -2 47 21 189 15 176 -7 -4 -6 -1 -14 7 -18 9 -6 10 -12 2 -22 -8 -10 -8
-20 2 -38 8 -14 14 -34 15 -46 0 -11 22 -43 48 -71 63 -66 122 -177 116 -218
-2 -16 -1 -24 2 -18 10 22 34 -12 34 -49 1 -36 48 -98 75 -98 8 0 15 -7 15
-15 0 -25 23 -65 37 -65 7 0 13 -4 13 -10 0 -5 -4 -10 -10 -10 -29 0 4 -78 36
-86 23 -6 23 -7 6 -29 -9 -13 -21 -20 -26 -17 -5 3 -6 0 -2 -7 4 -6 2 -19 -5
-28 -19 -22 -14 -335 6 -373 17 -33 49 -55 93 -64 17 -4 34 -12 37 -17 4 -5
11 -9 17 -9 7 0 7 4 0 13 -8 10 -3 16 21 27 18 8 34 13 36 11 2 -1 8 3 12 11
7 10 9 9 9 -4 0 -12 -8 -18 -21 -18 -21 0 -20 -1 5 -21 19 -15 26 -30 26 -55
0 -30 -3 -34 -25 -34 -28 0 -31 -16 -10 -44 8 -11 15 -28 15 -38 0 -10 6 -18
14 -18 9 0 15 -22 20 -77 3 -42 11 -80 16 -83 7 -4 8 -23 4 -48 -4 -27 -2 -47
5 -56 15 -18 -1 -30 -28 -21 -26 8 -33 -6 -47 -95 -7 -41 -22 -131 -34 -200
-11 -69 -23 -149 -27 -177 l-6 -53 47 0 c34 0 46 4 46 15 0 8 4 15 9 15 6 0 7
16 4 37 -5 31 -4 35 10 30 9 -3 16 -3 14 1 -2 8 7 12 28 12 25 0 17 -30 -7
-31 -22 -1 -22 -1 2 -8 20 -6 26 -15 31 -49 4 -32 3 -39 -7 -31 -7 6 -15 23
-17 37 -3 21 -4 19 -6 -10 0 -20 -8 -43 -16 -52 -12 -12 -15 -49 -15 -208 l0
-194 -30 -29 c-26 -25 -32 -27 -40 -15 -7 11 -10 3 -10 -27 0 -24 -4 -43 -10
-43 -16 0 -12 -70 5 -86 24 -24 18 -57 -12 -77 -26 -17 -26 -18 -5 -13 18 3
22 1 18 -10 -3 -8 -9 -22 -13 -31 -5 -12 -2 -15 10 -10 11 4 17 1 17 -8 0 -18
-20 -31 -21 -13 0 7 -4 4 -9 -7 -8 -18 -9 -18 -10 5 -2 14 -2 29 -1 34 3 15
-21 36 -43 36 -11 0 -34 -14 -49 -30 -16 -17 -36 -30 -45 -30 -12 0 -7 9 16
28 18 15 32 31 32 36 0 6 -15 -4 -33 -22 -27 -26 -33 -39 -32 -74 0 -36 3 -43
20 -43 30 0 35 -13 33 -100 l-2 -80 -6 85 c-6 77 -7 70 -10 -75 l-4 -160 -6
150 -5 150 -7 -92 c-4 -62 -13 -104 -27 -130 -22 -41 -27 -40 -11 2 5 14 6 33
2 43 -5 9 -18 37 -30 61 -21 41 -21 45 -5 63 11 13 16 36 16 78 -1 93 -38 134
-119 132 -53 0 -80 -15 -99 -52 -23 -44 -20 -131 6 -164 11 -14 16 -26 11 -26
-18 0 -42 -68 -42 -120 0 -85 31 -124 106 -136 27 -4 43 -9 36 -11 -6 -3 -10
-9 -6 -14 3 -5 -4 -9 -15 -9 -10 0 -21 6 -24 13 -3 9 -7 9 -20 -1 -9 -8 -21
-11 -26 -8 -5 4 -12 2 -16 -4 -4 -6 19 -11 62 -12 37 0 52 -3 33 -5 -93 -9
-95 -10 -96 -52 -1 -22 -7 -46 -13 -53 -6 -7 -22 -28 -37 -45 l-26 -33 561 0
561 0 0 5400 0 5400 -4320 0 -4320 0 0 -5400z m1668 5160 c118 -22 229 -108
280 -217 l27 -58 0 -535 0 -535 -32 -67 c-91 -192 -323 -277 -511 -187 -61 29
-152 121 -179 180 -41 86 -44 149 -41 649 l3 475 25 59 c14 35 45 82 76 116
99 106 216 146 352 120z m4022 -23 c81 -36 153 -106 192 -185 l33 -67 0 -540
0 -540 -29 -60 c-38 -76 -110 -149 -184 -183 -51 -24 -69 -27 -167 -27 -106 0
-112 1 -173 34 -75 41 -135 103 -170 179 l-27 57 0 545 c0 541 0 545 22 591
29 61 104 143 160 176 99 58 240 66 343 20z m-4887 -6 c75 -37 142 -104 179
-179 31 -63 33 -73 38 -205 3 -76 3 -141 1 -143 -2 -2 -59 -4 -127 -4 l-122 0
-4 126 -3 126 -37 34 c-33 30 -44 34 -93 34 -49 0 -60 -4 -93 -34 l-37 -34 -3
-492 c-2 -480 -2 -493 18 -525 52 -84 171 -85 228 -2 20 30 22 45 22 165 l0
132 126 0 126 0 -4 -167 c-5 -201 -16 -234 -113 -329 -118 -116 -280 -143
-431 -72 -66 30 -149 115 -182 185 l-27 58 -3 519 c-3 581 -3 578 67 678 38
54 138 130 194 147 18 6 77 9 132 7 80 -2 110 -7 148 -25z m1689 -86 c16 -55
65 -221 109 -370 45 -148 92 -306 105 -350 13 -44 34 -114 46 -155 l23 -75 5
525 5 525 118 3 117 3 0 -806 0 -806 -127 3 -128 3 -58 175 c-32 96 -103 315
-158 485 -55 171 -103 317 -107 325 -4 8 -9 -210 -12 -485 l-5 -500 -117 -3
-118 -3 0 806 0 806 136 -3 136 -3 30 -100z m1478 -15 l0 -120 -107 0 c-60 0
-117 -3 -128 -6 -20 -5 -20 -13 -20 -682 l0 -677 -120 0 -120 0 -3 683 -2 683
-125 -3 -125 -3 0 123 0 122 375 0 375 0 0 -120z m754 91 c75 -30 140 -89 172
-158 21 -44 27 -78 36 -192 18 -258 -8 -400 -92 -488 -16 -18 -30 -38 -30 -46
0 -8 36 -153 80 -322 44 -169 82 -323 86 -342 l6 -34 -128 3 -129 3 -62 255
c-35 140 -69 275 -76 300 l-13 45 -79 0 -80 0 -3 -303 -2 -303 -118 3 -117 3
-3 790 c-1 435 0 796 3 803 4 11 51 13 248 10 225 -4 246 -6 301 -27z m1646
-651 l0 -680 208 -2 207 -3 0 -120 0 -120 -327 -3 -328 -2 0 805 0 805 120 0
120 0 0 -680z m1054 560 c23 -63 62 -170 86 -237 24 -68 47 -123 51 -123 3 0
16 26 27 58 11 31 49 138 85 237 l64 180 132 3 c90 2 131 -1 131 -8 0 -6 -18
-55 -40 -108 -40 -99 -162 -408 -231 -586 l-38 -99 83 -211 c170 -431 226
-576 226 -586 0 -7 -45 -10 -127 -8 l-128 3 -90 248 c-49 136 -92 247 -95 247
-3 0 -46 -111 -96 -247 l-90 -248 -128 -3 -128 -3 6 27 c4 14 53 144 110 288
56 143 123 314 149 378 l45 118 -48 122 c-27 68 -96 243 -154 391 -58 147
-106 272 -106 278 0 6 48 9 131 7 l131 -3 42 -115z m-6714 -2159 c48 -34 61
-76 58 -183 -3 -81 -7 -101 -25 -126 l-22 -30 33 -134 c19 -73 31 -137 26
-141 -4 -5 -27 -7 -51 -5 l-43 3 -29 118 c-29 115 -30 117 -58 117 l-28 0 -3
-117 -3 -118 -45 0 -45 0 -3 310 c-1 170 0 316 3 324 8 21 201 7 235 -18z
m435 -21 l0 -45 -87 -3 -88 -3 0 -89 0 -90 65 0 65 0 0 -45 0 -45 -65 0 -65 0
0 -90 0 -89 88 -3 87 -3 0 -45 0 -45 -135 0 -135 0 -3 314 c-2 236 1 316 10
322 6 4 68 7 137 6 l126 -2 0 -45z m302 38 c7 -10 91 -500 106 -618 2 -12 -9
-15 -48 -15 l-50 0 -9 73 -9 72 -52 0 -53 0 -9 -72 -8 -73 -44 -3 c-24 -2 -47
0 -51 5 -5 4 0 53 10 108 10 55 32 188 49 295 18 107 36 205 41 218 8 19 17
22 64 22 31 0 58 -5 63 -12z m281 -266 l2 -271 83 -3 82 -3 0 -45 0 -45 -127
-3 -128 -3 0 319 c0 175 3 321 6 324 3 4 22 5 42 4 l37 -2 3 -272z m320 270
c9 -7 12 -78 10 -323 l-3 -314 -47 -3 -48 -3 0 320 0 320 23 4 c38 7 52 7 65
-1z m360 -47 c2 -36 -5 -69 -23 -115 -36 -90 -145 -372 -145 -376 0 -2 37 -4
83 -6 l82 -3 3 -48 3 -48 -138 3 -138 3 -3 40 c-2 31 17 90 83 258 47 121 85
225 85 233 0 11 -19 14 -85 14 l-85 0 0 43 c0 24 3 47 7 51 4 3 66 5 137 4
l131 -3 3 -50z m306 47 c5 -9 106 -603 106 -627 0 -13 -9 -16 -47 -13 l-48 3
-14 73 -14 72 -48 0 c-48 0 -48 0 -54 -37 -18 -111 -16 -108 -68 -111 -27 -2
-47 1 -47 7 0 16 100 614 105 629 5 13 120 18 129 4z m601 -42 l0 -45 -47 -3
-48 -3 -2 -272 -3 -272 -47 -3 -48 -3 0 275 0 276 -50 0 -50 0 0 50 0 51 148
-3 147 -3 0 -45z m175 -218 c5 -280 6 -282 55 -282 49 0 50 2 55 282 l5 263
24 3 c12 2 34 1 48 -3 l24 -6 -3 -269 c-3 -253 -4 -270 -24 -296 -38 -52 -71
-69 -130 -68 -62 0 -97 21 -129 75 -18 31 -20 55 -23 293 -3 187 0 261 8 266
6 4 28 7 48 6 l37 -1 5 -263z m1635 254 c51 -22 75 -68 75 -144 0 -63 -15
-107 -44 -131 -14 -11 -12 -18 17 -53 28 -35 32 -48 35 -112 5 -85 -9 -121
-62 -161 -94 -71 -224 -18 -243 99 l-6 36 44 0 c40 0 45 -4 59 -33 12 -26 22
-33 51 -35 52 -4 63 16 60 106 -1 41 -40 82 -76 82 -25 0 -26 3 -23 42 3 37 6
43 34 50 43 11 66 40 72 93 3 35 0 50 -13 65 -35 38 -89 16 -97 -40 -3 -22 -8
-25 -48 -25 l-45 0 3 40 c10 106 106 163 207 121z m389 -14 c17 -10 41 -33 53
-52 22 -32 23 -42 23 -245 0 -204 -1 -213 -23 -246 -12 -18 -38 -44 -57 -57
-30 -20 -44 -22 -124 -20 l-91 3 -3 310 c-1 170 0 315 3 322 7 20 179 8 219
-15z m-1323 -5 c63 -42 69 -68 69 -291 0 -181 -2 -204 -21 -242 -52 -108 -208
-108 -267 -1 -15 28 -17 62 -17 242 0 234 5 257 68 295 46 28 124 27 168 -3z
m372 12 c13 -6 36 -29 50 -52 22 -33 27 -53 27 -100 l0 -58 -47 3 -48 3 -3 46
c-4 57 -29 85 -67 75 -15 -4 -30 -17 -35 -32 -6 -14 -10 -103 -10 -197 0 -186
8 -217 53 -217 40 0 51 17 57 77 l5 58 48 3 47 3 0 -60 c0 -73 -9 -96 -50
-138 -45 -46 -105 -54 -167 -22 -78 41 -83 59 -83 302 0 222 3 240 52 283 12
12 30 24 38 27 27 10 108 7 133 -4z m-3788 -1354 l0 -40 -72 -3 -71 -3 -4 -57
c-5 -65 6 -97 29 -88 9 4 31 4 50 0 32 -6 34 -9 31 -43 -3 -36 -3 -36 -55 -39
l-51 -3 -4 -52 c-6 -96 -6 -96 75 -99 l72 -3 0 -35 0 -35 -115 0 -115 0 -3
260 c-1 143 0 266 3 273 3 9 32 12 117 10 l113 -3 0 -40z m141 37 c6 -4 30
-74 53 -157 23 -82 45 -157 49 -165 4 -8 9 62 12 155 l5 170 35 0 35 0 3 -272
2 -273 -43 0 -43 0 -50 155 c-27 85 -52 155 -56 155 -5 0 -8 -70 -8 -155 l0
-155 -40 0 -40 0 0 268 c0 148 3 272 7 275 9 9 65 9 79 -1z m500 0 c10 -6 94
-477 94 -524 0 -14 -9 -18 -39 -18 -44 0 -45 2 -56 83 l-6 48 -42 -3 -42 -3
-8 -62 -9 -63 -44 0 c-41 0 -44 2 -39 23 3 12 23 132 46 266 22 135 42 248 45
253 6 10 85 10 100 0z m351 -18 c37 -24 63 -74 63 -121 l0 -43 -45 0 -45 0 0
38 c0 21 -5 43 -12 50 -18 18 -56 14 -68 -7 -11 -22 -14 -320 -2 -337 11 -17
35 -22 60 -13 20 7 22 15 22 74 0 58 -2 65 -20 65 -17 0 -20 7 -20 39 0 37 1
39 40 45 22 3 52 3 65 0 25 -6 25 -8 25 -105 0 -64 -5 -112 -14 -134 -19 -45
-69 -75 -125 -75 -39 0 -49 5 -83 40 l-38 41 0 185 c0 142 3 192 14 213 34 65
120 87 183 45z m661 -1 c28 -17 60 -80 46 -92 -5 -5 -21 -11 -37 -15 -23 -5
-29 -2 -39 19 -15 34 -56 44 -75 20 -32 -45 -13 -88 73 -168 63 -58 84 -99 84
-166 0 -42 -5 -56 -29 -83 -24 -27 -36 -32 -87 -36 -50 -3 -63 -1 -88 19 -30
23 -56 74 -56 109 0 16 6 20 34 20 28 0 38 -6 55 -35 35 -60 91 -41 91 31 0
20 -19 46 -76 103 -42 42 -81 87 -86 101 -24 60 -3 147 41 175 41 25 107 25
149 -2z m368 3 c11 -47 2 -61 -44 -64 l-42 -3 0 -230 0 -229 -40 0 -40 0 -2
228 -3 227 -40 5 c-35 4 -40 9 -43 33 -7 55 -3 57 127 57 119 0 121 0 127 -24z
m-700 -2 c48 -32 54 -58 54 -255 0 -173 -1 -185 -22 -215 -27 -39 -56 -54
-104 -54 -45 0 -86 21 -110 57 -15 23 -19 53 -22 166 -6 193 2 243 43 284 29
29 40 33 84 33 31 0 62 -7 77 -16z m964 -7 c44 -39 50 -67 50 -243 0 -180 -8
-215 -55 -252 -36 -28 -99 -29 -143 -2 -56 34 -64 69 -60 269 3 158 5 179 23
203 27 36 51 47 110 47 38 0 56 -5 75 -22z m2340 -113 c0 -8 -4 -12 -10 -9 -5
3 -10 10 -10 16 0 5 5 9 10 9 6 0 10 -7 10 -16z m700 -274 c8 -5 12 -11 9 -14
-3 -3 -14 1 -25 9 -21 16 -8 20 16 5z m-4391 -715 c22 -21 26 -36 29 -98 4
-67 2 -76 -22 -104 -22 -26 -24 -33 -12 -40 49 -27 63 -162 24 -219 -27 -40
-56 -54 -109 -54 -85 0 -129 52 -129 150 0 59 22 120 42 120 15 0 8 24 -12 45
-28 30 -37 110 -17 157 23 55 69 81 132 74 34 -4 57 -13 74 -31z m-977 14 c13
-6 32 -22 43 -37 18 -24 20 -45 23 -220 l3 -193 -39 -40 -40 -39 -91 0 -91 0
0 270 0 270 85 0 c46 0 94 -5 107 -11z m368 -29 l0 -39 -72 -3 -73 -3 0 -70 0
-70 53 -3 52 -3 0 -39 0 -39 -52 -3 -53 -3 -3 -72 -3 -73 76 0 75 0 0 -40 0
-40 -115 0 -115 0 0 270 0 270 115 0 115 0 0 -40z m140 -190 l0 -230 70 0 70
0 0 -40 0 -40 -110 0 -110 0 0 270 0 270 40 0 40 0 0 -230z m-451 -1117 c23
-142 45 -266 47 -275 5 -15 -2 -18 -39 -18 l-45 0 -9 63 -8 62 -42 3 c-46 3
-46 3 -58 -80 l-6 -48 -40 0 c-33 0 -39 3 -39 21 0 23 78 496 85 517 3 7 24
12 58 12 l54 0 42 -257z m192 37 c-1 -118 1 -223 4 -233 6 -14 20 -17 76 -17
l69 0 0 -40 0 -40 -115 0 -115 0 0 268 c0 148 3 272 7 276 4 4 23 6 42 4 l34
-3 -2 -215z m459 192 c41 -30 62 -80 56 -134 -6 -57 -21 -87 -97 -200 -33 -47
-59 -89 -59 -92 0 -3 34 -6 75 -6 l75 0 0 -45 0 -46 -127 3 -128 3 -3 35 c-2
30 10 53 83 160 86 125 112 183 101 226 -15 60 -96 46 -96 -17 0 -29 -1 -30
-42 -27 -42 3 -43 4 -40 37 8 106 120 163 202 103z m324 7 c51 -40 56 -63 56
-257 0 -170 -1 -181 -23 -213 -40 -60 -102 -75 -166 -41 -62 33 -71 65 -71
255 0 190 8 224 62 257 44 27 107 26 142 -1z m3051 -2019 l0 -155 -24 -3 c-13
-2 -28 2 -32 10 -8 12 -2 268 7 296 2 7 14 12 26 10 23 -3 23 -5 23 -158z
m3158 153 c-7 -2 -19 -2 -25 0 -7 3 -2 5 12 5 14 0 19 -2 13 -5z m-25 -145 c2
35 5 42 22 42 14 0 20 -7 20 -23 0 -13 -4 -27 -9 -32 -5 -6 -11 -39 -14 -75
-3 -42 -2 -57 4 -42 11 29 19 28 19 -2 0 -28 -26 -42 -46 -25 -11 9 -14 43
-12 153 2 135 2 137 8 51 3 -49 7 -71 8 -47z m19 75 c-3 -10 -5 -4 -5 12 0 17
2 24 5 18 2 -7 2 -21 0 -30z m-6472 -254 c4 -12 32 -64 62 -115 42 -73 60 -94
76 -94 23 0 249 41 327 59 25 6 52 10 60 10 8 0 -52 -64 -134 -143 l-149 -144
131 -236 c73 -130 132 -241 132 -246 0 -9 -17 0 -198 110 -98 59 -107 71 -218
277 l-39 72 90 91 90 91 -50 -6 c-68 -7 -516 -45 -539 -45 -42 0 -3 11 115 33
l124 23 41 124 c23 69 44 133 47 143 7 23 24 21 32 -4z m3180 -19 c3 -5 1 -10
-4 -10 -6 0 -11 5 -11 10 0 6 2 10 4 10 3 0 8 -4 11 -10z m-3255 -548 c47 -31
87 -58 90 -60 4 -3 -51 -58 -252 -251 -49 -47 -91 -82 -94 -78 -3 3 23 97 59
209 36 112 68 213 72 226 9 29 15 27 125 -46z m6719 -289 c0 -13 -3 -23 -9
-23 -6 0 -9 23 -9 53 1 44 2 48 9 22 4 -16 8 -40 9 -52z m98 25 c-3 -7 -5 -2
-5 12 0 14 2 19 5 13 2 -7 2 -19 0 -25z m-3647 -39 c0 -6 -4 -7 -10 -4 -5 3
-10 11 -10 16 0 6 5 7 10 4 6 -3 10 -11 10 -16z m3657 -21 c-3 -8 -6 -5 -6 6
-1 11 2 17 5 13 3 -3 4 -12 1 -19z m-3650 -75 c-3 -10 -5 -2 -5 17 0 19 2 27
5 18 2 -10 2 -26 0 -35z m3660 5 c-3 -8 -6 -5 -6 6 -1 11 2 17 5 13 3 -3 4
-12 1 -19z m-3638 -78 c1 -13 0 -13 -9 0 -5 8 -9 24 -9 35 l0 20 9 -20 c5 -11
9 -27 9 -35z m-2489 -102 c-13 -10 -21 -20 -19 -21 2 -2 16 -8 32 -15 39 -17
50 -54 45 -151 -4 -73 -8 -87 -27 -103 -30 -23 -82 -23 -112 1 -22 18 -24 26
-24 121 0 98 1 103 26 123 15 12 30 32 33 44 7 22 30 33 55 24 11 -3 8 -9 -9
-23z m-1261 -53 c7 -7 12 -29 11 -51 -1 -22 -1 -57 0 -79 1 -22 3 -55 3 -74 2
-37 -19 -59 -47 -48 -12 5 -16 20 -16 62 0 73 -18 71 -22 -2 -3 -57 -3 -58
-33 -58 l-30 0 -3 124 c-1 69 -1 130 2 136 6 16 116 7 135 -10z m239 12 c6 -5
12 -27 12 -50 0 -23 5 -49 10 -57 7 -11 10 -1 10 36 0 60 17 87 51 82 22 -3
24 -7 21 -54 -2 -27 -8 -88 -15 -135 l-12 -84 -52 -3 c-60 -3 -56 -10 -74 128
-10 83 -28 151 -29 112 0 -7 -11 -17 -25 -22 -14 -5 -25 -16 -25 -25 0 -9 11
-20 25 -25 32 -12 32 -38 -1 -50 -32 -13 -31 -53 2 -58 22 -3 37 -32 25 -50
-3 -5 -31 -9 -61 -8 l-55 1 -3 124 c-1 69 0 131 2 138 6 14 170 14 194 0z
m262 -7 c17 -17 20 -33 20 -120 0 -87 -3 -103 -20 -120 -29 -29 -84 -27 -115
5 -23 22 -25 32 -25 113 0 75 3 93 21 116 26 33 88 37 119 6z m118 -93 c2 -99
4 -107 22 -107 16 0 20 -7 20 -31 l0 -30 -52 3 -53 3 -3 132 c-3 130 -2 132
20 136 13 2 28 3 33 2 6 -1 11 -47 13 -108z m130 -5 c1 -62 7 -112 12 -112 5
0 11 51 12 113 l3 112 30 0 30 0 3 -117 c2 -107 1 -119 -18 -138 -31 -31 -108
-23 -132 14 -8 12 -11 230 -3 237 2 3 17 4 32 3 l28 -1 3 -111z m262 98 c13
-13 20 -33 20 -60 0 -39 -1 -40 -35 -40 -33 0 -35 2 -35 35 0 19 -4 35 -10 35
-6 0 -10 -37 -10 -90 0 -53 4 -90 10 -90 6 0 10 14 10 30 0 28 3 30 35 30 33
0 35 -2 35 -32 0 -65 -81 -102 -137 -63 -41 29 -43 205 -2 246 26 26 92 26
119 -1z m118 -124 l-3 -131 -32 -3 -33 -3 0 135 c0 132 0 135 23 138 46 8 48
4 45 -136z m259 138 c15 -4 25 -19 34 -52 l13 -47 5 50 c5 45 8 50 31 50 l25
0 0 -135 0 -135 -30 0 c-22 0 -31 5 -34 20 -2 11 -8 31 -14 45 -10 24 -11 22
-16 -20 -5 -40 -9 -45 -31 -45 l-25 0 -3 124 c-3 156 -3 158 45 145z m-933
-300 c13 -5 16 -23 16 -94 0 -92 -4 -100 -51 -100 -17 0 -19 8 -19 100 0 92 2
100 19 100 11 0 26 -3 35 -6z m173 -29 c3 -29 2 -29 -9 -7 -6 13 -19 21 -27
20 -13 -3 -17 -20 -19 -81 -3 -72 -2 -77 18 -77 26 0 37 27 22 51 -16 25 -15
29 4 29 12 0 14 -10 12 -47 -3 -45 -5 -48 -32 -51 -39 -5 -46 10 -46 99 0 82
7 97 48 95 23 -1 27 -6 29 -31z m53 -66 c0 -64 -4 -98 -10 -94 -11 7 -14 178
-3 188 12 13 13 7 13 -94z m90 91 c0 -5 -4 -10 -10 -10 -6 0 -10 -35 -10 -85
0 -50 -4 -85 -10 -85 -6 0 -10 35 -10 85 0 50 -4 85 -10 85 -5 0 -10 5 -10 10
0 6 14 10 30 10 17 0 30 -4 30 -10z m-250 -90 c0 -49 -4 -90 -9 -90 -9 0 -15
155 -6 170 13 20 15 8 15 -80z m340 4 c12 -81 9 -119 -5 -75 -3 12 -12 21 -20
21 -8 0 -17 -9 -20 -21 -14 -44 -17 -6 -5 75 8 52 18 86 25 86 7 0 17 -34 25
-86z m60 2 c0 -80 1 -85 23 -89 19 -3 20 -4 5 -11 -40 -18 -48 -1 -48 94 0 53
4 90 10 90 6 0 10 -35 10 -84z m6370 -250 c0 -3 -4 -8 -10 -11 -5 -3 -10 -1
-10 4 0 6 5 11 10 11 6 0 10 -2 10 -4z m-451 -110 c7 -8 11 -30 9 -48 -3 -29
-6 -33 -32 -33 -24 0 -31 5 -37 27 -12 47 32 88 60 54z m331 -39 c0 -2 -8 -3
-18 -3 -10 0 -19 6 -19 13 0 8 6 9 19 2 10 -5 18 -11 18 -12z m-325 -188 c8
-37 -11 -79 -36 -79 -19 0 -29 19 -29 55 0 38 11 55 35 55 18 0 25 -7 30 -31z
m88 -126 c-7 -19 -53 -63 -65 -63 -17 0 -7 19 12 25 11 4 28 17 36 31 19 28
26 31 17 7z m127 -57 c0 -2 -9 -6 -20 -9 -11 -3 -18 -1 -14 4 5 9 34 13 34 5z"/>
<path d="M1530 10308 c-82 -42 -80 -28 -80 -556 0 -408 2 -468 16 -498 20 -41
45 -61 97 -75 33 -9 45 -7 85 13 84 42 82 27 82 556 0 504 -1 510 -57 550 -47
33 -91 36 -143 10z"/>
<path d="M5492 10323 c-34 -7 -88 -66 -96 -103 -3 -18 -6 -236 -6 -484 0 -421
1 -454 19 -486 24 -46 72 -73 127 -72 52 0 87 20 114 65 19 31 20 54 20 507 0
453 -1 476 -20 507 -33 54 -93 80 -158 66z"/>
<path d="M4414 10287 c-2 -7 -3 -120 -2 -252 l3 -240 91 -3 c80 -2 94 0 125
20 60 41 69 73 69 243 0 170 -11 204 -75 231 -45 18 -203 20 -211 1z"/>
<path d="M570 8095 l0 -105 39 0 c51 0 64 18 69 96 6 85 -12 114 -68 114 l-40
0 0 -105z"/>
<path d="M1381 8115 c-1 -5 -8 -53 -16 -105 -8 -52 -15 -98 -15 -102 0 -5 16
-8 35 -8 35 0 36 1 30 33 -3 17 -12 68 -19 112 -8 44 -14 76 -15 70z"/>
<path d="M2647 8100 c-12 -50 -29 -191 -24 -196 3 -3 18 -4 34 -2 l28 3 -16
110 c-10 73 -18 102 -22 85z"/>
<path d="M5390 7975 l0 -225 39 0 c66 0 71 15 71 227 0 170 -1 184 -20 203
-12 12 -33 20 -55 20 l-35 0 0 -225z"/>
<path d="M4067 8182 c-15 -16 -17 -46 -17 -210 0 -205 4 -222 53 -222 50 1 52
6 55 214 3 186 2 196 -17 215 -26 26 -53 27 -74 3z"/>
<path d="M1356 6753 c-4 -32 -10 -73 -13 -90 -5 -30 -3 -33 19 -33 14 0 27 2
30 5 6 6 -16 163 -24 170 -3 3 -9 -20 -12 -52z"/>
<path d="M1986 6858 c-13 -18 -16 -53 -16 -170 0 -135 2 -150 20 -168 11 -11
25 -20 30 -20 6 0 19 9 30 20 18 18 20 33 20 168 0 157 -9 192 -50 192 -10 0
-26 -10 -34 -22z"/>
<path d="M2946 6864 c-13 -13 -16 -43 -16 -174 0 -158 0 -160 24 -175 19 -13
29 -14 45 -5 20 10 21 19 21 178 0 173 -4 192 -41 192 -10 0 -25 -7 -33 -16z"/>
<path d="M1588 5779 c-21 -12 -25 -98 -6 -117 19 -19 66 -15 78 7 16 31 12 86
-8 104 -21 19 -39 21 -64 6z"/>
<path d="M1580 5531 c-27 -52 -2 -131 43 -131 23 0 47 39 47 78 0 49 -16 72
-50 72 -19 0 -33 -7 -40 -19z"/>
<path d="M629 5776 c-2 -2 -3 -88 -1 -190 l3 -186 28 0 c55 0 61 20 61 193 0
128 -3 158 -16 171 -14 14 -64 22 -75 12z"/>
<path d="M688 4595 c-3 -5 -9 -37 -13 -69 -4 -33 -9 -65 -11 -71 -3 -7 6 -15
21 -17 15 -3 28 -1 31 6 6 16 -21 163 -28 151z"/>
<path d="M1677 4682 c-30 -6 -37 -46 -37 -198 0 -131 2 -146 20 -164 24 -24
30 -24 56 -6 17 13 19 29 22 152 5 192 -6 229 -61 216z"/>
<path d="M2098 1338 c-9 -26 -8 -154 1 -168 17 -25 24 13 18 96 -5 75 -11 96
-19 72z"/>
<path d="M800 1304 c0 -14 4 -23 10 -19 6 3 10 15 10 26 0 10 -4 19 -10 19 -5
0 -10 -12 -10 -26z"/>
<path d="M1307 1333 c-11 -11 -8 -173 3 -173 6 0 10 37 10 90 0 90 -1 96 -13
83z"/>
<path d="M1287 1064 c-4 -4 -7 -41 -7 -81 0 -71 1 -74 23 -71 21 3 22 8 22 78
0 60 -3 75 -15 78 -9 1 -19 0 -23 -4z"/>
<path d="M1697 1001 c-10 -47 -9 -51 8 -51 16 0 18 19 6 60 -7 24 -7 24 -14
-9z"/>
<path d="M7668 353 c7 -3 16 -2 19 1 4 3 -2 6 -13 5 -11 0 -14 -3 -6 -6z"/>
<path d="M7661 7906 c7 -7 110 -66 114 -66 2 0 2 6 -1 14 -3 8 -27 24 -54 35
-45 20 -69 26 -59 17z"/>
<path d="M7800 7836 c0 -2 8 -10 18 -17 15 -13 16 -12 3 4 -13 16 -21 21 -21
13z"/>
<path d="M7846 7796 c3 -8 13 -17 22 -21 13 -5 13 -2 -3 15 -21 24 -26 25 -19
6z"/>
<path d="M7890 7770 c0 -5 15 -17 33 -26 l32 -16 -29 26 c-32 29 -36 30 -36
16z"/>
<path d="M7585 6878 c-11 -7 -53 -41 -94 -76 -40 -35 -89 -70 -110 -78 -20 -8
-45 -19 -56 -24 -11 -4 -42 -11 -68 -14 -82 -10 -177 -60 -177 -93 0 -10 6 -8
21 6 17 16 91 40 172 56 23 5 97 -24 97 -37 0 -6 -16 -7 -37 -4 -21 4 -45 2
-53 -4 -12 -8 -11 -10 6 -10 15 0 23 -8 26 -24 4 -17 1 -23 -9 -19 -18 7 -16
-2 4 -22 15 -16 15 -18 0 -26 -12 -7 -15 -18 -10 -39 3 -17 3 -30 -1 -30 -5 0
-47 58 -73 103 -11 20 -12 20 -18 -5 -15 -59 60 -143 148 -167 30 -9 47 -19
47 -29 0 -8 3 -12 7 -9 3 4 14 0 24 -9 57 -51 132 60 145 216 l5 55 -20 -72
c-25 -90 -38 -111 -81 -129 -34 -14 -35 -14 -69 21 -27 26 -31 35 -18 35 26 0
21 14 -13 33 -16 10 -30 21 -30 25 0 4 23 18 51 31 48 22 51 25 46 54 -3 18 1
46 8 64 l13 31 -36 -5 c-35 -6 -36 -5 -22 12 8 10 29 24 47 32 18 7 53 34 78
60 37 39 47 45 55 33 7 -12 10 -11 15 5 4 11 11 28 16 37 5 10 9 20 9 23 0 9
-24 5 -45 -7z"/>
<path d="M7581 6723 c1 -78 6 -74 12 10 2 31 0 57 -5 57 -4 0 -8 -30 -7 -67z"/>
<path d="M6726 6415 c-15 -8 -47 -22 -70 -30 -29 -10 -34 -14 -18 -15 28 0
122 39 122 51 0 12 0 12 -34 -6z"/>
<path d="M7292 5713 c-24 -12 -33 -24 -37 -52 -4 -20 -9 -47 -12 -61 -3 -14
-5 -64 -5 -112 1 -56 -4 -99 -13 -122 -11 -26 -12 -42 -5 -61 6 -15 10 -40 10
-56 0 -17 4 -28 9 -25 18 12 30 -80 15 -118 -6 -15 -8 -15 -21 1 -13 17 -14
17 -5 -2 6 -10 8 -43 5 -72 -4 -39 -1 -59 11 -77 9 -14 16 -32 16 -40 0 -22
16 -27 17 -6 1 11 -2 22 -8 25 -5 4 -9 15 -9 26 0 10 -4 19 -10 19 -5 0 -10 7
-10 15 0 8 4 15 9 15 15 0 91 -93 91 -112 0 -9 10 -19 23 -22 12 -3 1 -3 -25
-2 -47 3 -61 -5 -36 -20 7 -4 27 -7 45 -6 24 2 33 -2 33 -13 0 -8 -7 -15 -16
-15 -8 0 -12 5 -9 10 3 6 -1 10 -9 10 -23 0 -20 -13 6 -29 16 -10 23 -10 26
-2 2 6 14 11 27 11 13 0 39 16 61 39 31 30 50 40 89 45 28 5 55 11 60 16 22
17 201 80 229 80 9 0 38 6 64 14 26 8 64 17 85 21 40 6 49 24 18 32 -21 5 -44
50 -40 79 6 45 -42 164 -88 218 -18 21 -31 42 -28 46 2 3 -35 32 -83 63 -97
63 -147 97 -165 112 -36 30 -99 75 -152 107 -66 40 -112 46 -163 21z m133
-106 c17 -7 63 -34 103 -62 129 -88 186 -125 217 -140 50 -24 85 -51 117 -89
24 -30 28 -39 18 -51 -10 -12 -8 -25 6 -65 10 -27 22 -50 26 -50 19 0 6 -39
-14 -45 -13 -4 -43 -16 -68 -27 -49 -22 -170 -37 -170 -21 0 14 26 34 82 62
46 25 66 55 48 76 -5 6 -7 28 -3 48 12 79 -44 133 -225 213 -46 21 -53 22 -59
8 -3 -8 4 -35 16 -58 33 -66 28 -91 -39 -197 -50 -79 -59 -101 -60 -140 0 -45
-13 -69 -37 -69 -18 0 -16 44 6 123 18 66 18 68 0 77 -28 15 -40 77 -38 198 0
66 -4 118 -11 131 -18 35 -9 74 20 82 33 9 30 9 65 -4z"/>
<path d="M7190 5281 c0 -11 5 -23 10 -26 6 -3 10 3 10 14 0 11 -4 23 -10 26
-5 3 -10 -3 -10 -14z"/>
<path d="M7180 5010 c-8 -25 -25 -55 -37 -68 -13 -13 -23 -22 -23 -20 0 2 4
18 9 36 5 17 8 32 6 32 -2 0 -20 -34 -39 -75 -23 -48 -36 -91 -36 -116 0 -50
29 -115 67 -151 34 -33 127 -66 205 -75 57 -6 58 -5 93 33 19 21 35 43 35 50
0 7 11 26 25 42 31 37 31 40 1 35 -15 -3 -50 8 -91 29 -104 51 -179 148 -194
247 l-6 46 -15 -45z"/>
<path d="M7865 4979 c-66 -13 -126 -35 -123 -43 4 -11 -18 -23 -56 -31 -20 -4
-26 -9 -18 -17 10 -10 71 5 97 24 6 4 29 11 50 16 22 5 49 13 60 17 14 5 11 0
-10 -19 l-30 -27 45 28 c37 22 60 28 135 33 50 3 97 10 107 15 20 12 -197 15
-257 4z"/>
<path d="M7804 4878 l-19 -23 23 19 c12 11 22 21 22 23 0 8 -8 2 -26 -19z"/>
<path d="M7225 3750 c-3 -5 -1 -10 4 -10 6 0 11 5 11 10 0 6 -2 10 -4 10 -3 0
-8 -4 -11 -10z"/>
<path d="M4967 2980 c-2 -8 -2 -123 0 -255 l3 -240 38 0 37 0 3 93 c2 80 5 92
21 92 14 0 22 -19 40 -95 l24 -95 37 0 c20 0 39 2 42 5 3 3 -6 51 -19 105 -24
95 -25 101 -9 134 11 23 16 61 16 115 0 74 -2 83 -27 111 -26 28 -35 31 -115
38 -74 7 -87 5 -91 -8z m151 -147 c3 -53 0 -63 -17 -72 -39 -21 -51 -4 -51 71
l0 69 33 -3 c32 -3 32 -3 35 -65z"/>
<path d="M7560 2735 l0 -255 40 0 40 0 0 94 0 93 51 5 c38 4 58 12 77 32 25
24 27 34 30 119 3 82 1 95 -18 119 -25 33 -74 48 -157 48 l-63 0 0 -255z m144
149 c38 -37 7 -137 -41 -130 -15 2 -18 14 -21 74 -3 71 -2 72 22 72 13 0 32
-7 40 -16z"/>
<path d="M5305 2947 c-41 -41 -48 -88 -42 -265 5 -140 16 -166 82 -191 32 -13
43 -13 78 0 68 24 82 54 82 172 l0 102 -60 0 -60 0 -3 -32 c-2 -25 1 -33 18
-38 18 -6 21 -13 18 -62 -4 -66 -26 -90 -55 -60 -16 16 -18 36 -16 164 1 80 6
150 12 156 5 5 21 7 35 3 23 -6 26 -12 26 -46 l0 -40 40 0 c27 0 43 5 46 15
12 30 -8 89 -41 122 -28 28 -40 33 -80 33 -40 0 -52 -5 -80 -33z"/>
<path d="M5627 2938 c-4 -24 -20 -128 -37 -232 -38 -242 -39 -228 7 -224 37 3
38 4 45 52 8 59 17 69 54 64 27 -3 30 -7 38 -60 l9 -58 39 0 c21 0 38 3 38 6
0 8 -69 436 -76 467 -5 25 -9 27 -58 27 l-53 0 -6 -42z m78 -195 c7 -62 6 -63
-17 -63 -24 0 -24 0 -14 70 5 39 13 67 17 63 4 -5 10 -36 14 -70z"/>
<path d="M5882 2733 l3 -248 35 0 35 0 3 145 4 145 47 -145 47 -145 40 0 39 0
3 248 2 247 -40 0 -39 0 -3 -152 -3 -153 -44 153 -44 152 -44 0 -43 0 2 -247z"/>
<path d="M6202 2733 l3 -248 35 0 35 0 3 248 2 247 -40 0 -40 0 2 -247z"/>
<path d="M6340 2940 l0 -40 65 0 c69 0 70 -1 55 -28 -29 -53 -119 -306 -121
-343 l-4 -44 108 -3 107 -3 0 40 0 40 -64 3 -65 3 64 165 c43 109 65 179 65
208 l0 42 -105 0 -105 0 0 -40z"/>
<path d="M6685 2968 c-8 -28 -75 -436 -75 -461 0 -24 4 -27 34 -27 37 0 40 3
51 78 7 42 8 43 43 40 35 -3 36 -4 47 -58 10 -54 11 -55 48 -58 21 -2 37 1 37
7 0 12 -67 423 -76 464 -5 25 -9 27 -55 27 -31 0 -51 -5 -54 -12z m69 -231 c7
-57 7 -57 -19 -57 -20 0 -25 4 -21 18 2 9 8 46 12 82 8 72 15 61 28 -43z"/>
<path d="M6930 2730 l0 -250 74 0 c60 0 79 4 107 23 52 35 61 76 57 255 l-3
154 -37 34 c-36 33 -41 34 -118 34 l-80 0 0 -250z m148 158 c8 -8 12 -58 12
-160 0 -135 -2 -148 -19 -158 -11 -5 -29 -10 -40 -10 -20 0 -21 5 -21 170 l0
170 28 0 c15 0 33 -5 40 -12z"/>
<path d="M7263 2945 l-34 -34 3 -185 3 -184 28 -26 c55 -51 143 -42 184 21 15
23 18 52 20 185 2 87 -2 169 -7 184 -19 49 -59 74 -120 74 -35 0 -48 -6 -77
-35z m106 -59 c8 -9 11 -61 9 -161 -3 -130 -5 -149 -21 -159 -15 -9 -22 -7
-38 13 -17 20 -19 39 -19 153 0 71 5 138 10 149 12 22 43 25 59 5z"/>
<path d="M7905 1989 c-44 -3 -89 -5 -99 -3 -29 5 -46 -14 -46 -52 0 -33 1 -34
40 -34 l40 0 0 -202 c0 -112 4 -209 9 -216 5 -8 22 -12 42 -10 l34 3 3 208 c3
221 1 214 50 208 25 -4 38 17 34 53 -2 20 -9 39 -16 43 -6 5 -47 6 -91 2z"/>
<path d="M7661 1981 l-25 -7 -4 -246 -4 -246 39 -4 c22 -3 41 0 45 6 9 13 11
468 2 490 -7 17 -15 18 -53 7z"/>
<path d="M4918 1957 c-44 -37 -48 -56 -48 -227 0 -174 7 -202 54 -234 14 -9
45 -16 72 -16 39 0 51 5 80 34 l34 34 0 182 0 182 -34 34 c-29 29 -41 34 -82
34 -36 0 -56 -6 -76 -23z m97 -73 c14 -14 16 -38 13 -161 -2 -114 -6 -146 -18
-153 -8 -5 -17 -10 -20 -10 -3 0 -12 5 -20 10 -12 7 -16 39 -18 153 -3 123 -1
147 13 161 9 9 20 16 25 16 5 0 16 -7 25 -16z"/>
<path d="M5170 1731 c0 -138 3 -251 8 -253 4 -2 51 -2 105 0 l98 3 -3 37 -3
37 -62 3 -63 3 0 209 0 210 -40 0 -40 0 0 -249z"/>
<path d="M5422 1768 c3 -195 5 -215 23 -240 55 -75 180 -57 205 29 7 24 10
110 8 228 l-3 190 -37 3 -38 3 -2 -202 c-3 -180 -5 -203 -20 -213 -13 -8 -23
-8 -35 0 -16 10 -18 33 -21 213 l-2 201 -41 0 -40 0 3 -212z"/>
<path d="M5795 1971 c-11 -5 -31 -21 -45 -36 -24 -26 -25 -31 -28 -196 -3
-157 -2 -172 17 -203 54 -87 182 -67 212 34 6 19 9 49 7 65 -3 27 -7 30 -40
33 -38 3 -38 3 -38 -33 0 -45 -15 -75 -38 -75 -37 0 -42 20 -42 170 0 150 5
170 42 170 21 0 38 -29 38 -65 0 -29 19 -40 55 -31 20 5 25 13 25 37 0 38 -22
89 -48 112 -23 21 -87 31 -117 18z"/>
<path d="M6014 1967 c-2 -7 -3 -118 -2 -247 l3 -235 38 -3 37 -3 0 250 0 251
-35 0 c-20 0 -38 -6 -41 -13z"/>
<path d="M6230 1972 c-35 -16 -60 -40 -70 -66 -16 -43 -13 -320 5 -362 26 -62
126 -83 178 -37 38 35 47 75 47 223 0 148 -9 188 -48 223 -22 20 -87 31 -112
19z m70 -91 c5 -11 10 -79 10 -151 0 -72 -5 -140 -10 -151 -13 -23 -55 -25
-64 -3 -3 9 -6 82 -6 164 0 109 3 150 13 153 26 11 47 6 57 -12z"/>
<path d="M6450 1730 l0 -251 37 3 36 3 -1 138 c-2 129 7 172 23 110 3 -16 22
-79 42 -141 l36 -113 41 3 41 3 0 245 0 245 -37 3 -38 3 0 -147 c0 -81 -3
-144 -7 -140 -5 4 -26 69 -48 144 l-40 137 -43 3 -42 3 0 -251z"/>
<path d="M6905 1968 c-3 -7 -4 -119 -2 -248 l2 -235 72 -3 c142 -6 163 27 163
247 0 176 -9 209 -63 234 -43 21 -165 24 -172 5z m143 -81 c6 -7 12 -72 13
-154 3 -156 -4 -176 -50 -171 l-26 3 -3 168 -2 167 29 0 c15 0 33 -6 39 -13z"/>
<path d="M7200 1730 l0 -250 40 0 40 0 0 250 0 250 -40 0 -40 0 0 -250z"/>
<path d="M7398 1964 c-51 -27 -58 -57 -58 -234 0 -124 3 -168 15 -190 28 -55
105 -76 165 -45 48 25 60 61 60 175 l0 101 -62 -3 c-63 -3 -63 -3 -66 -36 -3
-27 1 -34 22 -42 21 -7 26 -16 26 -42 0 -70 -31 -106 -65 -78 -23 19 -22 302
1 321 24 19 47 -1 59 -50 9 -40 10 -42 45 -39 32 3 35 6 38 40 5 55 -21 106
-62 123 -44 19 -83 18 -118 -1z"/>
<path d="M8101 1464 c-6 -15 -9 -29 -7 -32 3 -2 10 8 16 23 14 36 7 43 -9 9z"/>
<path d="M5587 723 c-4 -3 -7 -64 -7 -135 l0 -128 45 0 c39 0 45 3 45 20 0 29
30 38 47 14 18 -24 12 -152 -7 -164 -19 -12 -40 -1 -51 26 -6 17 -16 24 -36
24 -45 0 -53 -11 -43 -54 12 -55 39 -78 98 -84 95 -9 132 38 132 167 0 47 -5
99 -12 117 -13 38 -52 59 -98 52 -28 -4 -30 -3 -30 29 l0 33 65 0 65 0 0 45 0
45 -103 0 c-57 0 -107 -3 -110 -7z"/>
<path d="M5909 715 c-30 -16 -52 -62 -47 -96 2 -19 9 -23 38 -24 28 0 35 4 40
25 4 18 14 26 33 28 21 3 28 -2 33 -24 11 -43 -7 -78 -44 -89 -30 -9 -33 -12
-30 -45 2 -26 8 -36 23 -38 34 -7 45 -23 45 -67 0 -68 -48 -88 -70 -29 -9 24
-14 26 -46 21 -20 -4 -38 -8 -41 -11 -2 -2 1 -22 7 -44 16 -61 56 -86 127 -80
47 4 60 10 79 34 42 52 43 147 3 199 l-20 25 20 26 c24 30 29 106 10 147 -23
51 -104 72 -160 42z"/>
<path d="M6187 724 c-4 -4 -7 -65 -7 -136 l0 -128 38 0 c32 0 41 5 50 25 26
56 62 18 62 -65 0 -28 -5 -60 -10 -71 -15 -26 -53 -24 -65 4 -7 14 -19 22 -37
23 -45 2 -53 -9 -40 -54 15 -50 41 -72 91 -79 82 -11 129 30 138 122 9 85 -5
164 -34 193 -21 21 -31 24 -69 18 l-44 -6 0 35 0 34 68 3 67 3 0 40 0 40 -101
3 c-55 1 -103 0 -107 -4z"/>
<path d="M6514 720 c-11 -4 -29 -21 -40 -37 -16 -24 -19 -50 -22 -186 -3 -109
0 -168 8 -188 31 -73 122 -93 181 -41 29 26 32 35 37 104 8 130 -27 187 -108
174 l-40 -6 0 39 c0 62 42 94 60 46 8 -20 16 -25 44 -25 44 0 51 11 36 56 -20
59 -94 90 -156 64z m74 -308 c3 -72 -9 -98 -39 -81 -15 7 -19 21 -19 60 0 59
14 92 38 87 13 -3 18 -17 20 -66z"/>
<path d="M6790 723 c-25 -10 -49 -44 -56 -79 -8 -42 0 -54 37 -54 24 0 32 6
40 30 14 39 55 43 65 5 11 -43 -4 -75 -42 -91 -31 -13 -35 -18 -32 -47 2 -23
9 -33 23 -35 35 -7 45 -23 45 -72 0 -41 -3 -49 -22 -53 -24 -7 -48 8 -48 29 0
20 -17 26 -50 19 -44 -10 -42 -55 4 -101 28 -28 42 -34 76 -34 53 0 103 30
120 70 19 46 8 135 -20 164 l-22 25 21 27 c16 20 21 41 21 85 0 51 -3 61 -31
88 -25 25 -38 31 -72 30 -23 0 -49 -3 -57 -6z"/>
<path d="M7014 717 c-2 -7 -3 -67 -2 -133 l3 -119 38 -3 c32 -3 38 0 47 22 5
14 16 26 24 26 24 0 36 -34 36 -103 0 -68 -6 -77 -51 -77 -12 0 -19 7 -19 19
0 27 -15 34 -51 26 -30 -7 -31 -9 -26 -48 8 -57 34 -79 100 -85 49 -4 57 -2
88 26 l34 30 0 117 c0 117 0 117 -29 142 -25 21 -36 24 -71 20 -41 -6 -41 -6
-43 28 l-3 34 73 3 73 3 0 40 0 40 -108 3 c-83 2 -109 0 -113 -11z"/>
<path d="M7297 723 c-4 -3 -7 -64 -7 -135 l0 -128 44 0 c39 0 45 3 48 23 2 14
10 22 23 22 18 0 20 -7 20 -85 0 -81 -1 -85 -22 -88 -17 -3 -26 3 -33 23 -9
23 -15 26 -47 23 -32 -3 -38 -7 -41 -28 -1 -14 7 -40 18 -58 27 -43 74 -63
123 -52 76 17 97 56 97 180 0 124 -21 159 -97 160 -41 0 -43 1 -43 30 l0 30
64 0 c70 0 76 5 68 63 l-4 27 -102 0 c-57 0 -106 -3 -109 -7z"/>
<path d="M5387 604 c-4 -4 -7 -27 -7 -51 l0 -43 -50 0 c-49 0 -50 -1 -50 -30
0 -17 5 -30 13 -31 6 0 28 -1 47 -2 35 -2 35 -3 35 -47 0 -45 0 -45 35 -45 34
0 35 1 40 45 5 45 5 45 45 46 38 0 40 2 43 32 3 32 3 32 -42 32 l-45 0 -3 48
c-3 42 -6 47 -28 50 -14 2 -29 0 -33 -4z"/>
<path d="M7817 553 c-12 -12 -7 -44 8 -60 22 -22 26 -13 14 30 -11 39 -12 41
-22 30z"/>
<path d="M7821 434 c0 -11 3 -14 6 -6 3 7 2 16 -1 19 -3 4 -6 -2 -5 -13z"/>
</g>
</svg>
