<?xml version="1.0" standalone="no"?>
<!DOCTYPE svg PUBLIC "-//W3C//DTD SVG 20010904//EN"
 "http://www.w3.org/TR/2001/REC-SVG-20010904/DTD/svg10.dtd">
<svg version="1.0" xmlns="http://www.w3.org/2000/svg"
 width="1080.000000pt" height="1080.000000pt" viewBox="0 0 1080.000000 1080.000000"
 preserveAspectRatio="xMidYMid meet">

<g transform="translate(0.000000,1080.000000) scale(0.100000,-0.100000)"
fill="#000000" stroke="none">
<path d="M0 5400 l0 -5400 5400 0 5400 0 0 5400 0 5400 -5400 0 -5400 0 0
-5400z m6367 4578 c-1 -51 -3 -12 -3 87 0 99 2 141 3 93 2 -48 2 -129 0 -180z
m0 -230 c-2 -18 -4 -6 -4 27 0 33 2 48 4 33 2 -15 2 -42 0 -60z m0 -95 c-3
-10 -5 -4 -5 12 0 17 2 24 5 18 2 -7 2 -21 0 -30z m-1320 -115 c-2 -18 -4 -4
-4 32 0 36 2 50 4 33 2 -18 2 -48 0 -65z m-2627 -513 c6 -8 9 -19 5 -25 -8
-12 -45 -13 -64 -1 -12 8 -12 12 -2 25 17 20 45 21 61 1z m308 6 c9 -1 12 -35
12 -136 l0 -135 -30 0 c-20 0 -30 5 -30 16 0 14 -2 14 -22 0 -13 -9 -43 -16
-71 -16 -40 0 -53 5 -78 29 -17 17 -29 40 -29 55 0 87 73 125 178 91 21 -7 22
-5 22 48 0 47 3 55 18 52 9 -2 23 -4 30 -4z m3651 0 c21 -13 5 -41 -23 -41
-28 0 -40 14 -32 35 6 17 34 19 55 6z m1757 -1 c10 0 14 -14 14 -51 0 -49 1
-51 23 -44 54 18 102 17 127 -3 21 -17 25 -30 28 -96 l4 -76 -34 0 -35 0 -2
67 c-3 80 -13 97 -54 89 -49 -10 -57 -23 -57 -92 l0 -64 -30 0 -30 0 0 141 c0
125 2 140 16 135 9 -3 22 -6 30 -6z m324 -5 c16 -19 4 -35 -25 -35 -27 0 -39
14 -31 35 7 19 40 19 56 0z m1090 0 c16 -19 4 -35 -25 -35 -27 0 -39 14 -31
35 7 19 40 19 56 0z m-8035 -24 c53 -24 76 -51 81 -98 4 -27 -1 -47 -15 -70
-32 -50 -73 -66 -183 -71 l-98 -4 0 131 0 131 88 0 c63 0 98 -6 127 -19z
m2227 -53 c46 -4 49 -28 3 -28 l-36 0 3 -62 c3 -63 3 -63 36 -66 20 -2 32 -9
32 -18 0 -10 -13 -14 -49 -14 -67 0 -81 16 -81 91 0 52 -2 59 -20 59 -13 0
-20 7 -20 20 0 11 3 19 8 19 21 -4 32 3 32 20 0 12 10 23 28 29 25 8 27 7 30
-19 3 -23 9 -28 34 -31z m5144 2 c28 0 34 -4 34 -21 0 -17 -5 -20 -32 -17 -32
3 -33 1 -36 -36 -5 -65 4 -86 38 -86 20 0 30 -5 30 -15 0 -19 -92 -21 -108 -2
-6 7 -12 42 -14 77 -3 57 -5 65 -23 65 -21 0 -28 29 -7 31 6 1 17 2 22 3 6 0
10 9 10 19 0 11 10 24 23 29 20 9 22 7 25 -18 3 -26 7 -29 38 -29z m-7067 -15
c33 -17 41 -39 41 -117 0 -55 -1 -58 -24 -58 -13 0 -27 7 -30 16 -5 14 -8 14
-28 0 -30 -21 -96 -20 -120 1 -43 38 -6 83 78 94 65 9 72 13 53 35 -10 13 -25
15 -66 11 -40 -4 -53 -2 -53 8 0 7 6 16 13 18 26 11 109 6 136 -8z m282 6 c4
0 20 -32 35 -71 16 -38 31 -70 34 -70 3 0 22 33 41 73 29 60 39 73 62 75 37 4
35 -8 -17 -103 -42 -77 -45 -80 -82 -83 l-39 -3 -46 91 c-25 49 -44 92 -42 94
3 3 34 1 54 -3z m303 3 c13 -5 16 -23 16 -95 l0 -89 -30 0 -30 0 0 88 c0 103
4 111 44 96z m594 -17 c12 -12 18 -39 20 -92 4 -75 4 -75 -21 -75 -14 0 -27 6
-29 12 -4 10 -10 10 -32 0 -62 -28 -136 -7 -136 38 0 37 28 53 114 65 49 7 52
10 35 31 -11 13 -24 15 -66 10 -42 -5 -53 -3 -53 8 0 20 24 25 93 22 38 -1 63
-8 75 -19z m397 -2 c22 -21 25 -33 25 -95 0 -67 -1 -70 -24 -70 -13 0 -26 6
-29 13 -3 10 -9 10 -26 0 -51 -31 -141 -7 -141 38 0 23 46 59 75 59 44 0 85
13 85 26 0 20 -48 29 -92 17 -34 -9 -38 -8 -38 8 0 21 17 26 88 28 44 1 57 -3
77 -24z m495 -39 c0 -33 4 -66 8 -72 12 -19 48 -25 75 -13 24 11 26 18 29 78
l3 66 30 0 30 0 3 -93 3 -92 -31 0 c-20 0 -30 5 -30 15 0 14 -3 14 -30 0 -42
-22 -106 -19 -130 5 -16 16 -20 33 -20 88 0 38 2 71 5 74 3 3 17 6 30 6 24 0
25 -3 25 -62z m398 44 c2 -12 -6 -14 -41 -12 -29 3 -47 -1 -56 -11 -10 -13 -6
-17 26 -27 83 -27 109 -71 61 -104 -22 -16 -138 -23 -151 -10 -17 18 7 29 57
26 42 -3 55 0 59 12 5 12 -2 20 -21 27 -90 36 -93 38 -90 66 4 36 40 54 103
51 35 -2 51 -7 53 -18z m272 5 c11 -13 15 -13 33 0 35 24 101 19 136 -11 26
-21 31 -33 31 -69 0 -36 -5 -48 -31 -69 -36 -31 -109 -39 -133 -15 -20 18 -26
8 -26 -41 0 -49 -1 -50 -30 -50 l-30 0 0 128 c0 71 3 132 7 135 11 11 30 8 43
-8z m437 -5 c31 -19 53 -63 38 -78 -3 -4 -46 -9 -93 -12 l-87 -5 24 -24 c21
-21 30 -23 83 -18 51 5 59 3 56 -11 -3 -13 -17 -18 -68 -20 -108 -6 -163 39
-144 116 7 28 17 41 44 54 46 24 107 23 147 -2z m143 0 c6 -10 12 -10 31 4 32
22 59 21 59 -4 0 -16 -7 -20 -30 -20 -38 0 -50 -23 -50 -94 0 -56 0 -56 -30
-56 -16 0 -30 3 -30 8 -5 98 -3 173 5 176 17 6 36 0 45 -14z m264 12 c10 -16
-10 -27 -49 -27 -53 0 -53 -23 -1 -41 21 -8 45 -19 52 -25 22 -18 17 -57 -10
-74 -32 -21 -129 -17 -134 5 -2 13 8 16 50 15 66 0 72 22 13 45 -22 8 -46 19
-53 23 -20 13 -14 54 10 71 23 17 113 22 122 8z m223 -3 c90 -34 100 -130 18
-165 -46 -19 -99 -18 -138 3 -42 21 -56 41 -57 79 0 67 98 113 177 83z m175
-6 c10 -9 19 -8 38 2 35 20 91 18 120 -4 21 -17 25 -29 28 -95 l4 -76 -36 0
-36 0 0 70 c0 58 -3 71 -19 80 -22 11 -70 -2 -83 -23 -4 -7 -8 -38 -8 -69 0
-58 0 -58 -30 -58 l-30 0 0 88 c0 49 3 91 6 94 8 8 30 4 46 -9z m422 -4 c24
-19 26 -26 26 -95 0 -67 -2 -74 -20 -74 -10 0 -23 8 -28 17 -9 16 -11 16 -27
0 -11 -11 -33 -17 -65 -17 -42 0 -52 4 -66 25 -15 23 -15 27 0 50 10 15 29 26
53 31 111 19 108 18 88 38 -15 15 -28 17 -72 12 -31 -4 -53 -2 -53 3 0 35 122
43 164 10z m160 -99 c-2 -105 -4 -116 -24 -132 -31 -25 -123 -26 -118 -1 2 12
13 17 38 17 42 1 48 16 49 141 l1 91 28 -1 27 0 -1 -115z m253 100 c36 -22 54
-67 32 -81 -8 -5 -47 -9 -86 -9 -54 0 -73 -3 -73 -13 0 -24 46 -40 99 -35 46
5 51 3 51 -15 0 -18 -6 -19 -80 -15 -69 3 -83 6 -104 28 -29 29 -39 72 -24
104 23 52 126 72 185 36z m263 5 c0 -11 -11 -15 -42 -15 -74 0 -92 -31 -25
-44 75 -14 102 -67 50 -98 -29 -17 -54 -21 -116 -19 -31 1 -38 5 -35 18 3 14
12 17 51 14 47 -2 82 12 71 30 -2 5 -23 13 -45 19 -55 15 -83 44 -69 71 15 27
44 38 108 38 40 1 52 -2 52 -14z m370 -3 c0 -15 -6 -18 -30 -14 -46 7 -88 -15
-95 -48 -13 -57 28 -89 101 -77 29 5 34 3 34 -14 0 -17 -7 -19 -62 -19 -81 0
-124 24 -133 73 -13 68 43 117 133 117 44 0 52 -3 52 -18z m255 4 c37 -16 55
-42 55 -81 0 -61 -47 -95 -130 -95 -101 0 -160 72 -114 139 33 47 122 65 189
37z m175 -13 c0 -11 6 -10 26 6 16 13 41 21 64 21 23 0 48 -8 64 -21 24 -19
26 -26 26 -95 l0 -74 -30 0 -30 0 0 64 c0 76 -17 101 -59 91 -44 -11 -51 -24
-51 -91 l0 -64 -30 0 c-16 0 -30 3 -31 8 -4 42 -7 167 -4 172 8 13 55 -2 55
-17z m760 -69 l0 -94 -30 0 -30 0 0 88 c0 49 2 91 5 94 3 3 17 6 30 6 25 0 25
-1 25 -94z m230 79 c0 -15 -9 -18 -47 -18 -35 0 -48 -4 -51 -16 -2 -11 11 -19
47 -28 27 -7 52 -19 55 -28 21 -55 -13 -83 -101 -83 -34 0 -64 4 -67 8 -11 17
12 27 63 27 62 0 79 18 34 36 -87 34 -93 39 -93 64 0 33 41 54 108 55 43 0 52
-3 52 -17z m498 -10 c38 -28 42 -90 9 -129 -22 -25 -33 -29 -94 -32 -63 -4
-72 -2 -101 23 -53 44 -42 122 21 151 44 20 130 13 165 -13z m152 7 c6 -10 12
-9 31 4 33 23 69 21 69 -4 0 -16 -7 -20 -33 -20 -47 0 -57 -15 -57 -87 l0 -63
-32 0 -33 0 2 92 c1 51 2 94 3 95 1 9 43 -6 50 -17z m208 -78 l3 -92 -31 0
-30 0 0 89 c0 77 2 90 18 94 33 9 37 0 40 -91z m246 87 c31 -14 33 -20 42
-108 l7 -71 -26 0 c-14 0 -27 6 -29 12 -4 10 -10 10 -32 0 -44 -20 -112 -16
-129 9 -16 22 -12 52 8 69 7 6 41 15 76 21 73 12 76 13 59 34 -14 17 -66 20
-104 5 -22 -8 -26 -7 -26 10 0 11 9 20 23 23 45 9 107 7 131 -4z m-3964 -476
c201 -79 414 -227 475 -331 15 -24 30 -33 69 -43 189 -44 332 -108 415 -185
60 -55 161 -182 161 -202 0 -6 -33 2 -72 18 -40 15 -74 27 -75 26 -2 -1 13
-40 33 -87 19 -46 49 -131 66 -189 57 -200 97 -255 225 -312 l48 -21 -35 -15
c-72 -29 -181 -44 -286 -37 -107 7 -114 4 -114 -42 0 -9 -20 -58 -45 -111 -26
-54 -45 -109 -45 -129 0 -47 32 -104 82 -147 l43 -37 -120 4 c-66 2 -128 7
-137 11 -11 5 -18 4 -18 -1 0 -22 82 -134 110 -152 l31 -18 -28 -6 c-16 -3
-37 0 -51 9 -49 32 -120 154 -129 224 l-6 40 56 -33 c30 -17 52 -36 49 -41 -3
-5 0 -6 6 -2 7 4 37 2 69 -3 31 -6 58 -9 60 -7 2 2 -12 27 -32 57 -38 58 -51
104 -40 141 4 12 26 54 49 93 37 62 41 78 44 146 l4 76 66 -19 c47 -13 101
-18 184 -18 109 0 157 11 105 24 -34 8 -104 72 -132 120 -23 39 -43 102 -94
289 -36 133 -88 216 -176 279 -39 29 -39 29 -10 23 17 -4 67 -22 112 -39 74
-30 81 -31 71 -13 -25 48 -108 116 -189 156 -93 46 -307 97 -366 87 -30 -4
-33 -3 -33 22 -1 85 -93 179 -260 265 -127 66 -152 71 -122 30 49 -70 95 -203
70 -203 -5 0 -35 13 -67 29 -69 36 -156 63 -271 88 -69 15 -130 18 -330 18
-313 -1 -348 -7 -802 -131 -148 -41 -371 -33 -502 17 -27 10 -52 17 -54 15 -6
-7 50 -90 77 -114 42 -38 126 -73 204 -84 l72 -11 -85 -23 c-154 -41 -195 -61
-320 -155 -147 -111 -292 -169 -422 -169 -32 0 -58 -4 -58 -9 0 -12 181 -68
260 -81 36 -5 86 -10 112 -10 l48 0 -44 -60 c-52 -70 -90 -146 -106 -213 -14
-53 -9 -168 9 -211 l11 -28 61 66 c34 37 95 94 135 127 l74 60 0 -41 c0 -77
58 -158 165 -230 40 -27 75 -46 78 -43 4 3 4 26 2 52 -3 25 -2 39 2 31 3 -8
13 -20 20 -25 8 -6 17 -29 20 -52 10 -75 -61 -183 -158 -243 l-51 -31 26 -28
c15 -16 60 -44 101 -62 l73 -34 7 -48 c6 -39 14 -53 45 -78 21 -17 41 -41 44
-54 3 -13 28 -40 55 -59 40 -30 51 -44 56 -76 4 -22 20 -57 35 -79 25 -33 37
-41 76 -47 84 -12 222 2 334 35 58 17 112 31 120 31 10 0 34 -48 72 -147 76
-195 84 -230 64 -268 l-16 -30 0 31 c0 17 -3 33 -6 37 -4 3 -47 -15 -98 -40
-89 -45 -179 -106 -243 -166 l-33 -31 9 30 c5 16 12 38 17 48 6 15 4 18 -7 14
-8 -3 -98 -40 -201 -81 -325 -131 -417 -188 -489 -300 -48 -77 -60 -106 -155
-390 -60 -177 -100 -275 -179 -434 l-101 -206 78 -37 c43 -20 75 -40 71 -45
-5 -4 -3 -5 4 -1 13 7 63 -2 62 -13 -1 -3 2 -16 6 -28 8 -25 21 -30 28 -10 3
6 6 -3 6 -22 1 -33 -55 -304 -89 -430 l-17 -65 -88 -53 c-162 -97 -224 -164
-340 -363 -37 -63 -93 -151 -124 -195 -32 -44 -68 -98 -81 -119 -20 -33 -110
-148 -129 -166 -4 -3 -28 -32 -55 -65 -80 -97 -198 -216 -190 -192 6 19 5 20
-10 8 -9 -8 -14 -21 -11 -31 3 -11 -1 -20 -11 -24 -15 -6 -15 -4 -3 10 12 15
11 16 -8 10 -16 -5 -7 8 30 46 29 30 87 96 130 148 44 52 90 109 104 125 24
28 112 154 210 300 23 33 76 120 119 194 98 167 152 227 281 312 56 37 106 69
111 70 12 5 123 457 122 500 0 9 -36 26 -93 44 -50 17 -114 40 -140 52 l-49
23 58 107 c128 238 173 350 234 583 28 107 64 225 80 262 53 127 153 236 276
300 71 37 455 192 554 223 111 35 330 137 330 154 -1 15 -104 268 -114 278 -2
3 -26 -2 -53 -11 -131 -42 -342 -59 -424 -35 -54 17 -88 56 -105 125 -12 46
-25 68 -58 99 -24 22 -46 50 -50 62 -4 12 -23 32 -42 43 -42 26 -54 48 -54 94
0 31 -4 36 -37 46 -64 21 -133 62 -155 93 -19 27 -20 31 -6 41 9 6 36 25 61
43 49 34 110 109 126 156 10 27 8 28 -70 68 -96 48 -160 104 -188 165 l-22 45
-72 -64 c-40 -36 -90 -92 -111 -125 -39 -61 -39 -61 -56 -39 -53 68 -86 185
-74 264 7 55 35 126 76 196 15 26 28 52 28 56 0 5 -34 14 -75 20 -140 21 -259
72 -345 149 l-45 40 95 -5 c74 -4 116 0 187 15 108 25 160 49 316 153 64 43
143 87 175 99 95 34 102 39 67 39 -42 2 -125 42 -173 85 -44 40 -78 114 -85
186 l-4 45 86 -43 c100 -49 186 -70 326 -78 109 -7 101 -8 390 81 391 122 844
126 1186 11 l70 -23 -7 21 c-9 29 -61 132 -90 178 -13 21 -24 40 -24 44 0 9
45 -3 120 -33z m522 -2029 c39 -34 78 -84 65 -84 -9 0 -25 12 -37 28 -16 21
-19 22 -10 5 15 -32 -2 -29 -27 5 -22 30 -53 87 -53 98 0 4 11 -4 24 -17 13
-13 30 -29 38 -35z m108 -94 c11 -7 6 -10 -20 -10 -26 0 -31 3 -20 10 8 5 17
10 20 10 3 0 12 -5 20 -10z m-340 -42 c30 -121 106 -273 143 -288 12 -5 103
-31 202 -59 426 -121 880 -269 989 -323 84 -42 110 -63 183 -148 72 -83 165
-261 223 -425 32 -92 99 -226 152 -303 85 -123 192 -322 186 -346 -5 -24 -70
4 -75 32 -4 28 -53 114 -171 302 -47 74 -101 173 -120 220 -45 111 -165 350
-211 420 -64 98 -167 193 -251 232 -82 39 -160 63 -231 72 -26 3 -62 14 -81
26 -65 38 -657 218 -798 242 -50 9 -67 15 -63 25 3 8 -1 21 -10 31 -44 50
-117 236 -117 298 0 27 4 34 20 34 14 0 22 -11 30 -42z m958 -2395 c27 -43 82
-141 122 -218 79 -153 83 -174 58 -284 -9 -40 -13 -151 -12 -386 0 -327 0
-328 -11 -168 -11 176 -24 223 -26 97 -1 -72 -2 -75 -10 -34 -14 81 -10 367 7
500 l17 125 -88 160 c-48 88 -99 179 -112 203 -14 24 -23 46 -19 49 3 3 8 -2
12 -11 3 -9 13 -16 21 -16 12 0 12 3 -1 22 -15 22 -20 38 -12 38 2 0 26 -35
54 -77z m139 -1150 c-2 -16 -4 -5 -4 22 0 28 2 40 4 28 2 -13 2 -35 0 -50z
m30 -120 c-3 -10 -5 -4 -5 12 0 17 2 24 5 18 2 -7 2 -21 0 -30z m-3028 -209
c17 -4 45 -19 61 -34 25 -23 30 -36 30 -75 0 -39 -5 -52 -30 -75 -33 -31 -67
-40 -146 -40 l-54 0 0 115 0 115 54 0 c29 0 68 -3 85 -6z m331 -9 c0 -12 -13
-15 -60 -15 l-60 0 0 -35 0 -35 50 0 c38 0 50 -4 50 -15 0 -11 -12 -15 -51
-15 l-50 0 3 -32 3 -33 58 0 c48 0 57 -3 57 -18 0 -16 -9 -17 -87 -15 l-88 3
-3 113 -3 112 91 0 c73 0 90 -3 90 -15z m121 3 c0 -7 1 -51 2 -98 l2 -85 58 1
c49 1 57 -2 57 -18 0 -16 -9 -18 -85 -18 l-85 0 0 115 0 115 25 0 c14 0 25 -6
26 -12z m423 -9 c40 -32 34 -64 -22 -120 -27 -27 -47 -51 -44 -54 3 -3 29 -5
59 -5 40 0 53 -4 53 -15 0 -12 -18 -15 -100 -15 -63 0 -100 4 -100 11 0 5 29
38 65 72 52 50 63 66 59 84 -8 28 -34 37 -84 28 -32 -5 -40 -4 -40 8 0 31 116
36 154 6z m256 6 c0 -11 -12 -15 -44 -15 -48 0 -76 -19 -76 -51 0 -16 6 -18
43 -13 68 8 116 -28 103 -79 -11 -47 -105 -74 -157 -47 -31 17 -52 68 -46 117
8 72 45 101 130 102 35 1 47 -3 47 -14z m378 -92 c29 -60 52 -111 52 -115 0
-5 -11 -8 -26 -8 -19 0 -28 8 -39 34 -14 34 -17 35 -66 34 -48 -1 -52 -3 -65
-35 -11 -25 -20 -33 -39 -33 -14 0 -25 2 -25 5 0 3 21 55 47 115 45 107 47
110 77 110 31 0 34 -5 84 -107z m251 101 c18 -4 39 -17 48 -30 14 -22 14 -26
-2 -50 -16 -25 -16 -27 5 -46 54 -50 -9 -98 -127 -98 l-73 0 0 108 c0 60 3
112 7 115 8 9 101 9 142 1z m325 -18 c39 -25 37 -80 -4 -104 l-29 -18 29 -35
c36 -42 37 -49 6 -49 -16 0 -36 14 -59 40 -20 24 -43 40 -55 40 -19 0 -22 -6
-22 -41 0 -38 -1 -40 -27 -37 -34 4 -38 25 -28 147 l7 83 78 -4 c50 -3 88 -11
104 -22z m156 -91 l0 -115 -25 0 c-14 0 -25 3 -25 8 0 4 -2 53 -3 109 -2 57
-1 105 1 108 3 3 16 5 29 5 23 0 23 -1 23 -115z m132 18 l3 -98 58 -3 c42 -2
57 -7 57 -17 0 -12 -17 -15 -85 -15 l-85 0 0 115 0 115 25 0 c24 0 24 -1 27
-97z m-4127 -11 c-3 -3 -11 0 -18 7 -9 10 -8 11 6 5 10 -3 15 -9 12 -12z
m1725 -364 c23 -51 44 -99 47 -105 3 -9 -4 -13 -20 -13 -18 0 -30 8 -39 28
-11 23 -20 27 -64 30 -50 3 -52 2 -62 -28 -8 -23 -17 -30 -36 -30 l-25 0 40
98 c51 121 44 112 83 112 32 0 35 -3 76 -92z m150 2 l0 -90 55 0 c42 0 55 -3
55 -15 0 -12 -16 -15 -80 -15 l-80 0 0 105 0 105 25 0 c25 0 25 -1 25 -90z
m340 -15 c0 -105 0 -105 -25 -105 -24 0 -24 2 -27 83 l-3 82 -34 -3 c-23 -3
-32 0 -29 9 5 14 62 37 96 38 21 1 22 -2 22 -104z m249 79 c27 -22 31 -32 31
-76 0 -62 -13 -86 -56 -104 -45 -19 -95 -10 -126 23 -18 20 -23 36 -23 80 0
48 4 58 28 79 40 34 105 33 146 -2z m373 -13 c37 -42 39 -98 3 -133 -28 -29
-63 -38 -141 -38 l-54 0 0 106 0 107 82 -5 c76 -5 83 -7 110 -37z m228 24 c0
-12 -13 -15 -55 -15 -54 0 -55 0 -55 -30 0 -29 1 -30 50 -30 37 0 50 -4 50
-14 0 -11 -14 -16 -47 -18 -44 -3 -48 -5 -51 -30 -3 -28 -2 -28 52 -28 43 0
56 -3 56 -15 0 -12 -16 -15 -80 -15 l-80 0 0 105 0 105 80 0 c64 0 80 -3 80
-15z m271 -60 c39 -85 37 -86 90 18 26 50 33 57 59 57 l30 0 0 -105 0 -105
-25 0 c-24 0 -25 3 -25 58 0 32 -3 62 -7 65 -3 4 -20 -21 -37 -55 -17 -35 -38
-64 -47 -66 -11 -2 -25 17 -45 62 -16 36 -33 66 -37 66 -4 0 -5 -29 -1 -65 l7
-65 -27 0 -26 0 0 105 0 105 29 0 c26 0 32 -7 62 -75z m423 -17 c21 -51 40
-99 43 -105 3 -8 -4 -13 -20 -13 -18 0 -28 8 -37 30 -11 28 -16 30 -62 30 -46
0 -50 -2 -59 -30 -8 -22 -17 -30 -35 -30 -13 0 -24 2 -24 4 0 5 27 69 60 141
28 61 32 65 63 65 32 0 34 -2 71 -92z m130 46 c33 -52 27 -53 81 21 14 19 27
26 43 24 23 -4 22 -6 -22 -64 -37 -49 -46 -68 -46 -102 0 -39 -2 -43 -25 -43
-23 0 -25 4 -25 41 0 33 -9 52 -45 100 -25 33 -45 61 -45 64 0 3 12 5 28 5 21
0 33 -10 56 -46z m350 35 c34 -16 60 -72 52 -114 -7 -38 -56 -84 -89 -86 -73
-4 -112 12 -133 53 -28 55 -6 128 46 147 35 13 95 13 124 0z m3037 -572 c202
23 257 26 243 16 -11 -8 -89 -53 -174 -100 -85 -47 -159 -89 -164 -94 -10 -9
8 -29 206 -238 65 -69 117 -126 115 -127 -3 -4 -345 119 -372 133 -11 6 -38
31 -59 55 -22 23 -63 68 -93 99 l-55 56 59 33 c32 18 78 44 103 58 73 40 71
44 -10 37 -128 -10 -673 -36 -677 -32 -3 4 99 17 255 33 71 8 62 -2 137 138
l48 90 89 -94 88 -93 261 30z m-5688 13 c64 -71 11 -156 -96 -152 -111 5 -143
126 -47 175 49 25 107 16 143 -23z m492 26 c42 -18 48 -42 8 -32 -101 25 -123
16 -123 -49 0 -50 19 -75 56 -75 33 0 64 17 64 35 0 10 -10 15 -30 15 -18 0
-30 5 -30 13 0 10 17 14 56 16 l56 2 -7 -33 c-10 -50 -38 -68 -105 -68 -72 0
-99 19 -107 76 -7 51 9 81 50 99 41 18 70 18 112 1z m1646 -9 c22 -14 39 -50
39 -83 0 -34 -51 -84 -87 -85 -80 -3 -109 9 -128 55 -24 56 1 108 59 126 35
10 89 4 117 -13z m589 1 c11 -7 25 -29 31 -48 21 -70 -24 -122 -106 -122 -112
0 -154 110 -65 170 28 19 43 23 77 18 24 -3 52 -11 63 -18z m-2470 -8 c27 -27
25 -46 -6 -77 l-25 -25 27 -29 28 -29 -29 0 c-19 0 -37 10 -54 30 -14 16 -35
30 -46 32 -16 2 -21 -3 -23 -29 -2 -25 -8 -33 -23 -33 -17 0 -19 8 -19 90 l0
90 75 0 c62 0 79 -4 95 -20z m473 8 c3 -7 21 -48 41 -90 l35 -78 -24 0 c-18 0
-26 7 -31 25 -6 22 -11 25 -55 25 -43 0 -51 -3 -61 -25 -10 -23 -48 -36 -48
-17 0 5 18 46 40 90 36 75 42 82 69 82 16 0 31 -6 34 -12z m221 -50 l56 -63 0
63 c0 55 2 62 20 62 19 0 20 -7 20 -90 0 -80 -2 -90 -18 -90 -16 0 -100 86
-110 112 -2 4 -8 8 -13 8 -5 0 -9 -27 -9 -60 0 -53 -2 -60 -20 -60 -19 0 -20
7 -20 90 0 82 2 90 19 90 11 0 43 -27 75 -62z m216 -28 c0 -83 -1 -90 -20 -90
-19 0 -20 7 -20 90 0 83 1 90 20 90 19 0 20 -7 20 -90z m230 81 c0 -4 -27 -38
-60 -74 -33 -36 -60 -68 -60 -71 0 -3 27 -6 60 -6 33 0 60 -4 60 -10 0 -6 -37
-10 -90 -10 -49 0 -90 4 -90 9 0 4 27 38 60 74 33 36 60 68 60 71 0 3 -25 6
-55 6 -30 0 -55 5 -55 10 0 6 35 10 85 10 47 0 85 -4 85 -9z m219 -77 c22 -47
41 -88 41 -90 0 -2 -11 -4 -25 -4 -18 0 -26 7 -31 25 -6 22 -11 25 -55 25 -43
0 -51 -3 -61 -25 -6 -14 -19 -25 -30 -25 -10 0 -18 2 -18 5 0 2 18 43 39 90
37 78 42 85 69 85 27 0 33 -7 71 -86z m241 71 c55 -28 66 -85 26 -132 -21 -25
-31 -28 -100 -31 l-76 -4 0 91 0 91 60 0 c35 0 74 -7 90 -15z m628 -5 c53 -50
0 -110 -99 -110 -23 0 -26 -4 -21 -25 4 -22 1 -25 -22 -25 l-26 0 0 90 0 90
73 0 c60 0 77 -4 95 -20z m506 4 c23 -23 20 -70 -5 -88 l-21 -15 21 -30 22
-31 -21 0 c-13 0 -36 16 -54 36 -37 42 -66 39 -66 -7 0 -24 -4 -29 -25 -29
-25 0 -25 1 -25 90 l0 90 79 0 c59 0 84 -4 95 -16z m2141 -295 c44 -17 99 -37
123 -46 24 -8 40 -19 35 -23 -10 -10 -421 -240 -428 -240 -3 0 9 28 26 63 53
106 150 277 157 277 4 0 43 -14 87 -31z m-3656 -12 c-20 -19 -28 -21 -48 -13
-23 10 -23 10 10 22 54 20 65 17 38 -9z m-1298 -67 c74 -21 108 -101 72 -170
-24 -46 -54 -60 -131 -60 -60 0 -66 2 -99 35 -33 33 -35 39 -31 86 6 59 33 93
87 107 49 13 60 14 102 2z m871 0 c36 -11 68 -33 68 -50 0 -17 -37 -16 -59 1
-33 27 -95 25 -115 -3 -23 -33 -21 -103 4 -128 27 -27 83 -27 111 1 15 15 28
19 46 14 l26 -6 -24 -25 c-51 -54 -151 -54 -206 2 -76 75 -18 197 97 203 8 1
32 -4 52 -9z m482 -17 c80 -59 53 -187 -46 -213 -131 -36 -238 93 -159 191 39
49 153 61 205 22z m1167 17 c20 -6 44 -19 53 -29 16 -17 16 -19 -5 -24 -12 -3
-31 1 -43 9 -11 7 -37 14 -57 14 -52 0 -83 -39 -76 -95 7 -48 36 -75 82 -75
50 0 65 9 65 40 0 25 -3 27 -30 24 -21 -3 -30 1 -30 11 0 12 14 15 60 15 l60
0 0 -39 c0 -31 -6 -44 -26 -60 -55 -43 -177 -32 -216 20 -25 33 -33 97 -16
129 14 27 89 70 123 70 11 0 36 -5 56 -10z m-3341 -15 c47 -24 47 -86 -1 -111
-16 -8 -29 -18 -29 -21 0 -4 17 -24 37 -45 l37 -38 -35 0 c-29 0 -41 7 -72 45
-21 25 -47 45 -57 45 -17 0 -20 -7 -20 -45 0 -43 -1 -45 -30 -45 l-30 0 0 115
0 115 85 0 c57 0 96 -5 115 -15z m297 0 c0 -12 -15 -15 -69 -15 l-68 0 0 -35
0 -35 60 0 c47 0 60 -3 60 -15 0 -12 -13 -15 -60 -15 l-60 0 0 -35 0 -35 70 0
c58 0 68 -3 64 -15 -5 -12 -26 -15 -100 -15 l-94 0 0 115 0 115 98 0 c81 0 99
-3 99 -15z m112 -37 c12 -29 30 -71 40 -93 l19 -40 26 57 c14 32 32 73 40 93
13 29 20 35 46 35 l30 0 -24 -49 c-14 -27 -39 -79 -55 -115 -29 -62 -33 -66
-64 -66 -33 0 -35 2 -83 107 -27 58 -50 110 -52 115 -2 4 10 8 26 8 26 0 32
-6 51 -52z m621 -48 l0 -100 65 0 c51 0 65 -3 65 -15 0 -12 -17 -15 -95 -15
l-95 0 0 115 0 115 30 0 30 0 0 -100z m220 22 c0 -96 14 -122 67 -122 60 0 73
20 73 117 0 82 0 83 25 83 25 0 25 -1 25 -90 0 -83 -2 -93 -25 -115 -21 -22
-33 -25 -95 -25 -64 0 -73 3 -95 26 -23 24 -25 35 -25 115 0 88 0 89 25 89 25
0 25 -1 25 -78z m630 -37 l0 -115 -30 0 -30 0 0 115 0 115 30 0 30 0 0 -115z
m501 68 c25 -27 54 -61 67 -77 12 -16 25 -26 29 -23 3 4 5 38 4 77 l-2 70 30
0 31 0 0 -115 0 -115 -27 0 c-22 0 -41 16 -92 75 -35 41 -66 75 -70 75 -3 0
-5 -34 -3 -75 l4 -75 -31 0 -31 0 0 115 c0 114 0 115 24 115 15 0 39 -17 67
-47z m560 9 c22 -25 29 -42 29 -75 0 -83 -51 -117 -175 -117 l-75 0 0 69 c0
37 3 90 6 116 l7 47 89 -4 c87 -3 91 -4 119 -36z m149 -77 l0 -115 -30 0 -30
0 0 115 0 115 30 0 30 0 0 -115z m450 0 l0 -115 -25 0 -25 0 0 115 0 115 25 0
25 0 0 -115z m290 101 c0 -11 -14 -16 -46 -18 l-47 -3 2 -97 2 -98 -30 0 -31
0 0 100 0 100 -45 0 c-33 0 -45 4 -45 15 0 13 20 15 120 15 98 0 120 -3 120
-14z m195 -43 c33 -69 75 -162 75 -168 0 -3 -11 -5 -25 -5 -17 0 -29 9 -40 30
-15 28 -19 30 -76 30 -58 0 -60 -1 -70 -30 -9 -24 -17 -30 -40 -30 l-28 0 35
78 c20 42 43 94 51 115 14 33 19 37 52 37 36 0 39 -3 66 -57z m185 -43 l0
-100 65 0 c51 0 65 -3 65 -15 0 -12 -17 -15 -95 -15 l-95 0 0 115 0 115 30 0
30 0 0 -100z m2501 -259 l-34 -18 38 -6 c57 -9 65 -21 65 -97 0 -55 -4 -70
-21 -86 -25 -23 -114 -25 -154 -4 -25 13 -26 17 -23 89 3 73 4 76 33 90 17 8
36 23 43 33 9 12 25 18 50 18 l37 -1 -34 -18z m-1567 -41 c19 -15 21 -51 4
-68 -9 -9 -9 -15 0 -24 7 -7 12 -29 12 -50 0 -38 0 -38 -39 -38 -40 0 -40 0
-43 43 -2 23 -7 42 -13 42 -5 0 -11 -19 -13 -42 l-3 -43 -45 0 -44 0 0 93 c0
52 3 97 8 101 11 12 159 1 176 -14z m194 -2 c2 -12 -5 -17 -25 -20 -39 -4 -44
-35 -6 -40 37 -4 37 -32 1 -36 -42 -5 -38 -40 5 -44 20 -2 32 -8 32 -18 0 -12
-15 -15 -75 -15 l-75 0 -3 85 c-1 47 0 91 3 98 3 9 24 12 72 10 54 -2 68 -6
71 -20z m118 -43 l10 -60 10 60 9 60 39 3 c21 2 42 0 47 -5 4 -4 -2 -48 -14
-98 l-22 -90 -67 -3 -67 -3 -10 38 c-33 126 -38 152 -33 158 4 3 24 5 47 3
l40 -3 11 -60z m318 46 c12 -10 16 -32 16 -87 0 -66 -2 -75 -22 -85 -13 -7
-49 -12 -80 -12 -81 0 -98 17 -98 97 0 66 4 76 35 95 25 15 128 9 149 -8z
m136 -60 c0 -79 0 -80 27 -83 17 -2 29 -10 31 -20 3 -16 -5 -18 -67 -18 l-71
0 0 100 0 100 40 0 40 0 0 -79z m162 27 c1 -29 2 -66 2 -82 1 -16 6 -31 13
-33 9 -3 13 19 15 79 l3 83 40 0 40 0 3 -81 c2 -71 0 -82 -18 -99 -26 -23
-121 -27 -157 -7 -21 12 -23 20 -23 102 l0 90 40 0 40 0 2 -52z m322 41 c22
-11 36 -35 36 -66 0 -9 -15 -13 -44 -13 -40 0 -45 3 -48 25 -6 50 -23 24 -26
-40 -2 -53 0 -65 13 -65 9 0 15 9 15 25 0 22 4 25 39 25 46 0 55 -9 42 -44
-12 -31 -72 -49 -130 -40 -60 10 -73 29 -69 110 3 62 6 70 28 81 31 16 111 17
144 2z m154 -91 l3 -98 -46 0 -45 0 0 101 0 100 43 -3 42 -3 3 -97z m354 67
c29 -44 38 -44 38 0 0 33 2 35 35 35 l35 0 0 -100 0 -100 -40 0 c-36 0 -42 4
-59 38 l-20 37 -1 -37 c0 -38 -1 -38 -40 -38 l-40 0 0 93 c0 52 3 97 7 100 3
4 19 7 35 7 21 0 33 -9 50 -35z m-1184 -194 c9 -5 12 -26 10 -67 l-3 -59 -47
-3 -48 -3 0 64 c0 35 3 67 7 70 9 10 65 8 81 -2z m72 -61 c0 -40 -4 -70 -10
-70 -11 0 -14 123 -3 133 12 13 13 7 13 -63z m137 55 c9 -24 -5 -31 -20 -11
-7 10 -22 17 -33 14 -16 -3 -20 -13 -22 -61 l-3 -57 31 0 c33 0 41 24 18 49
-11 10 -9 12 7 9 14 -2 21 -12 23 -36 l3 -32 -50 0 -51 0 0 63 c0 35 3 67 7
70 13 14 84 7 90 -8z m63 -55 c0 -40 -4 -70 -10 -70 -6 0 -10 30 -10 70 0 40
4 70 10 70 6 0 10 -30 10 -70z m103 60 c-20 -8 -23 -16 -23 -70 0 -33 -4 -60
-10 -60 -6 0 -10 28 -10 64 0 53 -3 65 -17 69 -10 3 5 5 32 5 39 1 45 -1 28
-8z m120 -59 c18 -61 16 -94 -4 -58 -6 9 -19 17 -29 17 -10 0 -23 -8 -29 -17
-20 -36 -20 -5 0 61 12 39 25 66 32 63 6 -2 20 -32 30 -66z m67 5 c0 -63 1
-65 28 -69 22 -3 20 -4 -10 -6 l-38 -1 0 70 c0 40 4 70 10 70 6 0 10 -28 10
-64z"/>
<path d="M2574 8906 c-53 -38 -32 -116 31 -116 87 0 104 110 20 125 -19 4 -38
0 -51 -9z"/>
<path d="M1360 8891 c0 -63 4 -90 13 -94 7 -2 37 -1 67 4 68 10 90 34 90 94 0
61 -32 85 -111 85 l-59 0 0 -89z"/>
<path d="M1712 8841 c-25 -15 -9 -46 24 -49 33 -3 64 18 64 44 0 16 -65 20
-88 5z"/>
<path d="M2870 8835 c-18 -22 -5 -45 27 -45 34 1 63 21 63 44 0 21 -72 22 -90
1z"/>
<path d="M3278 8839 c-10 -5 -18 -19 -18 -29 0 -16 7 -20 38 -20 41 0 62 14
62 42 0 14 -8 18 -32 18 -18 0 -41 -5 -50 -11z"/>
<path d="M4590 8900 c-41 -41 -14 -110 43 -110 59 0 91 82 45 114 -31 22 -64
20 -88 -4z"/>
<path d="M4892 8913 c-7 -2 -17 -13 -22 -24 -10 -18 -7 -19 50 -19 46 0 60 3
60 15 0 26 -52 43 -88 28z"/>
<path d="M5526 8894 c-31 -30 -14 -87 28 -98 57 -14 101 38 77 90 -9 19 -18
24 -50 24 -23 0 -46 -7 -55 -16z"/>
<path d="M6105 8836 c-28 -20 -12 -46 29 -46 32 0 66 27 66 52 0 13 -75 9 -95
-6z"/>
<path d="M6528 8909 c-10 -5 -18 -17 -18 -24 0 -11 14 -15 55 -15 42 0 55 4
55 15 0 29 -58 44 -92 24z"/>
<path d="M7412 8904 c-26 -18 -30 -74 -6 -98 25 -25 81 -20 100 9 42 65 -30
134 -94 89z"/>
<path d="M9050 8900 c-24 -24 -26 -72 -4 -94 21 -22 77 -20 97 2 57 63 -33
152 -93 92z"/>
<path d="M9685 8836 c-28 -20 -12 -46 28 -46 33 0 67 24 67 48 0 17 -72 15
-95 -2z"/>
<path d="M2889 2633 c-13 -16 -12 -17 4 -4 16 13 21 21 13 21 -2 0 -10 -8 -17
-17z"/>
<path d="M2808 2547 c-32 -33 -55 -63 -52 -66 4 -5 91 88 107 116 14 23 4 14
-55 -50z"/>
<path d="M4145 2392 c-6 -4 -10 -39 -11 -79 -1 -82 5 -89 66 -73 27 7 41 18
50 39 16 39 5 85 -23 99 -32 15 -71 22 -82 14z"/>
<path d="M5237 2303 c-11 -11 -8 -48 5 -61 18 -18 53 -14 72 7 26 29 6 61 -38
61 -18 0 -36 -3 -39 -7z"/>
<path d="M5626 2347 c-9 -23 -16 -46 -16 -50 0 -10 68 -9 74 1 5 8 -29 92 -37
92 -2 0 -12 -19 -21 -43z"/>
<path d="M5890 2365 c0 -32 2 -35 29 -35 44 0 61 10 61 35 0 25 -17 35 -61 35
-27 0 -29 -3 -29 -35z"/>
<path d="M5888 2283 c-9 -37 2 -53 36 -53 40 0 69 20 64 46 -5 27 -93 34 -100
7z"/>
<path d="M6170 2354 l0 -47 46 6 c90 10 84 87 -7 87 l-39 0 0 -46z"/>
<path d="M4090 1973 c-7 -21 -12 -40 -12 -43 3 -9 72 -8 72 2 0 17 -29 78 -37
78 -5 0 -15 -17 -23 -37z"/>
<path d="M4822 2008 c-16 -16 -16 -110 0 -126 7 -7 25 -12 40 -12 22 0 31 6
39 28 12 31 6 87 -12 108 -14 17 -51 18 -67 2z"/>
<path d="M5169 2016 c-2 -2 -3 -36 -1 -75 l4 -71 33 0 c67 0 101 88 49 129
-24 19 -73 28 -85 17z"/>
<path d="M6127 1974 c-21 -44 -15 -55 26 -50 34 4 35 9 15 59 -14 36 -21 34
-41 -9z"/>
<path d="M6604 2012 c-34 -22 -41 -94 -13 -129 17 -19 73 -16 92 5 22 24 22
95 1 116 -16 17 -61 21 -80 8z"/>
<path d="M3922 1474 c-16 -11 -22 -25 -22 -54 0 -29 6 -43 22 -54 52 -37 108
-8 108 56 0 60 -57 88 -108 52z"/>
<path d="M6070 1470 c-43 -43 -11 -120 48 -120 38 0 62 28 62 72 0 62 -67 91
-110 48z"/>
<path d="M6662 1474 c-29 -20 -30 -76 -2 -104 41 -41 110 -10 110 50 0 58 -60
88 -108 54z"/>
<path d="M4187 1484 c-4 -4 -7 -20 -7 -36 0 -27 2 -28 45 -28 49 0 67 18 48
49 -10 17 -73 27 -86 15z"/>
<path d="M4723 1446 c-13 -41 -9 -46 29 -46 32 0 32 1 16 47 -15 42 -32 42
-45 -1z"/>
<path d="M5579 1451 c-10 -22 -14 -42 -11 -45 9 -9 62 -7 62 3 0 9 -29 81 -33
81 -1 0 -9 -18 -18 -39z"/>
<path d="M5805 1478 c-4 -9 -5 -40 -3 -69 l3 -54 39 2 c21 2 45 8 52 14 17 14
18 70 1 92 -17 24 -85 35 -92 15z"/>
<path d="M6420 1449 l0 -40 43 3 c35 3 43 7 45 26 5 33 -15 52 -54 52 -33 0
-34 -1 -34 -41z"/>
<path d="M6920 1455 c0 -35 0 -35 44 -35 36 0 46 4 51 20 10 31 -12 50 -56 50
-38 0 -39 -1 -39 -35z"/>
<path d="M4120 1070 c-28 -28 -27 -98 0 -128 26 -28 90 -30 113 -4 33 36 34
104 1 136 -23 23 -89 21 -114 -4z"/>
<path d="M5434 1069 c-29 -32 -26 -105 5 -130 31 -25 85 -25 111 1 25 25 27
95 4 128 -21 30 -93 31 -120 1z"/>
<path d="M3270 1048 l0 -43 51 4 c42 2 52 7 62 28 9 21 8 27 -8 39 -10 8 -38
14 -62 14 l-43 0 0 -42z"/>
<path d="M6192 1008 l3 -83 36 -3 c24 -2 43 4 62 18 23 18 27 29 27 70 0 59
-23 80 -88 80 l-43 0 3 -82z"/>
<path d="M7346 1040 c-9 -22 -16 -43 -16 -45 0 -3 20 -5 45 -5 l44 0 -19 42
c-10 24 -23 44 -28 46 -5 1 -17 -15 -26 -38z"/>
<path d="M10080 635 c0 -37 4 -65 10 -65 6 0 10 28 10 65 0 37 -4 65 -10 65
-6 0 -10 -28 -10 -65z"/>
<path d="M8460 680 c0 -11 7 -20 15 -20 8 0 15 9 15 20 0 11 -7 20 -15 20 -8
0 -15 -9 -15 -20z"/>
<path d="M9097 703 c-10 -10 -8 -133 2 -133 13 0 21 27 21 73 0 44 -11 72 -23
60z"/>
<path d="M9070 450 c0 -57 1 -60 25 -60 24 0 25 3 25 54 0 40 -4 55 -16 60
-30 12 -34 6 -34 -54z"/>
<path d="M9585 466 c-3 -9 -7 -23 -10 -31 -3 -10 2 -15 16 -15 16 0 18 5 13
28 -9 35 -12 39 -19 18z"/>
</g>
</svg>
