<svg width="200" height="200" viewBox="0 0 200 200" fill="none" xmlns="http://www.w3.org/2000/svg">
<g clip-path="url(#clip0_2_55)">
<circle cx="100" cy="100" r="98" fill="#DDDFE4" stroke="white" stroke-width="4"/>
<path d="M145.538 124.371C126.428 118.129 118.484 110.367 118.484 110.367L117.845 110.977C112.169 116.318 105.893 119.458 100.175 119.458H99.6352C93.9176 119.458 87.641 116.318 81.9659 110.977L81.3259 110.367C81.3259 110.367 73.3828 118.129 54.2724 124.371C26.0621 134.909 32.5244 154.536 32.5162 154.868C33.4047 159.645 34.4026 159.514 34.8347 159.943C49.1386 174.151 69.3816 190.007 100.023 190.585C122.795 191.015 150.492 177.968 165.279 161.746C165.73 161.561 167.628 159.645 168.516 154.868C169.584 149.129 173.862 135.08 145.538 124.371Z" fill="#8997B3" fill-opacity="0.9"/>
<path d="M129.532 71.4603L129.296 71.2036C127.708 69.7503 127.832 69.8336 127.832 69.8336C127.832 69.8336 130.601 55.8641 128.381 49.258C124.896 38.7078 104.077 31.6369 99.9016 30.815C99.9023 30.8072 97.3619 30.2989 97.1997 30.2978C97.1997 30.2978 93.9154 29.6338 90.1087 31.2941C87.6296 32.2479 74.6686 38.1254 70.9898 49.258C68.7701 55.8641 71.5386 69.8336 71.5386 69.8336C71.5386 69.8336 71.6627 69.7503 70.0751 71.2036L69.8388 71.4603C68.765 72.6797 69.0302 76.4948 70.204 80.464C71.2676 84.4407 72.6539 85.5094 72.9861 86.4407C76.3535 102.251 88.0624 115.75 99.9945 115.75C111.926 115.75 123.017 102.251 126.384 86.4407C126.717 85.5097 128.103 84.4407 129.167 80.464C130.341 76.4945 130.637 72.4175 129.532 71.4603Z" fill="#8997B3" fill-opacity="0.9"/>
</g>
<defs>
<clipPath id="clip0_2_55">
<rect width="200" height="200" fill="white"/>
</clipPath>
</defs>
</svg>
