<svg width="138" height="138" viewBox="0 0 138 138" fill="none" xmlns="http://www.w3.org/2000/svg">
<path d="M65.52 90.0302L35.91 71.9102L15.08 137.33L65.52 90.0302Z" fill="#041421"/>
<path d="M137.67 22.37L78.26 34.09L58.81 0L45.92 40.46L0 49.52L93.51 41.61L67.95 65.58L90.28 105.19L132.6 131.08L94.61 62.75L137.67 22.37Z" fill="#041421"/>
<path d="M58.81 0L70.89 39.84L109.92 34.84L82.82 65.54L90.28 105.19L132.6 131.08L94.61 62.75L137.67 22.37L78.26 34.09L58.81 0Z" fill="#041421"/>
<path d="M15.08 137.33L53.2 82.4902L65.52 90.0302L15.08 137.33Z" fill="#041421"/>
</svg>
