<?xml version="1.0" encoding="UTF-8"?>
<svg version="1.1" xmlns="http://www.w3.org/2000/svg" width="925" height="313">
<path d="M0 0 C13.53 0 27.06 0 41 0 C41.029729 5.64851074 41.029729 5.64851074 41.06005859 11.41113281 C41.12688858 23.83637693 41.20442897 36.2615347 41.28752708 48.68667984 C41.33765936 56.22192605 41.38410219 63.75716134 41.421875 71.29248047 C41.45480524 77.85988846 41.49464213 84.42721192 41.54279006 90.99452662 C41.56804486 94.47221053 41.5898291 97.94983843 41.60334396 101.42758942 C41.61855655 105.30892445 41.64918804 109.19005401 41.68115234 113.07128906 C41.68331253 114.22575027 41.68547272 115.38021149 41.68769836 116.56965637 C41.69886185 117.62692429 41.71002533 118.6841922 41.7215271 119.77349854 C41.72705786 120.69160435 41.73258862 121.60971016 41.73828697 122.55563736 C42.01414438 125.13210655 42.69667515 126.78045951 44 129 C45.65 128.67 47.3 128.34 49 128 C49.99569409 125.01291772 50.13630862 123.01432904 50.15821838 119.89375305 C50.17290161 118.30991318 50.17290161 118.30991318 50.18788147 116.69407654 C50.19363693 115.53602005 50.1993924 114.37796356 50.20532227 113.18481445 C50.21522186 111.96518005 50.22512146 110.74554565 50.23532104 109.48895264 C50.26151521 106.14420085 50.28337461 102.79947301 50.30332303 99.45468163 C50.3251893 95.95927883 50.35257485 92.46391943 50.37937927 88.96855164 C50.42929749 82.349431 50.47423955 75.73028626 50.51740164 69.1111185 C50.56678145 61.5754926 50.62169682 54.03991025 50.67708123 46.50432646 C50.79088792 31.00292299 50.89699904 15.50147961 51 0 C64.53 0 78.06 0 92 0 C92.0226357 14.91727178 92.04103071 29.83453468 92.05181217 44.75181961 C92.05695283 51.67927926 92.0639527 58.60672742 92.07543945 65.53417969 C92.08652943 72.22557482 92.09229267 78.91695558 92.09487724 85.60836029 C92.09671802 88.15507952 92.10031251 90.70179814 92.10573006 93.24851227 C92.11304 96.82877485 92.11398677 100.40898891 92.11352539 103.98925781 C92.11712067 105.03080017 92.12071594 106.07234253 92.12442017 107.14544678 C92.10313705 122.51232133 91.42057177 134.28831601 80.35546875 145.8046875 C70.76378844 154.74419718 58.39529573 157.36933498 45.5390625 157.1484375 C31.57971219 156.3323524 18.06278703 152.66887352 8.28515625 142.15625 C-3.92184205 127.11388535 -0.13843273 103.3142949 -0.09765625 85.15625 C-0.09578732 82.69047067 -0.09436566 80.22469097 -0.09336853 77.75891113 C-0.08958075 71.32125798 -0.07978311 64.88362799 -0.06866455 58.44598389 C-0.05836933 51.85591953 -0.05385366 45.26585136 -0.04882812 38.67578125 C-0.03815688 25.78384244 -0.0205911 12.89192678 0 0 Z " fill="#000C1C" transform="translate(461,32)"/>
<path d="M0 0 C11.22 0 22.44 0 34 0 C35.56404711 4.66868062 37.1269739 9.33771277 38.6875 14.00756836 C39.21426521 15.58295724 39.74157536 17.15816405 40.26953125 18.7331543 C44.9782919 32.78246611 49.48323469 46.8851084 54 61 C54.33 40.87 54.66 20.74 55 0 C66.22 0 77.44 0 89 0 C89 50.49 89 100.98 89 153 C77.12 153 65.24 153 53 153 C44.09 123.3 44.09 123.3 35 93 C34.67 112.8 34.34 132.6 34 153 C22.78 153 11.56 153 0 153 C0 102.51 0 52.02 0 0 Z " fill="#000C1C" transform="translate(834,32)"/>
<path d="M0 0 C10.39017169 9.27257339 12.84588005 19.58064546 14 33 C14.31825376 38.76517865 14.28294005 44.53662818 14.265625 50.30859375 C14.26697794 51.93034422 14.26892365 53.55209428 14.27142334 55.17384338 C14.27434593 58.54798298 14.27017109 61.92201558 14.26074219 65.29614258 C14.24935868 69.57308971 14.25591862 73.84978537 14.26788712 78.12672329 C14.27519186 81.46863116 14.27277863 84.81048162 14.26763153 88.15239143 C14.26631822 89.72729588 14.26785908 91.30220592 14.27259064 92.87710381 C14.352018 126.73010083 14.352018 126.73010083 3.62890625 138.5625 C-5.16257211 146.32092694 -15.36222445 150.28615875 -27 151 C-27.79664063 151.05285156 -28.59328125 151.10570312 -29.4140625 151.16015625 C-42.63146868 151.60853434 -56.317503 149.00768307 -66.3125 139.890625 C-75.37066733 130.23302013 -78.31551995 119.94287643 -78.2746582 106.90698242 C-78.27976913 106.04712234 -78.28488007 105.18726227 -78.29014587 104.30134583 C-78.30393606 101.48598073 -78.30309291 98.67086341 -78.30078125 95.85546875 C-78.30467438 93.8792563 -78.30901032 91.90304467 -78.31376648 89.92683411 C-78.32120629 85.79388715 -78.32095398 81.66102565 -78.31567383 77.52807617 C-78.30988658 72.25954579 -78.32680327 66.99136781 -78.3500185 61.72289562 C-78.36482768 57.64339692 -78.36561773 53.56398165 -78.36250877 49.48446083 C-78.36301852 47.54340226 -78.36819041 45.60233859 -78.37832069 43.66130638 C-78.44913179 28.19555119 -78.11345542 14.62833991 -66.92578125 2.80859375 C-49.64074026 -13.57147127 -19.04732806 -13.42968292 0 0 Z M-37 20 C-38.38245403 24.20759299 -38.14761128 28.51449317 -38.14526367 32.89599609 C-38.14862228 33.79402451 -38.1519809 34.69205292 -38.15544128 35.61729431 C-38.16494025 38.58602278 -38.16689387 41.55469478 -38.16796875 44.5234375 C-38.17118206 46.58843001 -38.17454619 48.65342228 -38.17805481 50.71841431 C-38.18404344 55.04763314 -38.18589498 59.37683201 -38.18530273 63.70605469 C-38.18520113 69.2498818 -38.19885317 74.7935808 -38.21607494 80.33737755 C-38.2272005 84.602779 -38.22922177 88.86814952 -38.22869301 93.133564 C-38.22987229 95.17726712 -38.23429116 97.22097106 -38.24202538 99.26465988 C-38.25183636 102.12493582 -38.24894278 104.98493432 -38.24291992 107.84521484 C-38.24853943 108.68697769 -38.25415894 109.52874054 -38.25994873 110.39601135 C-38.23537696 114.99453176 -37.75619421 118.67053406 -36 123 C-33.70705512 123.85974801 -33.70705512 123.85974801 -31 124 C-28.65867213 122.66453671 -28.65867213 122.66453671 -27 120 C-26.40317218 116.83841681 -26.46406786 113.71494477 -26.49829102 110.50561523 C-26.49288803 109.54424652 -26.48748505 108.58287781 -26.48191833 107.59237671 C-26.46940925 104.41413607 -26.48593574 101.23679734 -26.50390625 98.05859375 C-26.50375133 95.85189262 -26.50226345 93.64519122 -26.49949646 91.43849182 C-26.49811153 86.81409678 -26.51068758 82.19001155 -26.53344727 77.56567383 C-26.56184853 71.63133614 -26.5590912 65.6975127 -26.54635715 59.76313686 C-26.53941051 55.20701181 -26.54717741 50.65100613 -26.55961418 46.09489632 C-26.56413737 43.90637736 -26.56445794 41.71784563 -26.56054878 39.52932549 C-26.55764612 36.47427864 -26.57409798 33.41994685 -26.59594727 30.36499023 C-26.59144562 29.45633713 -26.58694397 28.54768402 -26.58230591 27.61149597 C-26.59221054 26.78015137 -26.60211517 25.94880676 -26.61231995 25.0922699 C-26.61474984 24.37017051 -26.61717974 23.64807112 -26.61968327 22.90408993 C-27.11450904 20.42670019 -28.02161143 19.5283189 -30 18 C-33.48221301 17.57533988 -34.4650931 17.4650931 -37 20 Z " fill="#000C1C" transform="translate(361,38)"/>
<path d="M0 0 C68.83863636 0 68.83863636 0 79.00390625 8.71875 C88.5526342 18.44689038 89.21998643 31.66855281 89.18066406 44.55224609 C89.0698005 53.3238474 88.52895429 61.87055894 83 69 C79.5360439 71.28831039 75.92275624 72.69241459 72 74 C72.99580078 74.41958984 72.99580078 74.41958984 74.01171875 74.84765625 C80.0410733 77.58507124 84.11470627 79.93579813 87 86 C89.30998962 93.70233045 89.26415631 101.47427403 89.1953125 109.4453125 C89.1924826 110.69633759 89.18965271 111.94736267 89.18673706 113.23629761 C89.17750168 116.52751564 89.15960118 119.81852961 89.1373291 123.10968018 C89.11669861 126.48194872 89.10758855 129.85424828 89.09765625 133.2265625 C89.07741268 139.81786848 89.03824753 146.40867603 89 153 C76.46 153 63.92 153 51 153 C50.95101562 148.65457031 50.90203125 144.30914062 50.8515625 139.83203125 C50.80700762 136.36145597 50.76051293 132.89091871 50.71270752 129.42038727 C50.66281882 125.76003196 50.61632773 122.09970649 50.578125 118.43920898 C50.54117936 114.91182174 50.49479479 111.38467205 50.44193649 107.85748863 C50.41445709 105.86070403 50.39668716 103.86379345 50.37905884 101.86689758 C50.35918915 100.64600937 50.33931946 99.42512115 50.31884766 98.16723633 C50.30552399 97.09468094 50.29220032 96.02212555 50.2784729 94.91706848 C49.88342436 90.70661186 49.88342436 90.70661186 48 87 C45.36 86.34 42.72 85.68 40 85 C40 107.44 40 129.88 40 153 C26.8 153 13.6 153 0 153 C0 102.51 0 52.02 0 0 Z M40 27 C40 37.89 40 48.78 40 60 C47.49815655 59.88339967 47.49815655 59.88339967 49.9765625 57.0625 C51.44346414 52.6729928 51.43497394 48.59800233 51.375 44 C51.38660156 43.11054687 51.39820313 42.22109375 51.41015625 41.3046875 C51.38831261 36.42627355 51.25920059 32.90636243 48 29 C45.06028115 27.45664761 43.33156142 27 40 27 Z " fill="#000C1C" transform="translate(0,32)"/>
<path d="M0 0 C9.65456686 7.23637968 14.74101624 15.74797831 16.59631348 27.54464722 C17.42418637 35.14351649 17.28553576 42.77485415 17.265625 50.41015625 C17.26697559 52.24995474 17.26891939 54.08975289 17.27142334 55.92955017 C17.27435534 59.76630078 17.27013886 63.60295764 17.26074219 67.43969727 C17.24934076 72.33040093 17.25592382 77.22088518 17.26788712 82.11158085 C17.27515105 85.90451173 17.2727972 89.69739151 17.26763153 93.49032402 C17.26630797 95.29264795 17.26789681 97.09497669 17.27259064 98.897295 C17.30438567 114.53037425 17.01169528 129.48220256 5.78515625 141.65625 C-4.6636938 150.98476383 -18.05003228 153.61841328 -31.68359375 153.46484375 C-44.24858395 152.65085734 -57.38559574 148.95963414 -66 139.25 C-73.25631763 128.97719929 -75.15283552 119.1492712 -75.14526367 106.82128906 C-75.14862228 106.02009644 -75.1519809 105.21890381 -75.15544128 104.39343262 C-75.16487245 101.76748059 -75.16689051 99.14159287 -75.16796875 96.515625 C-75.17118706 94.67250544 -75.17455155 92.82938613 -75.17805481 90.98626709 C-75.18402672 87.12983611 -75.18589674 83.27342747 -75.18530273 79.41699219 C-75.18520129 74.50386807 -75.19884392 69.59088904 -75.21607494 64.67779922 C-75.22725835 60.87196205 -75.22921999 57.06615923 -75.22869301 53.26030731 C-75.22986395 51.45043183 -75.23423528 49.6405552 -75.24202538 47.83069611 C-75.30467937 31.76989242 -75.21474473 16.92388135 -63.75 4.375 C-47.76141139 -10.24913575 -18.13603913 -11.19357558 0 0 Z M-32.75 21.375 C-35.85966257 26.03949386 -35.14841862 32.35981521 -35.14526367 37.7746582 C-35.14862228 38.60963837 -35.1519809 39.44461853 -35.15544128 40.30490112 C-35.16490679 43.05354315 -35.16689222 45.80212396 -35.16796875 48.55078125 C-35.17118453 50.47120692 -35.17454884 52.39163234 -35.17805481 54.3120575 C-35.18403518 58.33426481 -35.18589585 62.35645067 -35.18530273 66.37866211 C-35.18520121 71.51633727 -35.19884862 76.65387393 -35.21607494 81.7915163 C-35.227229 85.757651 -35.22922089 89.72375258 -35.22869301 93.68990135 C-35.22986817 95.58319768 -35.23426377 97.47649499 -35.24202538 99.36977577 C-35.25189363 102.02566675 -35.24892038 104.6812618 -35.24291992 107.3371582 C-35.24853943 108.1088887 -35.25415894 108.8806192 -35.25994873 109.67573547 C-35.2291273 115.08195554 -34.35488703 120.02132716 -33 125.25 C-31.02 125.58 -29.04 125.91 -27 126.25 C-22.09423118 120.91764258 -22.85069369 113.52465526 -22.85473633 106.68774414 C-22.85137772 105.86076523 -22.8480191 105.03378632 -22.84455872 104.18174744 C-22.8351117 101.46620149 -22.83310892 98.75071758 -22.83203125 96.03515625 C-22.8288149 94.13618444 -22.82545055 92.23721288 -22.82194519 90.33824158 C-22.81596997 86.36489284 -22.81410369 82.3915658 -22.81469727 78.41821289 C-22.81479893 73.33988057 -22.80113524 68.26168793 -22.78392506 63.18338871 C-22.77278055 59.26361966 -22.77077879 55.34388415 -22.77130699 51.42410088 C-22.77013102 49.55230667 -22.76573082 47.68051149 -22.75797462 45.80873299 C-22.74812283 43.18627374 -22.75107289 40.56411499 -22.75708008 37.94165039 C-22.75146057 37.1772464 -22.74584106 36.41284241 -22.74005127 35.62527466 C-22.68404636 27.35510485 -22.68404636 27.35510485 -26 20.25 C-28.74727982 19.96081265 -30.39245761 19.85943704 -32.75 21.375 Z " fill="#000C1C" transform="translate(803,35.75)"/>
<path d="M0 0 C14.19 0 28.38 0 43 0 C49.65668507 58.74686141 49.65668507 58.74686141 52 87 C52.33 87 52.66 87 53 87 C53.05597855 86.33776932 53.11195709 85.67553864 53.16963196 84.99324036 C53.87982106 76.5993099 54.59431592 68.20575015 55.3125 59.8125 C55.3693182 59.14844398 55.4261364 58.48438797 55.48467636 57.80020905 C57.13660929 38.51022186 58.8983246 19.24692206 61 0 C75.19 0 89.38 0 104 0 C102.87497555 13.50029339 102.87497555 13.50029339 102.203125 18.57249451 C101.97604858 20.30288719 101.97604858 20.30288719 101.74438477 22.0682373 C101.58123779 23.28893921 101.41809082 24.50964111 101.25 25.76733398 C101.07389494 27.10084386 100.89803975 28.43438676 100.72241211 29.76795959 C100.2498542 33.35046858 99.7737276 36.93249459 99.29681396 40.51442599 C98.79624313 44.2780892 98.29872555 48.04215617 97.80078125 51.8061676 C96.96552954 58.1164046 96.1280232 64.42633909 95.2890625 70.73608398 C94.32008947 78.02379115 93.35433533 85.31191922 92.3903656 92.60028976 C91.46024051 99.6324456 90.52822313 106.66434927 89.59521484 113.69612312 C89.19915585 116.6811718 88.8036898 119.66629815 88.40869141 122.65148735 C87.85776644 126.81406442 87.30403861 130.97626395 86.75 135.13842773 C86.58685303 136.37329926 86.42370605 137.60817078 86.25561523 138.88046265 C86.02853882 140.58124718 86.02853882 140.58124718 85.796875 142.31639099 C85.66635742 143.29910697 85.53583984 144.28182295 85.40136719 145.2943182 C85.01828321 147.87674991 84.51199861 150.44000697 84 153 C63.87 153 43.74 153 23 153 C21.78204635 148.12818542 20.69865404 143.65843643 19.96224976 138.75666809 C19.78280319 137.57491501 19.60335663 136.39316193 19.41847229 135.17559814 C19.22929733 133.90311218 19.04012238 132.63062622 18.84521484 131.31958008 C18.63834979 129.94717099 18.43115172 128.57481207 18.22364807 127.20249939 C17.66435929 123.49668411 17.10997387 119.79015104 16.55670118 116.08343339 C15.97585929 112.19635282 15.39114235 108.30985485 14.80703735 104.42326355 C13.82754686 97.90148875 12.85131116 91.37923288 11.87695312 84.85668945 C10.75110318 77.32034702 9.61979651 69.78483871 8.48564565 62.24974138 C7.39306091 54.98978139 6.30461035 47.72920716 5.2179451 40.46835899 C4.75602841 37.38254584 4.29261619 34.29696279 3.82798386 31.21155739 C3.2812761 27.57999459 2.73817634 23.94791005 2.19784355 20.31539345 C1.90449025 18.34916911 1.60753395 16.38348339 1.31047058 14.41781616 C1.13666367 13.24452255 0.96285675 12.07122894 0.78378296 10.86238098 C0.55538758 9.33626804 0.55538758 9.33626804 0.32237816 7.77932453 C0 5 0 5 0 0 Z " fill="#000C1C" transform="translate(174,32)"/>
<path d="M0 0 C10.17517933 7.64091182 14.53231439 15.52141588 16.60913086 28.00772095 C17.44153767 34.44100643 17.1732427 40.96868872 17.0625 47.4375 C17.000625 52.59375 16.93875 57.75 16.875 63.0625 C3.675 63.0625 -9.525 63.0625 -23.125 63.0625 C-23.5 46 -23.5 46 -23.60302734 40.65600586 C-23.63827543 39.23810036 -23.67420126 37.82021148 -23.7109375 36.40234375 C-23.72229736 35.68244263 -23.73365723 34.9625415 -23.74536133 34.2208252 C-23.87842097 29.51323922 -24.65992618 25.54254153 -26.125 21.0625 C-29.54142759 20.81234127 -29.54142759 20.81234127 -33.125 21.0625 C-36.83833472 26.63250209 -36.27436095 33.80910843 -36.27026367 40.33935547 C-36.27362228 41.12425354 -36.2769809 41.90915161 -36.28044128 42.71783447 C-36.28986754 45.28846866 -36.29189007 47.85903715 -36.29296875 50.4296875 C-36.29618675 52.23275783 -36.29955123 54.03582791 -36.30305481 55.83889771 C-36.30902501 59.60956426 -36.31089685 63.38020796 -36.31030273 67.15087891 C-36.31020115 71.96106897 -36.32385902 76.77111131 -36.34107494 81.5812664 C-36.35224117 85.30295473 -36.35422054 89.02460783 -36.35369301 92.74631119 C-36.35486594 94.51876459 -36.35924875 96.29121912 -36.36702538 98.06365585 C-36.40252109 106.98783539 -36.36216385 115.35656886 -34.125 124.0625 C-30.09824226 125.20431469 -30.09824226 125.20431469 -26.3125 124 C-23.65140131 119.6582074 -23.96218685 114.09167552 -23.80859375 109.1328125 C-23.77048584 107.97023926 -23.73237793 106.80766602 -23.69311523 105.60986328 C-23.65001221 104.1504834 -23.60690918 102.69110352 -23.5625 101.1875 C-23.418125 96.52625 -23.27375 91.865 -23.125 87.0625 C-9.925 87.0625 3.275 87.0625 16.875 87.0625 C16.91625 91.27 16.9575 95.4775 17 99.8125 C17.01820801 101.1128418 17.03641602 102.41318359 17.05517578 103.75292969 C17.11911062 117.40198687 15.83221349 129.86258581 6.3125 140.3125 C-3.86729524 149.83677813 -17.86470272 153.44596037 -31.51953125 153.2109375 C-45.73275364 152.4011887 -57.63058378 149.50099649 -68.0625 139.38671875 C-76.76041916 129.58508636 -77.27828756 115.31122594 -77.27026367 102.77978516 C-77.27362228 102.00610092 -77.2769809 101.23241669 -77.28044128 100.43528748 C-77.28984921 97.90736229 -77.2918891 95.37950404 -77.29296875 92.8515625 C-77.29618793 91.07473728 -77.29955248 89.29791233 -77.30305481 87.52108765 C-77.30902036 83.80767198 -77.31089732 80.09427949 -77.31030273 76.38085938 C-77.31020115 71.64814481 -77.32386076 66.9155804 -77.34107494 62.18290138 C-77.35225111 58.51607596 -77.35422024 54.84928623 -77.35369301 51.18244553 C-77.35486438 49.43872942 -77.35923819 47.69501213 -77.36702538 45.95131302 C-77.43126225 30.08539224 -76.96206178 16.45247049 -65.66015625 4.2421875 C-48.81836082 -10.23812352 -18.65683537 -11.85582149 0 0 Z " fill="#000C1C" transform="translate(643.125,35.9375)"/>
<path d="M0 0 C22.11 0 44.22 0 67 0 C67 10.56 67 21.12 67 32 C58.42 32 49.84 32 41 32 C41 41.24 41 50.48 41 60 C48.92 60 56.84 60 65 60 C65 69.57 65 79.14 65 89 C57.08 89 49.16 89 41 89 C41 99.89 41 110.78 41 122 C50.57 122 60.14 122 70 122 C70 132.23 70 142.46 70 153 C46.9 153 23.8 153 0 153 C0 102.51 0 52.02 0 0 Z " fill="#000C1C" transform="translate(103,32)"/>
<path d="M0 0 C13.2 0 26.4 0 40 0 C40 40.26 40 80.52 40 122 C47.92 122 55.84 122 64 122 C64 132.23 64 142.46 64 153 C42.88 153 21.76 153 0 153 C0 102.51 0 52.02 0 0 Z " fill="#000C1C" transform="translate(389,32)"/>
<path d="M0 0 C13.53 0 27.06 0 41 0 C41 50.49 41 100.98 41 153 C27.47 153 13.94 153 0 153 C0 102.51 0 52.02 0 0 Z " fill="#000C1C" transform="translate(673,32)"/>
<path d="M0 0 C0.80610718 -0.00241196 1.61221436 -0.00482391 2.44274902 -0.00730896 C4.14401172 -0.00633115 5.84530649 0.00704697 7.54638672 0.03198242 C10.14791119 0.06629626 12.7460387 0.05264021 15.34765625 0.03320312 C17.0026186 0.04010181 18.6575722 0.0497744 20.3125 0.0625 C21.08863647 0.05754013 21.86477295 0.05258026 22.66442871 0.04747009 C26.0403309 0.12095171 28.2854325 0.39118134 31.15332031 2.22973633 C33.19584553 5.49027813 33.11183912 7.74914796 33.046875 11.58203125 C33.04121521 12.24225281 33.03555542 12.90247437 33.02972412 13.58270264 C33.0074123 15.68218888 32.95723314 17.77993995 32.90625 19.87890625 C32.88617794 21.30596485 32.86792839 22.73305033 32.8515625 24.16015625 C32.80756693 27.65029918 32.73857876 31.13943324 32.65625 34.62890625 C29.02625 34.62890625 25.39625 34.62890625 21.65625 34.62890625 C21.65625 26.37890625 21.65625 18.12890625 21.65625 9.62890625 C14.06625 9.62890625 6.47625 9.62890625 -1.34375 9.62890625 C-1.34375 39.65890625 -1.34375 69.68890625 -1.34375 100.62890625 C6.24625 100.62890625 13.83625 100.62890625 21.65625 100.62890625 C21.65625 88.41890625 21.65625 76.20890625 21.65625 63.62890625 C18.02625 63.62890625 14.39625 63.62890625 10.65625 63.62890625 C10.65625 60.65890625 10.65625 57.68890625 10.65625 54.62890625 C17.91625 54.62890625 25.17625 54.62890625 32.65625 54.62890625 C32.74811037 61.65877586 32.82774334 68.68656099 32.87597656 75.71655273 C32.89608418 78.10757506 32.9233743 80.49854826 32.95800781 82.8894043 C33.00656151 86.32743456 33.02922774 89.76481429 33.046875 93.203125 C33.06752014 94.27100754 33.08816528 95.33889008 33.10943604 96.43913269 C33.11074735 100.7823233 33.02725553 103.85171775 31.13964844 107.8059082 C27.69456747 110.33485232 24.64531393 110.31208287 20.53125 110.22265625 C19.74733887 110.22269653 18.96342773 110.22273682 18.15576172 110.22277832 C16.50154587 110.21742674 14.84733036 110.19985902 13.19335938 110.17089844 C10.66457238 110.129044 8.13844996 110.12983022 5.609375 110.13671875 C3.99998154 110.12622549 2.39060177 110.11328664 0.78125 110.09765625 C0.0269873 110.09745483 -0.72727539 110.09725342 -1.50439453 110.0970459 C-4.67604902 110.02571798 -6.98375073 109.82644579 -9.7890625 108.28710938 C-12.28449951 105.6255189 -12.47004696 103.06609941 -12.49092102 99.58132935 C-12.49807632 98.75984406 -12.50523163 97.93835876 -12.51260376 97.09197998 C-12.51529266 96.19424866 -12.51798157 95.29651733 -12.52075195 94.37158203 C-12.53060875 92.94919724 -12.53060875 92.94919724 -12.54066467 91.49807739 C-12.56039287 88.3567904 -12.57205793 85.21555115 -12.58203125 82.07421875 C-12.58610678 81.00201962 -12.5901823 79.92982048 -12.59438133 78.82513046 C-12.6152379 73.15246523 -12.62954263 67.47982418 -12.63891602 61.80712891 C-12.64999237 55.94357076 -12.68440781 50.08039087 -12.72408772 44.21696663 C-12.75020669 39.71140833 -12.75860356 35.20594092 -12.76219749 30.70031357 C-12.76707399 28.53853672 -12.77871804 26.37676422 -12.79723549 24.21506119 C-12.82153091 21.19140674 -12.82067955 18.16874129 -12.8137207 15.14501953 C-12.82653076 14.25133667 -12.83934082 13.35765381 -12.85253906 12.43688965 C-12.81838431 8.36848637 -12.64879648 6.14880557 -10.55107117 2.57359314 C-7.30409505 -0.28704716 -4.12217928 -0.07041637 0 0 Z " fill="#000C1C" transform="translate(101.34375,200.37109375)"/>
<path d="M0 0 C31 0 31 0 39 4 C41.375 6.5 41.375 6.5 43 9 C43.3575235 9.5495636 43.715047 10.0991272 44.08340454 10.66534424 C45.40145465 14.02254315 45.29488211 17.29998554 45.29052734 20.85449219 C45.29724457 21.64201874 45.30396179 22.42954529 45.31088257 23.24093628 C45.32987028 25.84298019 45.33378751 28.44476613 45.3359375 31.046875 C45.34236623 32.86045436 45.34909465 34.67403268 45.35610962 36.48760986 C45.36808527 40.29059247 45.37179028 44.09348424 45.37060547 47.89648438 C45.37040257 52.75649158 45.39767308 57.61591211 45.43214989 62.47578049 C45.45445255 66.22315108 45.45844194 69.97038143 45.45738602 73.71781158 C45.45973812 75.50867987 45.46853957 77.29955226 45.48405075 79.09035492 C45.50377389 81.60328983 45.49784802 84.11497212 45.48583984 86.62792969 C45.49707886 87.35964386 45.50831787 88.09135803 45.51989746 88.84524536 C45.44573704 94.9907671 43.56086708 100.40608947 39.18359375 104.83984375 C38.31927734 105.38318359 38.31927734 105.38318359 37.4375 105.9375 C36.85871094 106.31777344 36.27992187 106.69804687 35.68359375 107.08984375 C25.20519087 112.75450238 11.91156096 109 0 109 C0 73.03 0 37.06 0 0 Z M10 9 C10 39.03 10 69.06 10 100 C21.61571985 100.72188112 21.61571985 100.72188112 31 97 C34.95725559 92.77892738 35.13014405 88.84911171 35.16113281 83.23706055 C35.16609772 82.55375671 35.17106262 81.87045288 35.17617798 81.16644287 C35.19077904 78.90652456 35.19759852 76.64667647 35.203125 74.38671875 C35.20887862 72.81354267 35.21463633 71.2403666 35.22039795 69.66719055 C35.23090241 66.36772333 35.23674855 63.06828042 35.24023438 59.76879883 C35.24571468 55.54875873 35.26973492 51.329042 35.29820633 47.1091032 C35.31686638 43.85851616 35.32204012 40.60800645 35.32357025 37.35737038 C35.32659026 35.80209398 35.33459677 34.24681874 35.34775543 32.69159508 C35.36488522 30.51119045 35.36291917 28.33156838 35.35644531 26.15112305 C35.36009094 24.91218796 35.36373657 23.67325287 35.36749268 22.39677429 C34.8663486 17.76464574 33.47635578 14.33794743 30 11.1875 C23.33024417 7.22733248 19.1979676 9 10 9 Z " fill="#000C1C" transform="translate(0,201)"/>
<path d="M0 0 C3.3 0 6.6 0 10 0 C11.66617745 5.45184114 12.79908131 10.88495737 13.78759766 16.49609375 C14.03675179 17.88527512 14.03675179 17.88527512 14.29093933 19.30252075 C14.83580143 22.34684614 15.37520997 25.39210558 15.9140625 28.4375 C16.29220043 30.56309596 16.67048844 32.68866522 17.04891968 34.81420898 C17.8398425 39.26208586 18.62786955 43.71046445 19.4140625 48.15917969 C20.42070372 53.85306724 21.43618487 59.54533806 22.45405006 65.23722839 C23.2371755 69.62372757 24.01476498 74.0111947 24.79078293 78.3989563 C25.16286453 80.49799212 25.53685208 82.59669102 25.91279984 84.69503784 C26.43801463 87.63034353 26.95554535 90.56690665 27.47119141 93.50390625 C27.62701187 94.3654129 27.78283234 95.22691956 27.94337463 96.11453247 C28.76063207 100.82193294 29.15707507 105.22202836 29 110 C25.7 110 22.4 110 19 110 C18.51770668 107.50056796 18.03910574 105.00051757 17.5625 102.5 C17.42779297 101.80390625 17.29308594 101.1078125 17.15429688 100.390625 C17.02216797 99.69453125 16.89003906 98.9984375 16.75390625 98.28125 C16.63345947 97.65283203 16.5130127 97.02441406 16.38891602 96.37695312 C15.82540468 92.93291901 15.43286018 89.46288147 15 86 C5.1 86.495 5.1 86.495 -5 87 C-6.32 94.59 -7.64 102.18 -9 110 C-12.3 110 -15.6 110 -19 110 C-18.34831468 98.54542369 -16.26234056 87.42627235 -14.21875 76.15234375 C-13.84100845 74.04683372 -13.46369624 71.94124662 -13.08679199 69.83558655 C-12.30004422 65.44681654 -11.50964516 61.05872627 -10.71630859 56.67114258 C-9.69875936 51.04306947 -8.68812342 45.41378303 -7.67989349 39.78403378 C-6.90285109 35.44723151 -6.12337601 31.11086957 -5.34303284 26.77466011 C-4.96936592 24.69786768 -4.59618454 22.62098783 -4.22349548 20.5440197 C-3.70403403 17.65254169 -3.18158348 14.76162048 -2.65820312 11.87084961 C-2.50440689 11.01216782 -2.35061066 10.15348602 -2.19215393 9.26878357 C-1.61530336 6.09694859 -1.02095913 3.06287739 0 0 Z M4 25 C2.8584566 31.94136842 1.71937588 38.88313769 0.58203125 45.82519531 C0.19458214 48.18824485 -0.19343703 50.551201 -0.58203125 52.9140625 C-1.13951027 56.30444514 -1.69495868 59.69515504 -2.25 63.0859375 C-2.42499023 64.14743011 -2.59998047 65.20892273 -2.78027344 66.30258179 C-2.94043945 67.28344757 -3.10060547 68.26431335 -3.265625 69.27490234 C-3.40774414 70.14094086 -3.54986328 71.00697937 -3.69628906 71.89926147 C-4.04769526 73.97614022 -4.04769526 73.97614022 -4 76 C1.94 76 7.88 76 14 76 C11.36 59.17 8.72 42.34 6 25 C5.34 25 4.68 25 4 25 Z " fill="#000C1C" transform="translate(242,200)"/>
<path d="M0 0 C14.85 0 29.7 0 45 0 C45 2.97 45 5.94 45 9 C39.39 9 33.78 9 28 9 C28 42 28 75 28 109 C24.37 109 20.74 109 17 109 C17 76 17 43 17 9 C11.39 9 5.78 9 0 9 C0 6.03 0 3.06 0 0 Z " fill="#000C1C" transform="translate(172,201)"/>
<path d="M0 0 C3.63 0 7.26 0 11 0 C11 33 11 66 11 100 C19.25 100 27.5 100 36 100 C36 102.97 36 105.94 36 109 C24.12 109 12.24 109 0 109 C0 73.03 0 37.06 0 0 Z " fill="#000C1C" transform="translate(283,201)"/>
<path d="M0 0 C3.3 0 6.6 0 10 0 C10 35.97 10 71.94 10 109 C6.7 109 3.4 109 0 109 C0 73.03 0 37.06 0 0 Z " fill="#000C1C" transform="translate(151,201)"/>
<path d="M0 0 C3.3 0 6.6 0 10 0 C10 35.97 10 71.94 10 109 C6.7 109 3.4 109 0 109 C0 73.03 0 37.06 0 0 Z " fill="#000C1C" transform="translate(62,201)"/>
<path d="M0 0 C1.47057839 0.00031709 2.94118001 0.01164091 4.41162109 0.03173828 C5.18565277 0.03456818 5.95968445 0.03739807 6.75717163 0.04031372 C9.23329016 0.05152325 11.70904909 0.07662875 14.18505859 0.10205078 C15.86213671 0.1120796 17.53922049 0.12120562 19.21630859 0.12939453 C23.33103082 0.15146504 27.44548371 0.18599977 31.56005859 0.22705078 C28.69563732 3.13795228 25.82707033 5.9413756 22.66943359 8.53173828 C21.96520264 9.1122998 21.26097168 9.69286133 20.53540039 10.29101562 C19.02229638 11.52241503 17.50537915 12.74914048 15.98510742 13.97167969 C12.90258815 16.45408277 9.91750616 18.86091324 7.14990234 21.69580078 C2.69093486 26.16392425 -1.06851787 26.57496931 -7.1887207 26.68847656 C-11.28080872 26.6536805 -15.35671391 26.49494819 -19.43994141 26.22705078 C-18.15182379 22.78308303 -16.65624915 19.75723289 -14.68994141 16.65283203 C-14.16400391 15.82074219 -13.63806641 14.98865234 -13.09619141 14.13134766 C-12.54962891 13.27605469 -12.00306641 12.42076172 -11.43994141 11.53955078 C-10.89337891 10.67265625 -10.34681641 9.80576172 -9.78369141 8.91259766 C-4.30443452 0.28411101 -4.30443452 0.28411101 0 0 Z " fill="#000C1C" transform="translate(774.43994140625,-0.22705078125)"/>
</svg>
