<svg width="222" height="75" viewBox="0 0 222 75" fill="none" xmlns="http://www.w3.org/2000/svg">
<path d="M83.22 69.48C83.22 70.85 82.77 71.98 81.87 72.86C80.97 73.74 79.83 74.18 78.46 74.18H72.52V48.23H78.46C79.84 48.23 80.98 48.67 81.88 49.55C82.78 50.43 83.22 51.55 83.22 52.92V69.49V69.48ZM80.91 69.25V53.11C80.91 52.26 80.64 51.57 80.11 51.05C79.57 50.53 78.88 50.26 78.03 50.26H74.83V72.14H77.9C78.8 72.14 79.52 71.88 80.08 71.37C80.64 70.86 80.92 70.15 80.92 69.26L80.91 69.25Z" fill="#041421"/>
<path d="M89.7 74.18H87.4V48.23H89.7V74.18Z" fill="#041421"/>
<path d="M104.53 72.34C104.53 72.88 104.36 73.32 104.02 73.67C103.68 74.01 103.23 74.18 102.69 74.18H95.87C95.33 74.18 94.89 74.01 94.54 73.67C94.2 73.33 94.03 72.89 94.03 72.34V50.07C94.03 49.53 94.2 49.09 94.54 48.74C94.88 48.39 95.32 48.23 95.87 48.23H102.69C103.23 48.23 103.67 48.4 104.02 48.74C104.36 49.08 104.53 49.53 104.53 50.07V56.11H102.21V50.27H96.34V72.15H102.21V63.18H99.44V61.19H104.53V72.35V72.34Z" fill="#041421"/>
<path d="M111.08 74.18H108.77V48.23H111.08V74.18Z" fill="#041421"/>
<path d="M124.35 50.2602H120.34V74.1702H118.04V50.2602H113.99V48.2202H124.36V50.2602H124.35Z" fill="#041421"/>
<path d="M137.52 74.1801H135.23L134.32 68.4102H129.16L128.25 74.1801H126.03V74.1102L130.66 48.1602H132.93L137.52 74.1801ZM134.02 66.3701L131.75 52.3102L129.46 66.3701H134.02Z" fill="#041421"/>
<path d="M148.93 74.18H140.64V48.23H142.94V72.14H148.93V74.18Z" fill="#041421"/>
<path d="M0 7.83008H6.71997C11.2 7.83008 14.23 8.00008 15.81 8.35008C17.39 8.70008 18.69 9.58008 19.69 11.0001C20.69 12.4201 21.19 14.6801 21.19 17.7901C21.19 20.6301 20.84 22.5401 20.13 23.5101C19.42 24.4801 18.03 25.0701 15.96 25.2701C17.84 25.7401 19.1 26.3601 19.75 27.1401C20.4 27.9201 20.8 28.6401 20.96 29.2901C21.12 29.9401 21.2 31.7401 21.2 34.6901V44.3101H12.39V32.1901C12.39 30.2401 12.24 29.0301 11.93 28.5601C11.62 28.0901 10.8099 27.8601 9.50995 27.8601V44.3101H0.0199585V7.83008H0ZM9.47998 14.0801V22.1901C10.55 22.1901 11.29 22.0401 11.72 21.7501C12.15 21.4601 12.36 20.5101 12.36 18.9001V16.8901C12.36 15.7301 12.15 14.9701 11.74 14.6101C11.33 14.2501 10.57 14.0701 9.46997 14.0701L9.47998 14.0801Z" fill="#041421"/>
<path d="M24.85 7.83008H40.67V15.1301H34.34V22.0501H40.27V28.9901H34.34V37.0101H41.3V44.3101H24.85V7.83008Z" fill="#041421"/>
<path d="M66.59 7.83008L61.7599 44.3101H47.35L41.87 7.83008H51.88C53.04 17.8801 53.87 26.3801 54.37 33.3401C54.86 26.3101 55.38 20.0701 55.93 14.6101L56.59 7.83008H66.6H66.59Z" fill="#041421"/>
<path d="M89.87 29.1998C89.87 32.8698 89.78 35.4598 89.61 36.9898C89.44 38.5098 88.9 39.9098 87.99 41.1698C87.08 42.4298 85.85 43.3998 84.31 44.0798C82.77 44.7598 80.96 45.0898 78.9 45.0898C76.84 45.0898 75.19 44.7698 73.64 44.1298C72.08 43.4898 70.83 42.5298 69.89 41.2598C68.94 39.9798 68.38 38.5898 68.2 37.0898C68.02 35.5898 67.93 32.9598 67.93 29.1998V22.9598C67.93 19.2898 68.02 16.6998 68.19 15.1698C68.36 13.6498 68.9 12.2498 69.81 10.9898C70.72 9.72982 71.95 8.75982 73.49 8.07982C75.04 7.39982 76.84 7.06982 78.9 7.06982C80.96 7.06982 82.61 7.38982 84.16 8.02982C85.72 8.66982 86.97 9.62981 87.91 10.8998C88.86 12.1798 89.42 13.5698 89.6 15.0698C89.78 16.5698 89.87 19.1998 89.87 22.9598V29.1998ZM80.38 17.2098C80.38 15.5098 80.29 14.4298 80.1 13.9498C79.91 13.4798 79.53 13.2398 78.94 13.2398C78.44 13.2398 78.06 13.4298 77.8 13.8098C77.54 14.1898 77.41 15.3198 77.41 17.1998V34.2398C77.41 36.3598 77.5 37.6598 77.67 38.1598C77.84 38.6598 78.24 38.8998 78.88 38.8998C79.52 38.8998 79.94 38.6098 80.12 38.0398C80.3 37.4698 80.39 36.1098 80.39 33.9598V17.1898L80.38 17.2098Z" fill="#041421"/>
<path d="M102.89 7.83008V37.0101H108.66V44.3101H93.4V7.83008H102.89Z" fill="#041421"/>
<path d="M132.53 7.82982V32.2098C132.53 34.9698 132.44 36.9198 132.26 38.0298C132.08 39.1498 131.55 40.2998 130.66 41.4798C129.77 42.6598 128.61 43.5498 127.16 44.1598C125.71 44.7698 124 45.0698 122.03 45.0698C119.85 45.0698 117.93 44.7098 116.26 43.9898C114.59 43.2698 113.35 42.3298 112.52 41.1698C111.69 40.0098 111.2 38.7898 111.06 37.5098C110.92 36.2298 110.83 33.5298 110.83 29.4098V7.81982H120.32V35.1798C120.32 36.7698 120.41 37.7898 120.58 38.2298C120.75 38.6698 121.1 38.8898 121.63 38.8898C122.23 38.8898 122.62 38.6498 122.79 38.1598C122.96 37.6698 123.05 36.5198 123.05 34.6998V7.81982H132.54L132.53 7.82982Z" fill="#041421"/>
<path d="M158.35 23.7198H148.86V17.3798C148.86 15.5398 148.76 14.3898 148.56 13.9298C148.36 13.4698 147.91 13.2398 147.22 13.2398C146.44 13.2398 145.94 13.5198 145.73 14.0698C145.52 14.6298 145.41 15.8298 145.41 17.6798V34.6298C145.41 36.3998 145.51 37.5598 145.73 38.0998C145.94 38.6398 146.41 38.9098 147.15 38.9098C147.89 38.9098 148.32 38.6398 148.54 38.0998C148.76 37.5598 148.87 36.2898 148.87 34.2798V29.6898H158.36V31.1098C158.36 34.8898 158.09 37.5598 157.56 39.1398C157.03 40.7198 155.85 42.0998 154.02 43.2898C152.19 44.4798 149.94 45.0698 147.27 45.0698C144.6 45.0698 142.2 44.5698 140.4 43.5598C138.6 42.5498 137.4 41.1598 136.82 39.3798C136.24 37.5998 135.94 34.9198 135.94 31.3498V20.6898C135.94 18.0598 136.03 16.0898 136.21 14.7698C136.39 13.4498 136.93 12.1898 137.82 10.9698C138.71 9.7498 139.95 8.79981 141.54 8.09981C143.12 7.39981 144.95 7.0498 147 7.0498C149.79 7.0498 152.1 7.5898 153.92 8.6698C155.74 9.7498 156.93 11.0998 157.5 12.7098C158.07 14.3198 158.36 16.8298 158.36 20.2398V23.7098L158.35 23.7198Z" fill="#041421"/>
<path d="M171.24 7.83008V44.3101H161.75V7.83008H171.24Z" fill="#041421"/>
<path d="M196.73 29.1998C196.73 32.8698 196.64 35.4598 196.47 36.9898C196.3 38.5198 195.76 39.9098 194.85 41.1698C193.94 42.4298 192.71 43.3998 191.17 44.0798C189.63 44.7598 187.82 45.0898 185.76 45.0898C183.7 45.0898 182.05 44.7698 180.5 44.1298C178.94 43.4898 177.69 42.5298 176.75 41.2598C175.8 39.9798 175.24 38.5898 175.06 37.0898C174.88 35.5898 174.79 32.9598 174.79 29.1998V22.9598C174.79 19.2898 174.88 16.6998 175.05 15.1698C175.22 13.6498 175.76 12.2498 176.67 10.9898C177.58 9.72982 178.81 8.75982 180.35 8.07982C181.9 7.39982 183.7 7.06982 185.76 7.06982C187.71 7.06982 189.47 7.38982 191.02 8.02982C192.58 8.66982 193.83 9.62981 194.77 10.8998C195.72 12.1798 196.28 13.5698 196.46 15.0698C196.64 16.5698 196.73 19.1998 196.73 22.9598V29.1998ZM187.24 17.2098C187.24 15.5098 187.15 14.4298 186.96 13.9498C186.77 13.4798 186.39 13.2398 185.8 13.2398C185.3 13.2398 184.92 13.4298 184.66 13.8098C184.4 14.1898 184.27 15.3198 184.27 17.1998V34.2398C184.27 36.3598 184.36 37.6598 184.53 38.1598C184.7 38.6598 185.1 38.8998 185.74 38.8998C186.38 38.8998 186.8 38.6098 186.98 38.0398C187.16 37.4698 187.25 36.1098 187.25 33.9598V17.1898L187.24 17.2098Z" fill="#041421"/>
<path d="M193.24 0L185.82 6.11H181.25L185.22 0H193.24Z" fill="#041421"/>
<path d="M221.45 7.83008V44.3101H213.13L208.19 27.7201V44.3101H200.26V7.83008H208.19L213.51 24.2601V7.83008H221.44H221.45Z" fill="#041421"/>
</svg>
