<svg width="144" height="48" viewBox="0 0 144 48" fill="none" xmlns="http://www.w3.org/2000/svg">
<path d="M6.91151 44.8246C6.91151 45.7099 6.62386 46.4321 6.04077 46.999C5.45769 47.5659 4.72689 47.8455 3.8406 47.8455H0.00779724V31.1023H3.8406C4.73466 31.1023 5.46546 31.3818 6.04854 31.9488C6.62385 32.5157 6.91928 33.2379 6.91928 34.1232V44.809L6.91151 44.8246ZM5.41881 44.6692V34.263C5.41881 33.7116 5.24778 33.269 4.89793 32.9273C4.54808 32.5856 4.10493 32.4225 3.55294 32.4225H1.48494V46.533H3.46742C4.04273 46.533 4.51698 46.37 4.8746 46.036C5.23223 45.7021 5.41881 45.2517 5.41881 44.6692Z" fill="#D4F9F2"/>
<path d="M11.0941 47.8455H9.60919V31.1023H11.0941V47.8455Z" fill="#D4F9F2"/>
<path d="M20.6722 46.6573C20.6722 47.0068 20.5634 47.2941 20.3379 47.5115C20.1203 47.729 19.8326 47.8455 19.4828 47.8455H15.0824C14.7326 47.8455 14.4449 47.7368 14.2272 47.5115C14.0095 47.2941 13.8929 47.0068 13.8929 46.6573V32.2905C13.8929 31.941 14.0018 31.6537 14.2272 31.4362C14.4527 31.2188 14.7326 31.1023 15.0824 31.1023H19.4828C19.8326 31.1023 20.1203 31.211 20.3379 31.4362C20.5556 31.6537 20.6722 31.941 20.6722 32.2905V36.1812H19.1718V32.4147H15.3779V46.5253H19.1718V40.7397H17.3837V39.4584H20.6722V46.6573Z" fill="#D4F9F2"/>
<path d="M24.9016 47.8455H23.4089V31.1023H24.9016V47.8455Z" fill="#D4F9F2"/>
<path d="M33.469 32.4225H30.8801V47.8455H29.3952V32.4225H26.783V31.1101H33.4768V32.4225H33.469Z" fill="#D4F9F2"/>
<path d="M41.9743 47.8455H40.4971L39.9063 44.1256H36.5788L35.988 47.8455H34.5497V47.7989L37.5351 31.0557H39.0045L41.9743 47.8377V47.8455ZM39.7119 42.8132L38.2425 33.7427L36.7654 42.8132H39.7119Z" fill="#D4F9F2"/>
<path d="M49.3445 47.8455H43.9879V31.1023H45.4728V46.5253H49.3367V47.8377L49.3445 47.8455Z" fill="#D4F9F2"/>
<path d="M0 5.05558H4.33814C7.23024 5.05558 9.1894 5.1643 10.2079 5.38951C11.2341 5.61472 12.0659 6.18163 12.7112 7.098C13.3565 8.01438 13.6753 9.47436 13.6753 11.478C13.6753 13.3107 13.4498 14.5377 12.9911 15.1667C12.5324 15.7958 11.6384 16.1763 10.3011 16.3006C11.514 16.6034 12.3303 16.9995 12.7423 17.5043C13.1621 18.009 13.4187 18.4672 13.5198 18.8943C13.6208 19.3137 13.6753 20.4786 13.6753 22.3735V28.5784H7.98436V20.7582C7.98436 19.5001 7.88329 18.7157 7.68893 18.4206C7.48679 18.1178 6.96591 17.9702 6.12627 17.9702V28.5784H0V5.04781V5.05558ZM6.12627 9.0783V14.3125C6.8182 14.3125 7.30021 14.2193 7.57231 14.0329C7.85219 13.8465 7.98436 13.233 7.98436 12.1924V10.8955C7.98436 10.15 7.8522 9.66074 7.58786 9.42776C7.32353 9.19479 6.83375 9.0783 6.12627 9.0783Z" fill="#D4F9F2"/>
<path d="M16.0543 5.05559H26.2699V9.7617H22.1806V14.2271H26.0056V18.708H22.1806V23.88H26.6742V28.5862H16.0543V5.05559Z" fill="#D4F9F2"/>
<path d="M43.0083 5.05559L39.8907 28.5862H30.5847L27.0473 5.05559H33.5079C34.262 11.5401 34.7985 17.0228 35.1172 21.5114C35.436 16.9762 35.7703 12.9535 36.1279 9.43553L36.5555 5.05559H43.016H43.0083Z" fill="#D4F9F2"/>
<path d="M58.0363 18.8322C58.0363 21.193 57.9819 22.8705 57.8652 23.8567C57.7564 24.843 57.4065 25.7361 56.8157 26.5515C56.2248 27.3669 55.4318 27.9882 54.4367 28.4231C53.4416 28.8579 52.2754 29.0754 50.946 29.0754C49.6166 29.0754 48.5514 28.8657 47.5485 28.4541C46.5456 28.0425 45.7371 27.4213 45.1229 26.5981C44.5087 25.7749 44.1511 24.8818 44.0345 23.9111C43.9179 22.9404 43.8635 21.2474 43.8635 18.8245V14.8017C43.8635 12.4409 43.9179 10.7635 44.0345 9.77722C44.1433 8.79096 44.4932 7.89788 45.084 7.08247C45.6671 6.26705 46.4601 5.64578 47.463 5.2109C48.4582 4.77601 49.6243 4.55856 50.9538 4.55856C52.2832 4.55856 53.3483 4.76824 54.3512 5.17983C55.3541 5.59142 56.1626 6.21269 56.7768 7.03587C57.391 7.85905 57.7486 8.75989 57.8652 9.72286C57.9819 10.6936 58.0363 12.3866 58.0363 14.8095V18.8322ZM51.91 11.0974C51.91 10.0024 51.8478 9.3035 51.7312 8.99287C51.6068 8.69 51.358 8.53468 50.9849 8.53468C50.6661 8.53468 50.4173 8.65894 50.2463 8.90745C50.0752 9.15595 49.9897 9.88594 49.9897 11.0974V22.0861C49.9897 23.4529 50.0441 24.2916 50.1608 24.6178C50.2696 24.9362 50.5339 25.0993 50.9382 25.0993C51.3425 25.0993 51.6224 24.9129 51.739 24.5479C51.8556 24.1829 51.91 23.3054 51.91 21.9153V11.0974Z" fill="#D4F9F2"/>
<path d="M66.4482 5.05559V23.88H70.1722V28.5862H60.322V5.05559H66.4482Z" fill="#D4F9F2"/>
<path d="M85.589 5.05559V20.7815C85.589 22.5676 85.5346 23.8179 85.4179 24.5401C85.3013 25.2624 84.9593 26.0001 84.3839 26.7612C83.8086 27.5222 83.0545 28.0969 82.1216 28.493C81.1886 28.889 80.0847 29.0832 78.8097 29.0832C77.4025 29.0832 76.1586 28.8502 75.0857 28.3842C74.005 27.9183 73.2043 27.3126 72.6679 26.567C72.1314 25.8215 71.8204 25.0372 71.7194 24.2062C71.6183 23.3753 71.5717 21.6357 71.5717 18.9798V5.05559H77.6979V22.6996C77.6979 23.7247 77.7523 24.3848 77.869 24.6722C77.9778 24.9595 78.2033 25.0993 78.5453 25.0993C78.9341 25.0993 79.1828 24.944 79.2917 24.6256C79.4005 24.3072 79.4627 23.5694 79.4627 22.3968V5.05559H85.589Z" fill="#D4F9F2"/>
<path d="M102.265 15.2988H96.1388V11.2061C96.1388 10.018 96.0766 9.27245 95.9445 8.97734C95.8123 8.68224 95.5246 8.53469 95.0815 8.53469C94.5761 8.53469 94.2574 8.7133 94.1175 9.07053C93.9853 9.42776 93.9153 10.2043 93.9153 11.3925V22.3269C93.9153 23.4684 93.9853 24.214 94.1175 24.5634C94.2496 24.9129 94.5606 25.0837 95.0348 25.0837C95.5091 25.0837 95.789 24.9129 95.9289 24.5557C96.0689 24.2062 96.1388 23.383 96.1388 22.0939V19.1351H102.265V20.0515C102.265 22.4899 102.094 24.214 101.752 25.2313C101.41 26.2486 100.648 27.1417 99.4663 27.9105C98.2846 28.6793 96.8307 29.0599 95.1048 29.0599C93.3789 29.0599 91.8318 28.7337 90.6656 28.0891C89.4994 27.4368 88.7298 26.5437 88.3488 25.3944C87.9679 24.245 87.7813 22.521 87.7813 20.2145V13.3418C87.7813 11.6488 87.8357 10.3752 87.9523 9.52872C88.0689 8.68224 88.4188 7.86683 88.9941 7.08247C89.5694 6.29812 90.3702 5.67685 91.3964 5.22643C92.4226 4.77601 93.5966 4.5508 94.926 4.5508C96.7297 4.5508 98.2224 4.90027 99.3963 5.59919C100.57 6.29812 101.34 7.1679 101.713 8.20852C102.086 9.24915 102.265 10.8644 102.265 13.0622V15.2988Z" fill="#D4F9F2"/>
<path d="M110.584 5.05559V28.5862H104.458V5.05559H110.584Z" fill="#D4F9F2"/>
<path d="M127.042 18.8322C127.042 21.193 126.988 22.8705 126.871 23.8567C126.755 24.843 126.413 25.7361 125.822 26.5515C125.239 27.3669 124.446 27.9882 123.443 28.4231C122.44 28.8579 121.282 29.0754 119.952 29.0754C118.623 29.0754 117.558 28.8657 116.555 28.4541C115.552 28.0425 114.743 27.4213 114.129 26.5981C113.515 25.7749 113.157 24.8818 113.041 23.9111C112.924 22.9404 112.87 21.2474 112.87 18.8245V14.8017C112.87 12.4409 112.924 10.7635 113.041 9.77722C113.149 8.79096 113.499 7.89788 114.09 7.08247C114.673 6.26705 115.466 5.64578 116.469 5.2109C117.472 4.77601 118.63 4.55856 119.96 4.55856C121.219 4.55856 122.354 4.76824 123.357 5.17983C124.36 5.59142 125.169 6.21269 125.783 7.03587C126.397 7.85905 126.755 8.75989 126.871 9.72286C126.988 10.6936 127.042 12.3866 127.042 14.8095V18.8322ZM120.916 11.0974C120.916 10.0024 120.854 9.3035 120.737 8.99287C120.613 8.69 120.364 8.53468 119.991 8.53468C119.672 8.53468 119.423 8.65894 119.252 8.90745C119.081 9.15595 118.996 9.88594 118.996 11.0974V22.0861C118.996 23.4529 119.05 24.2916 119.167 24.6178C119.276 24.9362 119.54 25.0993 119.944 25.0993C120.349 25.0993 120.628 24.9129 120.745 24.5479C120.862 24.1829 120.916 23.3054 120.916 21.9153V11.0974Z" fill="#D4F9F2"/>
<path d="M124.788 0L119.999 3.93729H117.044L119.61 0H124.788Z" fill="#D4F9F2"/>
<path d="M143.011 5.05559V28.5862H137.639L134.451 17.8848V28.5862H129.328V5.05559H134.451L137.888 15.656V5.05559H143.011Z" fill="#D4F9F2"/>
</svg>
